<svg width="51" height="50" viewBox="0 0 51 50" fill="none" xmlns="http://www.w3.org/2000/svg">
<mask id="mask0_744_203" style="mask-type:luminance" maskUnits="userSpaceOnUse" x="6" y="2" width="39" height="46">
<path d="M39.8793 5.20837H11.1209C10.8309 5.20841 10.5441 5.26898 10.2789 5.38622C10.0137 5.50346 9.77584 5.67478 9.58062 5.88922C9.3854 6.10366 9.2371 6.35649 9.14521 6.63153C9.05331 6.90658 9.01985 7.19778 9.04697 7.4865L11.847 37.3469C11.8809 37.7103 12.0097 38.0585 12.2205 38.3565C12.4312 38.6545 12.7166 38.8918 13.048 39.0448L24.6272 44.3886C24.9009 44.5149 25.1987 44.5803 25.5001 44.5803C25.8015 44.5803 26.0993 44.5149 26.373 44.3886L37.9522 39.0448C38.2838 38.892 38.5694 38.6547 38.7803 38.3567C38.9913 38.0587 39.1203 37.7105 39.1543 37.3469L41.9532 7.4865C41.9803 7.19778 41.9469 6.90658 41.855 6.63153C41.7631 6.35649 41.6148 6.10366 41.4196 5.88922C41.2243 5.67478 40.9865 5.50346 40.7213 5.38622C40.456 5.26898 40.1693 5.20841 39.8793 5.20837Z" fill="white" stroke="white" stroke-width="5.85282"/>
<path d="M33.8334 12.5H17.1667L18.2084 21.875H32.7918L31.7501 33.3333L25.5001 36.4583L19.2501 33.3333L18.7292 28.125" stroke="black" stroke-width="5.85282" stroke-linecap="round" stroke-linejoin="round"/>
</mask>
<g mask="url(#mask0_744_203)">
<path d="M0.5 0H50.5V50H0.5V0Z" fill="white"/>
</g>
</svg>
