<svg width="51" height="50" viewBox="0 0 51 50" fill="none" xmlns="http://www.w3.org/2000/svg">
<path d="M30.6625 31.0063C29.0962 31.159 27.5183 30.8719 26.1063 30.1771C25.7862 29.9213 25.522 29.6026 25.33 29.2407C25.1379 28.8788 25.0221 28.4813 24.9896 28.0729C24.989 28.0118 24.9764 27.9514 24.9524 27.8953C24.9284 27.8391 24.8935 27.7882 24.8497 27.7456C24.8059 27.703 24.7541 27.6695 24.6973 27.647C24.6405 27.6245 24.5798 27.6135 24.5188 27.6146C23.859 27.6079 23.1993 27.6079 22.5396 27.6146C22.4245 27.6029 22.3095 27.637 22.2194 27.7095C22.1293 27.7821 22.0714 27.8872 22.0583 28.0021C22.0209 28.7184 22.1422 29.4342 22.4133 30.0982C22.6845 30.7623 23.099 31.3583 23.6271 31.8438C24.9604 32.885 26.5797 33.4948 28.2688 33.5917C30.0286 33.7955 31.8097 33.7195 33.5458 33.3667C34.8788 33.1181 36.1009 32.4597 37.0417 31.4833C37.5619 30.8421 37.9105 30.079 38.0549 29.266C38.1992 28.453 38.1344 27.6166 37.8667 26.8354C37.6421 26.2847 37.2944 25.7928 36.8502 25.3974C36.406 25.0019 35.8771 24.7135 35.3042 24.5542C32.6375 23.6167 29.7542 23.6896 27.0333 22.9771C26.5604 22.8313 25.9833 22.6687 25.7729 22.1687C25.6512 21.8169 25.6429 21.4357 25.749 21.0789C25.8551 20.722 26.0704 20.4074 26.3646 20.1792C27.2194 19.6905 28.1929 19.4482 29.1771 19.4792C30.5108 19.3542 31.8552 19.5469 33.1 20.0417C33.4742 20.2617 33.7961 20.5605 34.0432 20.9174C34.2904 21.2743 34.4569 21.6806 34.5312 22.1083C34.5347 22.2348 34.5853 22.3555 34.6732 22.4465C34.7611 22.5375 34.88 22.5922 35.0063 22.6C35.6604 22.6125 36.3146 22.6021 36.9708 22.6042C37.0844 22.6175 37.1989 22.5895 37.2934 22.5252C37.388 22.4609 37.4561 22.3647 37.4854 22.2542C37.4911 21.3708 37.2659 20.5013 36.8322 19.7317C36.3984 18.9621 35.7712 18.3192 35.0125 17.8667C32.919 16.9002 30.5952 16.5441 28.3083 16.8396C26.6327 16.9086 25.0319 17.5523 23.775 18.6625C23.1983 19.2846 22.8078 20.0561 22.6479 20.8892C22.4881 21.7224 22.5653 22.5836 22.8708 23.375C23.1088 23.9053 23.4588 24.3777 23.8969 24.7596C24.3349 25.1416 24.8506 25.424 25.4083 25.5875C28.0688 26.5479 30.9833 26.2396 33.6667 27.0896C34.1917 27.2667 34.8 27.5396 34.9604 28.1208C35.0466 28.4699 35.04 28.8354 34.9413 29.1811C34.8426 29.5268 34.6553 29.8407 34.3979 30.0917C33.2815 30.7856 31.9732 31.1059 30.6625 31.0063ZM42.7854 13.4125C37.5938 10.4764 32.4 7.54236 27.2042 4.61041C26.6831 4.31901 26.096 4.16602 25.499 4.16602C24.9019 4.16602 24.3148 4.31901 23.7938 4.61041L8.27083 13.3771C7.76725 13.6511 7.34617 14.0548 7.05127 14.5464C6.75637 15.0381 6.5984 15.5996 6.59375 16.1729V33.8292C6.60227 34.4131 6.76868 34.9838 7.07531 35.4808C7.38194 35.9778 7.81737 36.3825 8.33542 36.6521C9.82083 37.4604 11.2646 38.3521 12.7792 39.1083C13.6527 39.5751 14.6228 39.8322 15.6128 39.8593C16.6028 39.8865 17.5856 39.6828 18.4833 39.2646C19.1551 38.8437 19.7017 38.2505 20.0663 37.5466C20.4309 36.8427 20.6001 36.054 20.5563 35.2625C20.5667 29.4354 20.5563 23.6083 20.5604 17.7833C20.5708 17.7196 20.5675 17.6543 20.5509 17.5919C20.5342 17.5294 20.5046 17.4712 20.4638 17.4211C20.4231 17.3709 20.3723 17.3299 20.3146 17.3008C20.2569 17.2717 20.1937 17.2551 20.1292 17.2521C19.4674 17.2445 18.8055 17.2445 18.1438 17.2521C18.0827 17.2468 18.0212 17.2544 17.9633 17.2745C17.9054 17.2945 17.8523 17.3264 17.8075 17.3683C17.7627 17.4101 17.7272 17.4609 17.7033 17.5173C17.6794 17.5737 17.6676 17.6346 17.6688 17.6958C17.6604 23.4854 17.6708 29.275 17.6646 35.0667C17.6658 35.4663 17.5447 35.8568 17.3175 36.1856C17.0903 36.5145 16.768 36.7659 16.3938 36.9063C15.9631 37.0336 15.5103 37.0686 15.0652 37.0091C14.62 36.9495 14.1924 36.7966 13.8104 36.5604L9.68125 34.2271C9.58994 34.184 9.51403 34.114 9.46374 34.0265C9.41345 33.9389 9.39121 33.8381 9.4 33.7375V16.2646C9.39055 16.1514 9.41708 16.038 9.47581 15.9408C9.53454 15.8435 9.62248 15.7673 9.72708 15.7229C14.884 12.8174 20.0403 9.90972 25.1958 7C25.2854 6.93855 25.3914 6.90565 25.5 6.90565C25.6086 6.90565 25.7146 6.93855 25.8042 7L41.275 15.7208C41.3786 15.7663 41.4656 15.8428 41.5238 15.9399C41.582 16.0369 41.6087 16.1497 41.6 16.2625V33.7375C41.6088 33.8386 41.5869 33.9401 41.5371 34.0286C41.4872 34.117 41.4119 34.1884 41.3208 34.2333C36.2431 37.1056 31.1618 39.9736 26.0771 42.8375C25.8354 42.9708 25.5479 43.1896 25.2646 43.025C23.9313 42.2708 22.6188 41.4875 21.2896 40.7271C21.2217 40.675 21.1398 40.6444 21.0545 40.6392C20.9691 40.634 20.8841 40.6545 20.8104 40.6979C20.226 41.0407 19.6108 41.328 18.9729 41.5563C18.6854 41.6729 18.3312 41.7063 18.1333 41.9729C18.3863 42.2472 18.6925 42.467 19.0333 42.6188L23.6917 45.3125C24.2054 45.635 24.7962 45.8139 25.4026 45.8308C26.0089 45.8476 26.6087 45.7018 27.1396 45.4083C32.3146 42.4917 37.4896 39.5722 42.6646 36.65C43.1819 36.3801 43.6168 35.9756 43.9233 35.4791C44.2298 34.9826 44.3967 34.4126 44.4063 33.8292V16.1729C44.4014 15.6112 44.2491 15.0605 43.9647 14.5761C43.6803 14.0917 43.2736 13.6904 42.7854 13.4125Z" fill="white"/>
</svg>
