<svg width="70" height="71" fill="none" xmlns="http://www.w3.org/2000/svg"><path fill-rule="evenodd" clip-rule="evenodd" d="M66.632 44.648a19.137 19.137 0 0 0-8.198-6.29l-.17-.061a14.832 14.832 0 0 0-14.41 1.907L42 41.591a2.578 2.578 0 0 1-3.367-.242l-9.723-9.723a2.578 2.578 0 0 1-.242-3.372l1.392-1.856a14.832 14.832 0 0 0 1.907-14.4l-.067-.164a19.142 19.142 0 0 0-6.29-8.208l-.98-.737a12.012 12.012 0 0 0-11.006-1.784l-.98.325A17.962 17.962 0 0 0 1.291 12.787a25.148 25.148 0 0 0-.541 14.05 50.307 50.307 0 0 0 13.234 23.369l6.073 6.073a50.307 50.307 0 0 0 23.37 13.23 25.06 25.06 0 0 0 14.048-.537 17.962 17.962 0 0 0 11.363-11.363l.325-.974a12.013 12.013 0 0 0-1.789-11.007l-.737-.98h-.005ZM20.979 6.507 20 5.769a3.35 3.35 0 0 0-3.073-.495l-.98.325C13.175 6.527 7.929 11.226 7 14c-.993 2.976-.761 8.456 0 11.5 1.831 7.321 5.663 14.303 11 19.64l6.5 6.49c5.336 5.336 13.679 10.538 21 12.37 3.042.758 8.195-.01 11.17-1 2.779-.928 4.83-5 6.33-7.5l.5-2.273a3.352 3.352 0 0 0-.5-3.073l-.737-.98c-1.152-1.536-3.81-4.391-5.593-5.107L56.5 44a6.17 6.17 0 0 0-5.996.794l-1.856 1.392a11.239 11.239 0 0 1-14.688-1.047L26 37.364a11.239 11.239 0 0 1-1.047-14.693l1.392-1.856a6.174 6.174 0 0 0 .794-5.99l-.067-.165c-.713-1.786-4.554-7-6.092-8.153Z" fill="#fff"/></svg>