<svg width="47" height="17" fill="none" xmlns="http://www.w3.org/2000/svg"><path d="M19.688 16.125c-.72 0-1.324-.244-1.81-.732s-.73-1.091-.732-1.81v-2.541h3.812v1.27h5.084V9.771h-6.355c-.72 0-1.323-.244-1.81-.732-.485-.488-.73-1.091-.731-1.81V3.417c0-.72.244-1.324.732-1.81s1.091-.73 1.81-.732h7.625c.72 0 1.324.244 1.812.732s.73 1.091.73 1.81v2.541h-3.813v-1.27h-5.084v2.541h6.355c.72 0 1.324.244 1.812.732s.73 1.091.73 1.81v3.812c0 .72-.245 1.325-.733 1.813-.488.487-1.091.73-1.81.729h-7.625Zm16.52 0c-.72 0-1.323-.244-1.81-.732-.486-.488-.73-1.091-.731-1.81v-2.541h3.812v1.27h5.084V9.771h-6.355c-.72 0-1.323-.244-1.81-.732-.486-.488-.73-1.091-.731-1.81V3.417c0-.72.244-1.324.732-1.81s1.09-.73 1.81-.732h7.624c.72 0 1.325.244 1.813.732s.73 1.091.729 1.81v2.541h-3.813v-1.27H37.48v2.541h6.354c.72 0 1.325.244 1.813.732s.73 1.091.729 1.81v3.812c0 .72-.244 1.325-.732 1.813-.488.487-1.091.73-1.81.729h-7.625Zm-33.041 0c-.72 0-1.324-.244-1.81-.732s-.73-1.091-.732-1.81V3.417c0-.72.244-1.324.732-1.81s1.091-.73 1.81-.732h7.625c.72 0 1.324.244 1.812.732s.731 1.091.73 1.81v2.541H9.52v-1.27H4.438v7.625H9.52v-1.271h3.812v2.541c0 .72-.244 1.325-.732 1.813-.488.487-1.09.73-1.81.729H3.168Z" fill="#fff"/></svg>