<svg width="51" height="50" fill="none" xmlns="http://www.w3.org/2000/svg"><path d="M25.5 6.25h-6.25a6.25 6.25 0 0 0 0 12.5h6.25m0-12.5v12.5m0-12.5h6.25a6.25 6.25 0 0 1 0 12.5H25.5" stroke="#fff" stroke-width="2.195" stroke-linecap="round" stroke-linejoin="round"/><path d="M19.25 31.25a6.25 6.25 0 1 0 6.25 6.25v-6.25m-6.25 0h6.25m-6.25 0a6.25 6.25 0 0 1 0-12.5h6.25v12.5m0-6.25A6.25 6.25 0 1 1 38 25a6.25 6.25 0 0 1-12.5 0Z" stroke="#fff" stroke-width="2.195" stroke-linecap="round" stroke-linejoin="round"/></svg>