<svg width="51" height="50" viewBox="0 0 51 50" fill="none" xmlns="http://www.w3.org/2000/svg">
<g clip-path="url('#clip0_744_224')">
<path d="M49.5542 22.7708L27.7229 0.94161C27.1177 0.338588 26.2981 0 25.4438 0C24.5894 0 23.7698 0.338588 23.1646 0.94161L18.6417 5.47286L24.3917 11.2229C25.0701 10.993 25.7993 10.9581 26.4966 11.122C27.1938 11.2859 27.8311 11.6421 28.3361 12.1501C28.841 12.658 29.1934 13.2975 29.3531 13.9957C29.5128 14.6939 29.4735 15.4229 29.2396 16.0999L34.7771 21.6416C35.5966 21.3567 36.4886 21.3585 37.307 21.6468C38.1253 21.9351 38.8215 22.4927 39.2815 23.2284C39.7414 23.9641 39.9379 24.8342 39.8387 25.6962C39.7395 26.5582 39.3505 27.3609 38.7354 27.9729C38.38 28.3289 37.9578 28.6113 37.4931 28.8041C37.0283 28.9968 36.5302 29.096 36.0271 29.096C35.524 29.096 35.0258 28.9968 34.5611 28.8041C34.0964 28.6113 33.6742 28.3289 33.3188 27.9729C32.787 27.4381 32.4239 26.7591 32.2743 26.0199C32.1246 25.2808 32.1952 24.514 32.4771 23.8145L27.2917 18.6562V32.2499C27.6583 32.4291 28.0042 32.6729 28.3083 32.9749C29.0208 33.6963 29.4203 34.6694 29.4203 35.6833C29.4203 36.6972 29.0208 37.6702 28.3083 38.3916C27.9516 38.7487 27.5279 39.032 27.0616 39.2253C26.5953 39.4186 26.0954 39.518 25.5906 39.518C25.0858 39.518 24.586 39.4186 24.1197 39.2253C23.6534 39.032 23.2297 38.7487 22.8729 38.3916C22.5168 38.0366 22.2342 37.6149 22.0414 37.1505C21.8486 36.6861 21.7493 36.1882 21.7493 35.6854C21.7493 35.1825 21.8486 34.6846 22.0414 34.2202C22.2342 33.7558 22.5168 33.3341 22.8729 32.9791C23.2521 32.6041 23.6792 32.3208 24.1333 32.1333V18.4062C23.6657 18.215 23.2405 17.933 22.8826 17.5764C22.5246 17.2198 22.241 16.7958 22.048 16.3288C21.855 15.8619 21.7566 15.3613 21.7583 14.8561C21.7601 14.3508 21.8621 13.8509 22.0583 13.3854L16.4083 7.70828L1.4375 22.6687C0.1875 23.9291 0.1875 25.9687 1.4375 27.2291L23.2708 49.0562C23.5698 49.3554 23.9247 49.5928 24.3154 49.7547C24.7062 49.9167 25.125 50 25.5479 50C25.9709 50 26.3897 49.9167 26.7804 49.7547C27.1711 49.5928 27.5261 49.3554 27.825 49.0562L49.5542 27.327C49.8539 27.0282 50.0918 26.6731 50.2541 26.2822C50.4164 25.8913 50.4999 25.4722 50.4999 25.0489C50.4999 24.6256 50.4164 24.2065 50.2541 23.8156C50.0918 23.4247 49.8539 23.0696 49.5542 22.7708Z" fill="white"></path>
</g>
<defs>
<clipPath id="clip0_744_224">
<rect width="50" height="50" fill="white" transform="translate(0.5)"></rect>
</clipPath>
</defs>
</svg>
