<svg width="51" height="50" fill="none" xmlns="http://www.w3.org/2000/svg"><mask id="mask0_744_203" style="mask-type:luminance" maskUnits="userSpaceOnUse" x="6" y="2" width="39" height="46"><path d="M39.88 5.208H11.12a2.083 2.083 0 0 0-2.073 2.279l2.8 29.86a2.083 2.083 0 0 0 1.201 1.698l11.58 5.344a2.083 2.083 0 0 0 1.745 0l11.58-5.344a2.082 2.082 0 0 0 1.201-1.698l2.8-29.86a2.083 2.083 0 0 0-2.075-2.279Z" fill="#fff" stroke="#fff" stroke-width="5.853"/><path d="M33.833 12.5H17.167l1.041 9.375h14.584L31.75 33.333l-6.25 3.125-6.25-3.125-.52-5.208" stroke="#000" stroke-width="5.853" stroke-linecap="round" stroke-linejoin="round"/></mask><g mask="url('#mask0_744_203')"><path d="M.5 0h50v50H.5V0Z" fill="#fff"/></g></svg>