<svg width="43" height="43" xmlns="http://www.w3.org/2000/svg"><path d="M21.234.467c-5.763 0-6.487.027-8.751.128-2.264.106-3.806.462-5.157.987a10.352 10.352 0 0 0-3.761 2.45 10.351 10.351 0 0 0-2.45 3.76c-.526 1.35-.884 2.894-.988 5.15-.1 2.27-.127 2.991-.127 8.762 0 5.765.027 6.486.127 8.75.107 2.262.462 3.804.988 5.155.544 1.396 1.268 2.58 2.45 3.761a10.363 10.363 0 0 0 3.758 2.45c1.354.525 2.893.884 5.154.987 2.267.101 2.99.128 8.757.128 5.767 0 6.487-.027 8.753-.128 2.259-.106 3.806-.462 5.157-.987a10.351 10.351 0 0 0 3.759-2.45c1.18-1.181 1.906-2.365 2.45-3.761.523-1.351.88-2.893.987-5.155.1-2.264.127-2.986.127-8.753 0-5.768-.026-6.49-.127-8.756-.106-2.259-.465-3.804-.987-5.152a10.35 10.35 0 0 0-2.45-3.761 10.351 10.351 0 0 0-3.761-2.45c-1.354-.525-2.899-.884-5.157-.987-2.267-.101-2.986-.128-8.757-.128h.006ZM19.33 4.295h1.905c5.67 0 6.341.018 8.579.122 2.07.093 3.195.44 3.944.73.99.385 1.699.846 2.442 1.59.743.743 1.202 1.449 1.587 2.441.292.746.637 1.872.73 3.942.103 2.237.125 2.909.125 8.576 0 5.666-.022 6.34-.125 8.578-.093 2.07-.44 3.193-.73 3.941a6.637 6.637 0 0 1-1.59 2.44c-.743.743-1.45 1.202-2.442 1.587-.743.292-1.868.637-3.941.733-2.238.1-2.91.124-8.579.124-5.67 0-6.343-.024-8.58-.124-2.071-.096-3.194-.441-3.942-.733a6.636 6.636 0 0 1-2.442-1.587 6.636 6.636 0 0 1-1.593-2.442c-.289-.746-.637-1.871-.73-3.942-.1-2.237-.122-2.909-.122-8.58 0-5.673.022-6.339.122-8.576.096-2.07.441-3.196.733-3.945.385-.99.847-1.698 1.59-2.441.743-.744 1.45-1.203 2.442-1.588.748-.292 1.871-.637 3.941-.732 1.96-.09 2.718-.117 6.676-.12v.006ZM32.57 7.819a2.548 2.548 0 1 0 0 5.096 2.548 2.548 0 0 0 0-5.096Zm-11.334 2.978a10.905 10.905 0 1 0-.34 21.808 10.905 10.905 0 0 0 .34-21.807Zm0 3.825a7.08 7.08 0 0 1 2.71 13.619 7.08 7.08 0 0 1-7.715-11.546 7.079 7.079 0 0 1 5.005-2.073Z" fill="#c2a875"/></svg>