<svg width="118" height="56" viewBox="0 0 118 56" fill="none" xmlns="http://www.w3.org/2000/svg">
<path d="M52.5135 39.581C51.8642 39.581 51.3379 40.1074 51.3379 40.7567C51.3379 41.406 51.8642 41.9324 52.5135 41.9324V39.581ZM116 41.9324C116.649 41.9324 117.176 41.406 117.176 40.7567C117.176 40.1074 116.649 39.581 116 39.581V41.9324ZM52.5135 41.9324H53.2433V39.581H52.5135V41.9324ZM54.7027 41.9324L68.5676 41.9324V39.581L54.7027 39.581V41.9324ZM72.946 41.9324H74.4054V39.581H72.946V41.9324ZM75.8649 41.9324H89.7298V39.581H75.8649V41.9324ZM94.1081 41.9324H95.5676V39.581H94.1081V41.9324ZM97.0271 41.9324H110.892V39.581H97.0271V41.9324ZM115.27 41.9324H116V39.581H115.27V41.9324Z" fill="white"/>
<path d="M92.4488 35.0346C91.1957 33.2585 89.5668 31.8269 87.6987 30.6429C85.056 28.9637 82.1969 27.855 78.996 27.5752C76.2394 27.3276 73.5397 27.5429 70.897 28.3071C68.7327 28.9314 66.7051 29.8356 64.7231 30.8474C61.9665 32.2575 59.4263 33.9797 57.0569 35.9065C55.8039 36.9183 54.5509 37.9409 53.3093 38.9742C53.0701 39.1679 52.9106 39.1679 52.717 38.9634C52.6942 38.9419 52.66 38.9096 52.6372 38.8881C50.5755 37.069 48.377 35.4006 46.076 33.8505C42.9549 31.7516 39.6857 29.9217 36.052 28.7269C33.7624 27.9734 31.4386 27.4029 29.4908 27.4352C27.9188 27.4245 26.848 27.4352 25.8001 27.629C23.7725 27.9842 21.8588 28.6516 20.059 29.6203C18.4643 30.4814 17.0632 31.5794 15.9127 32.9464C14.7622 34.3134 14.0901 35.8957 13.6687 37.5749C13.4636 38.4145 13.27 39.2648 13.3383 40.1259C13.4978 41.9558 14.1129 43.6673 15.0128 45.2819C15.7988 46.7027 16.9721 47.8114 18.2023 48.877C20.1729 50.567 22.4739 51.7187 24.9913 52.4937C26.4607 52.9458 27.953 53.301 29.4908 53.3979C31.9854 53.5594 34.423 53.2257 36.8038 52.4722C39.7654 51.525 42.5676 50.2871 45.2559 48.7586C47.7049 47.3701 49.9945 45.777 52.1474 43.9902C52.8537 43.4089 53.5485 42.8062 54.2434 42.2141C54.3801 42.0957 54.4826 42.085 54.6193 42.2141C54.8471 42.4187 55.0977 42.5909 55.3369 42.7846C57.1139 44.2916 59.0048 45.6479 60.9527 46.9503C62.536 48.0267 64.2447 48.8986 65.9647 49.7705C68.3682 50.9868 70.8514 52.0416 73.5055 52.6767C74.8041 52.9889 76.0913 53.3549 77.4354 53.3979C80.306 53.4948 83.1195 53.1719 85.7964 52.117C88.3822 51.1052 90.592 49.609 92.2323 47.4347C93.5537 45.7017 94.351 43.7642 94.4536 41.6221C94.5675 39.2218 93.8498 37.0259 92.4488 35.0346ZM52.0335 40.1475C50.5185 41.536 48.901 42.8169 47.2151 44.0225C46.1786 44.7544 45.1648 45.5079 44.0712 46.1645C42.0664 47.3808 40.016 48.5218 37.7948 49.3614C35.9039 50.0718 33.9902 50.7284 32.0082 51.159C30.9146 51.3958 29.7983 51.4927 28.5681 51.4927C26.2899 51.4712 23.9775 51.1159 21.8474 50.0395C18.806 48.5003 16.8809 46.143 16.3114 42.8923C15.6735 39.2648 16.8581 36.1863 19.5806 33.603C21.8246 31.4609 24.5585 30.2016 27.6568 29.6311C28.9668 29.3835 30.2995 29.2328 31.6436 29.2543C33.2726 29.2759 34.8445 29.6311 36.3823 30.0939C38.1707 30.6429 41.1299 30.8839 44.4962 32.8215C47.9394 34.8033 44.9369 34.1842 46.5203 35.3467C47.5683 36.1217 48.6162 36.886 49.6072 37.7148C50.4274 38.4037 51.2362 39.0926 52.0335 39.7923C52.193 39.943 52.1816 40.0075 52.0335 40.1475ZM86.6081 45.8513C85.0406 47.4189 84.2568 48.2026 81.9054 49.3783C80.0373 50.0242 78.606 50.5432 76.4189 50.554C74.2888 50.554 72.3357 50.4701 70.1487 49.7705C66.1163 48.4895 62.593 47.0364 59.2782 44.5392C57.9796 43.5596 56.7608 42.5263 55.5533 41.4499C55.4394 41.3423 55.3369 41.2777 55.5192 41.1162C57.1367 39.6846 58.7314 38.2315 60.4742 36.9398C63.117 34.9808 65.885 33.2047 68.915 31.8162C71.6032 30.5783 74.4168 29.6741 77.4013 29.3189C79.1213 29.1144 80.8299 29.3189 82.5272 29.6634C84.4523 30.0616 85.8427 31.3645 87.3919 32.527C89.3514 34.0945 90.527 37.6216 90.527 38.0135C90.527 38.7972 89.3514 42.7162 86.6081 45.8513Z" fill="url(#paint0_angular_55_644)"/>
<path d="M50.2302 36.9813C50.1849 37.0673 50.1346 37.1569 50.0812 37.2369C50.0254 37.3207 49.9489 37.3648 49.8801 37.4336C49.81 37.5037 49.674 37.5936 49.6344 37.6859C49.6275 37.7022 49.5648 37.8217 49.5822 37.8227C49.6964 37.829 49.7691 37.7097 49.8489 37.6548C49.9036 37.6173 49.947 37.5739 50.0001 37.5326C50.0861 37.4657 50.1124 37.3715 50.179 37.2858C50.2317 37.2181 50.2804 37.1462 50.3491 37.0935C50.4117 37.0455 50.4689 37.0144 50.5014 36.9401C50.5442 36.8422 50.6116 36.7643 50.6503 36.6611M92.4488 35.0346C91.1957 33.2585 89.5668 31.8269 87.6987 30.6429C85.056 28.9637 82.1969 27.855 78.996 27.5752C76.2394 27.3276 73.5397 27.5429 70.897 28.3071C68.7327 28.9314 66.7051 29.8356 64.7231 30.8474C61.9665 32.2575 59.4263 33.9797 57.0569 35.9065C55.8039 36.9183 54.5509 37.9409 53.3093 38.9742C53.0701 39.1679 52.9106 39.1679 52.717 38.9634C52.6942 38.9419 52.66 38.9096 52.6372 38.8881C50.5755 37.069 48.377 35.4006 46.076 33.8505C42.9549 31.7516 39.6857 29.9217 36.052 28.7269C33.7624 27.9734 31.4386 27.4029 29.4908 27.4352C27.9188 27.4245 26.848 27.4352 25.8001 27.629C23.7725 27.9842 21.8588 28.6516 20.059 29.6203C18.4643 30.4814 17.0632 31.5794 15.9127 32.9464C14.7622 34.3134 14.0901 35.8957 13.6687 37.5749C13.4636 38.4145 13.27 39.2648 13.3383 40.1259C13.4978 41.9558 14.1129 43.6673 15.0128 45.2819C15.7988 46.7027 16.9721 47.8114 18.2023 48.877C20.1729 50.567 22.4739 51.7187 24.9913 52.4937C26.4607 52.9458 27.953 53.301 29.4908 53.3979C31.9854 53.5594 34.423 53.2257 36.8038 52.4722C39.7654 51.525 42.5676 50.2871 45.2559 48.7586C47.7049 47.3701 49.9945 45.777 52.1474 43.9902C52.8537 43.4089 53.5485 42.8062 54.2434 42.2141C54.3801 42.0957 54.4826 42.085 54.6193 42.2141C54.8471 42.4187 55.0977 42.5909 55.3369 42.7846C57.1139 44.2916 59.0048 45.6479 60.9527 46.9503C62.536 48.0267 64.2447 48.8986 65.9647 49.7705C68.3682 50.9868 70.8514 52.0416 73.5055 52.6767C74.8041 52.9889 76.0913 53.3549 77.4354 53.3979C80.306 53.4948 83.1195 53.1719 85.7964 52.117C88.3822 51.1052 90.592 49.609 92.2323 47.4347C93.5537 45.7017 94.351 43.7642 94.4536 41.6221C94.5675 39.2218 93.8498 37.0259 92.4488 35.0346ZM52.0335 40.1475C50.5185 41.536 48.901 42.8169 47.2151 44.0225C46.1785 44.7544 45.1648 45.5079 44.0712 46.1645C42.0664 47.3808 40.016 48.5218 37.7948 49.3614C35.9039 50.0718 33.9902 50.7284 32.0082 51.159C30.9146 51.3958 29.7983 51.4927 28.5681 51.4927C26.2899 51.4712 23.9775 51.1159 21.8474 50.0395C18.806 48.5003 16.8809 46.143 16.3114 42.8923C15.6735 39.2648 16.8581 36.1863 19.5806 33.603C21.8246 31.4609 24.5585 30.2016 27.6568 29.6311C28.9668 29.3835 30.2995 29.2328 31.6436 29.2543C33.2726 29.2759 34.8445 29.6311 36.3823 30.0939C38.1707 30.6429 41.1299 30.8839 44.4962 32.8215C47.9394 34.8033 44.9369 34.1842 46.5203 35.3467C47.5683 36.1217 48.6162 36.886 49.6072 37.7148C50.4274 38.4037 51.2362 39.0926 52.0335 39.7923C52.193 39.943 52.1816 40.0075 52.0335 40.1475ZM86.6081 45.8513C85.0406 47.4189 84.2568 48.2026 81.9054 49.3783C80.0373 50.0242 78.606 50.5432 76.4189 50.554C74.2888 50.554 72.3357 50.4701 70.1487 49.7705C66.1163 48.4895 62.593 47.0364 59.2782 44.5392C57.9796 43.5596 56.7608 42.5263 55.5533 41.4499C55.4394 41.3423 55.3369 41.2777 55.5192 41.1162C57.1367 39.6846 58.7314 38.2315 60.4742 36.9398C63.117 34.9808 65.885 33.2047 68.915 31.8162C71.6032 30.5783 74.4168 29.6741 77.4013 29.3189C79.1213 29.1144 80.8299 29.3189 82.5272 29.6634C84.4523 30.0616 85.8427 31.3645 87.3919 32.527C89.3514 34.0945 90.527 37.6216 90.527 38.0135C90.527 38.7972 89.3514 42.7162 86.6081 45.8513Z" stroke="url(#paint1_angular_55_644)" stroke-width="0.783784" stroke-linecap="round"/>
<path d="M45.6077 38.2694C45.3863 38.3182 45.2413 38.6115 45.1311 38.7894C45.0793 38.8731 45.1268 38.8304 45.1631 38.7868C45.2778 38.6487 45.3776 38.4867 45.4293 38.3137C45.4757 38.1584 45.4796 37.9955 45.4515 37.8363C45.4361 37.7493 45.3886 37.5038 45.2882 37.4564C45.1812 37.4059 44.9847 37.715 44.9527 37.7599C44.9357 37.7838 44.6698 38.2712 44.6527 38.2676C44.6367 38.2642 44.6433 38.236 44.6412 38.2197C44.6297 38.1303 44.6215 37.9435 44.6181 37.8709C44.6078 37.6455 44.6204 37.4138 44.5995 37.1893C44.5977 37.1695 44.5809 37.2246 44.5746 37.2434C44.5385 37.352 44.5164 37.416 44.4673 37.5256C44.4354 37.5966 44.2901 37.9875 44.1682 37.8034C43.9874 37.5305 43.9348 37.1842 43.7138 36.9328C43.588 36.7898 43.5532 36.8309 43.4085 36.8511C43.3254 36.8627 43.3016 36.8874 43.2523 36.8085C43.2368 36.7839 43.224 36.7015 43.2452 36.7215C43.2818 36.7562 43.2565 36.822 43.2558 36.8724C43.2536 37.0433 43.2413 37.2145 43.2434 37.3854C43.246 37.5973 43.2919 36.9512 43.2256 36.7499C43.1615 36.5551 42.8915 36.7967 42.8129 36.8618C42.7597 36.9059 42.7801 36.639 42.7801 36.5937C42.7801 36.5475 42.7757 36.5922 42.7695 36.6097C42.7453 36.677 42.7127 36.7451 42.6683 36.8014C42.5719 36.9237 42.6098 36.7145 42.6461 36.6621C42.6728 36.6234 42.7484 36.4961 42.6594 36.4961C42.6013 36.4961 42.5541 36.5428 42.528 36.592C42.5106 36.625 42.5518 36.4972 42.5573 36.4722C42.5841 36.3516 42.5084 36.5048 42.4766 36.544C42.4619 36.5622 42.4434 36.6275 42.4544 36.5574C42.4614 36.5122 42.4748 36.4681 42.4917 36.426C42.4925 36.4239 42.435 36.5847 42.4322 36.5778C42.4147 36.5353 42.4639 36.4455 42.4846 36.4083C42.5298 36.3268 42.5235 36.3115 42.4517 36.418C42.4078 36.4832 42.3647 36.5162 42.3647 36.592" stroke="url(#paint2_linear_55_644)" stroke-width="0.783784" stroke-linecap="round"/>
<path d="M45.4158 38.0936C45.501 38.1564 45.5116 38.2755 45.5116 38.3732C45.5116 38.4184 45.4892 38.5093 45.5471 38.5214C45.61 38.5346 45.7093 38.5366 45.7681 38.5072C45.7775 38.5025 45.8227 38.4528 45.8276 38.4557C45.8438 38.4655 45.8227 38.5093 45.8152 38.5179C45.7204 38.6244 45.6565 38.7474 45.5684 38.864C45.5128 38.9376 45.3989 39.2017 45.5755 39.1036C45.6053 39.0871 45.6394 39.0663 45.6394 39.0282C45.6394 39.0018 45.6548 38.9541 45.627 39.0042C45.5669 39.1124 45.6188 39.2647 45.5791 39.3841C45.5715 39.4067 45.5755 39.4811 45.5755 39.4098C45.5755 39.3325 45.5915 39.258 45.5915 39.1799" stroke="url(#paint3_linear_55_644)" stroke-width="0.783784" stroke-linecap="round"/>
<path d="M45.7195 39.0041C45.7515 38.9361 45.7791 38.8929 45.7834 38.8124C45.7869 38.7462 45.8337 38.6486 45.8597 38.5888C45.8748 38.5541 45.8801 38.5404 45.8473 38.5568" stroke="url(#paint4_linear_55_644)" stroke-width="0.783784" stroke-linecap="round"/>
<path d="M13.0517 45.3801C13.1658 45.3782 13.2712 45.3435 13.3769 45.3065C13.5616 45.2419 13.75 45.1922 13.9393 45.1442C14.1745 45.0846 14.4051 45.0051 14.6415 44.9476C14.7547 44.9201 14.862 44.8778 14.973 44.8434C15.11 44.8008 15.2389 44.7322 15.3693 44.673C15.4396 44.6411 15.5263 44.6062 15.5909 44.5625C15.7427 44.4599 15.921 44.4087 16.0684 44.296C16.1333 44.2463 16.2091 44.1987 16.2812 44.1618C16.3271 44.1382 16.4511 44.0491 16.4173 44.0881C16.39 44.1196 16.3551 44.1591 16.3212 44.1836C16.1631 44.2978 16.0131 44.4158 15.8268 44.4813C15.7439 44.5105 15.6673 44.556 15.5853 44.5881C15.3863 44.6659 15.189 44.7488 14.9892 44.8246C14.8888 44.8627 14.7948 44.9034 14.6921 44.9357C14.5808 44.9708 14.4717 45.0063 14.3613 45.0431C14.2446 45.082 14.1203 45.117 14.0005 45.1448C13.8589 45.1778 13.7306 45.254 13.591 45.2928C13.5057 45.3165 13.4181 45.3812 13.332 45.392C13.2516 45.4021 13.1799 45.4251 13.0967 45.4251C13.0655 45.4251 13.0343 45.4251 13.0031 45.4251C12.972 45.4251 13.0639 45.4043 13.0805 45.3964C13.1477 45.3642 13.2114 45.3412 13.2715 45.2953C13.3347 45.2469 13.4019 45.2188 13.4762 45.1904C13.5258 45.1715 13.5842 45.1378 13.6385 45.133C13.7155 45.1261 13.7903 45.0788 13.8663 45.0656C13.9902 45.044 14.1025 44.9792 14.2252 44.9538C14.3365 44.9308 14.4489 44.922 14.5573 44.8883C14.8114 44.8092 15.0716 44.7351 15.32 44.6405C15.4442 44.5932 15.5726 44.5454 15.6895 44.4813C15.8167 44.4116 15.9506 44.3597 16.0803 44.2966C16.1733 44.2513 16.2557 44.1679 16.3486 44.128C16.3674 44.12 16.2992 44.2646 16.29 44.2766C16.2157 44.3733 16.126 44.472 16.0297 44.5469C15.9595 44.6015 15.8731 44.6107 15.8019 44.6549C15.6573 44.7446 15.4851 44.7774 15.3213 44.8184" stroke="url(#paint5_linear_55_644)" stroke-width="0.783784" stroke-linecap="round"/>
<path d="M15.5684 44.7847C15.4614 44.8382 15.3525 44.8879 15.2432 44.9357C15.2218 44.9451 15.1931 44.9517 15.1702 44.9557C15.0493 44.9769 14.9341 45.0135 14.8157 45.0431" stroke="url(#paint6_linear_55_644)" stroke-width="0.783784" stroke-linecap="round"/>
<path d="M14.9169 44.9644C14.8449 45.0217 14.7787 45.0577 14.696 45.0948C14.6065 45.1349 14.5133 45.1431 14.417 45.161C14.2489 45.1921 14.0954 45.2751 13.9239 45.2914C13.7861 45.3045 13.6618 45.3847 13.5238 45.3913C13.421 45.3962 13.3222 45.4452 13.2179 45.4475C13.1543 45.4489 13.0942 45.4699 13.0294 45.4699C12.9358 45.4699 12.8422 45.4699 12.7485 45.4699" stroke="url(#paint7_linear_55_644)" stroke-width="0.783784" stroke-linecap="round"/>
<path d="M44.2947 35.2671C44.725 34.8028 45.1257 34.3241 45.5065 33.8182C45.8001 33.4281 46.0848 33.0227 46.412 32.6591C46.4416 32.6263 46.5149 32.5396 46.5207 32.5834C46.5436 32.7554 46.2825 33.1487 46.2243 33.2568C45.8974 33.864 45.435 34.4738 45.2694 35.1535C45.2596 35.1936 45.232 35.3062 45.2611 35.277C45.4075 35.1306 45.557 34.6791 45.6316 34.5262C45.8691 34.0394 46.1083 33.5515 46.3939 33.0905C46.4665 32.9734 46.6471 32.6609 46.682 32.7941C46.7115 32.9065 46.6429 33.3486 46.6392 33.3704C46.5328 34.0025 46.365 34.6213 46.1486 35.2243C46.0666 35.4528 45.7536 36.1095 45.8753 35.8994C45.9925 35.6969 46.0564 35.3959 46.1189 35.1815C46.2633 34.6871 46.2124 34.8309 46.3412 34.3665C46.425 34.0648 46.4502 33.9772 46.5042 34.3319C46.5127 34.3878 46.5481 34.8927 46.6787 34.9642C46.8608 35.0638 47.072 34.5338 47.1299 34.434C47.1995 34.3142 47.0428 34.6975 47.0113 34.8325C46.9845 34.9477 46.9893 35.0682 46.9685 35.1848C46.9579 35.2449 46.9661 35.5039 46.9784 35.4581C47.0364 35.2427 47.0871 35.0644 47.1694 34.8588C47.2163 34.7416 47.2925 34.657 47.2451 34.8522C47.2021 35.0298 47.1186 35.2002 47.0443 35.3659C46.9642 35.5445 46.7519 36.0917 46.8138 35.906C46.8555 35.7808 46.8716 35.6799 46.9619 35.5783C47.1137 35.4076 47.2033 35.2485 47.2583 35.0284C47.2692 34.9847 47.2841 34.9422 47.2945 34.8983C47.3055 34.8519 47.3118 34.8055 47.3192 34.7584C47.3273 34.7073 47.3952 34.5988 47.3439 34.6053C47.3216 34.6081 47.178 35.0777 47.171 35.1469C47.153 35.3271 47.0212 35.8499 47.0212 35.6689C47.0212 35.458 47.168 35.3135 47.2484 35.1288C47.2652 35.0903 47.2928 35.0372 47.311 35.0004C47.3307 34.9606 47.3473 34.8449 47.3719 34.8819C47.3931 34.9137 47.3299 35.0494 47.3176 35.0827C47.2838 35.1741 47.2196 35.2637 47.199 35.356C47.1617 35.524 47.0589 35.7767 46.9471 35.9142C46.9026 35.969 46.7958 35.9518 46.7347 35.9488C46.4842 35.9364 46.2369 35.8302 46.0811 35.6277C45.5318 34.9142 45.5634 33.9177 45.411 33.0773C45.3838 32.9278 45.3697 32.7688 45.2957 32.6361C45.1239 32.3279 44.9204 32.7403 44.8627 32.832C44.6545 33.1629 44.4995 33.562 44.3869 33.9368C44.2902 34.2585 44.513 33.8208 44.5334 33.7688C44.6515 33.4681 44.7442 33.157 44.8396 32.8485C44.8677 32.7577 44.9697 32.4946 44.8051 32.5175C44.4705 32.5642 44.2619 32.7916 44.1333 33.0839C44.0513 33.2703 44.1809 32.8333 44.2057 32.7711C44.3031 32.5276 43.9646 33.0665 44.1004 32.7085C44.1595 32.5526 44.0292 32.5959 43.9983 32.6888" stroke="url(#paint8_linear_55_644)" stroke-width="0.783784" stroke-linecap="round"/>
<path d="M46.5642 35.047C46.4325 35.2445 46.4052 35.5774 46.3613 35.8079" stroke="url(#paint9_linear_55_644)" stroke-width="0.783784" stroke-linecap="round"/>
<path d="M44.574 45.3217C44.5413 45.3263 44.6709 45.3838 44.6793 45.4006" stroke="url(#paint10_linear_55_644)" stroke-width="0.783784" stroke-linecap="round"/>
<path d="M44.3634 45.4269C44.3721 45.5056 44.6816 45.5527 44.4102 45.5586C44.3239 45.5605 44.2089 45.5794 44.1323 45.5323C44.0211 45.4638 44.2837 45.5059 44.3371 45.5059C44.6272 45.5059 44.9108 45.4533 45.2001 45.4533C45.4081 45.4533 45.6372 45.3709 45.8248 45.2821C46.1596 45.1235 46.4783 44.9625 46.7917 44.7628C46.9631 44.6536 47.1156 44.5228 47.2861 44.4132C47.4142 44.3309 47.5378 44.1845 47.6811 44.1367" stroke="url(#paint11_linear_55_644)" stroke-width="0.783784" stroke-linecap="round"/>
<path d="M47.7094 43.9521C47.7816 44.0163 48.009 43.8521 48.0632 43.7963C48.1458 43.7113 48.2237 43.6322 48.3163 43.5561C48.4607 43.4373 48.5577 43.2824 48.6867 43.149C48.8127 43.0187 48.9599 42.9146 49.0965 42.7951C49.1543 42.7445 49.2596 42.6678 49.2936 42.5998C49.3817 42.4235 49.5921 42.3214 49.7153 42.1735C49.8255 42.0413 49.9676 41.947 50.1022 41.8362C50.1689 41.7812 50.1947 41.6419 50.2342 41.5666C50.3129 41.4167 50.4632 41.3303 50.5798 41.2137C50.6706 41.1229 50.726 41.0405 50.7632 40.9166C50.7876 40.8353 50.8883 40.7472 50.9438 40.6838C51.0215 40.595 51.0763 40.4764 51.1776 40.4106C51.3301 40.3114 51.3943 40.1186 51.5214 39.9916" stroke="url(#paint12_linear_55_644)" stroke-width="0.783784" stroke-linecap="round"/>
<path d="M51.67 39.81C51.6779 39.8726 51.8503 39.6257 51.8681 39.5991C51.9767 39.4362 52.0878 39.275 52.222 39.1334C52.4066 38.9385 52.5896 38.697 52.7097 38.4568" stroke="url(#paint13_linear_55_644)" stroke-width="0.783784" stroke-linecap="round"/>
<mask id="path-16-outside-1_55_644" maskUnits="userSpaceOnUse" x="4" y="10" width="57" height="38" fill="black">
<rect fill="white" x="4" y="10" width="57" height="38"/>
<path d="M11.476 46.4703C9.56357 46.4703 8.02735 45.8903 6.86735 44.7303C5.73871 43.5703 5.17438 42.0811 5.17438 40.2627C5.17438 38.9459 5.56627 37.833 6.35006 36.9238C7.16519 35.9832 8.19979 35.513 9.45384 35.513C10.4884 35.513 11.1782 35.7951 11.523 36.3595C11.8992 36.8924 12.0874 37.4724 12.0874 38.0995C12.0874 38.8205 11.7582 39.4946 11.0998 40.1216C10.4728 40.7486 9.43817 41.1562 7.996 41.3443C7.58844 41.3757 7.32195 41.4854 7.19654 41.6735C7.07114 41.8303 7.00844 42.0497 7.00844 42.3319C7.00844 42.52 7.14952 42.8805 7.43168 43.4135C7.71384 43.9465 8.18411 44.4481 8.84249 44.9184C9.50087 45.3886 10.3944 45.6238 11.523 45.6238C13.2474 45.6238 14.8463 45.1535 16.3198 44.213C17.8247 43.2411 19.2511 41.9714 20.5992 40.4038C21.9474 38.8049 23.2955 37.0178 24.6436 35.0427C26.023 33.0676 27.4495 31.0768 28.923 29.0703C30.8982 26.3741 32.8576 23.8659 34.8014 21.5459C36.7452 19.2259 38.5322 17.2351 40.1625 15.5735C41.8241 13.8805 43.2036 12.6578 44.3009 11.9054L45.0533 12.3757C44.9279 12.6892 44.6771 13.2692 44.3009 14.1157C43.9247 14.9308 43.4857 15.9027 42.9841 17.0313C42.4825 18.16 41.9495 19.3357 41.3852 20.5584C40.8522 21.7811 40.3349 22.9568 39.8333 24.0854C39.363 25.1827 38.9555 26.1232 38.6106 26.907C38.2657 27.6908 38.0463 28.2081 37.9522 28.4589C37.8268 28.7724 37.576 29.3681 37.1998 30.2459C36.8549 31.1238 36.4317 32.1741 35.9301 33.3968C35.4598 34.6195 34.9738 35.9049 34.4722 37.253C34.002 38.5697 33.5787 39.8551 33.2025 41.1092C32.8576 42.3319 32.6068 43.3978 32.4501 44.307C33.2025 43.5546 34.0176 42.52 34.8955 41.2032C35.8047 39.8551 36.7452 38.3816 37.7171 36.7827C38.7203 35.1838 39.7079 33.6005 40.6798 32.033C41.6517 30.4654 42.5765 29.0703 43.4544 27.8476C44.8338 25.9665 45.9938 24.4146 46.9344 23.1919C47.9063 21.9378 48.9252 20.7465 49.9911 19.6178C51.7468 17.7368 53.4241 16.1535 55.023 14.8681C56.6219 13.5513 57.8917 12.6108 58.8322 12.0465L59.6317 12.7989C59.0987 13.5513 58.456 14.5859 57.7036 15.9027C56.9511 17.1881 56.1517 18.6146 55.3052 20.1822C54.4587 21.7184 53.6436 23.2389 52.8598 24.7438C52.076 26.2486 51.402 27.5968 50.8376 28.7881C50.4614 29.5719 50.0068 30.5438 49.4738 31.7038C48.9409 32.8638 48.3922 34.1022 47.8279 35.4189C47.2636 36.7357 46.7306 38.0211 46.229 39.2751C45.7587 40.5292 45.3668 41.6578 45.0533 42.6611C44.7398 43.6643 44.583 44.4324 44.583 44.9654C44.583 45.4043 44.7084 45.6238 44.9592 45.6238C45.5236 45.6238 46.2447 45.2632 47.1225 44.5422C48.0003 43.8211 48.9252 42.9119 49.8971 41.8146C50.9003 40.7173 51.8095 39.6357 52.6247 38.5697L53.189 39.04C52.4052 40.1373 51.5117 41.2659 50.5084 42.4259C49.5052 43.5546 48.502 44.5108 47.4987 45.2946C46.4955 46.0784 45.5863 46.4703 44.7711 46.4703C43.7052 46.4703 42.8587 46.047 42.2317 45.2005C41.6047 44.3227 41.2911 42.7551 41.2911 40.4978C41.2911 39.5886 41.4792 38.5541 41.8555 37.3941C42.263 36.2027 42.7647 34.98 43.3603 33.7259C43.956 32.4719 44.5987 31.2649 45.2884 30.1049C45.9782 28.9135 46.6209 27.8476 47.2165 26.907C47.8436 25.9665 48.3452 25.2454 48.7214 24.7438C49.1917 24.0854 49.7874 23.3173 50.5084 22.4395C51.2609 21.5303 52.0447 20.5897 52.8598 19.6178C53.6749 18.6459 54.4587 17.7211 55.2111 16.8432C55.9636 15.9654 56.6063 15.213 57.1392 14.5859C57.7036 13.9589 58.0798 13.5514 58.2679 13.3632C57.7663 13.7081 56.8414 14.4292 55.4933 15.5265C54.1765 16.5924 52.562 18.1286 50.6495 20.1351C48.7684 22.1416 46.7149 24.7124 44.489 27.8476C42.5765 30.5438 40.9149 33.0832 39.5041 35.4659C38.1247 37.8173 36.8863 39.8238 35.789 41.4854C34.8484 42.8962 33.9706 44.0876 33.1555 45.0595C32.3717 46 31.6663 46.4703 31.0392 46.4703C30.3495 46.4703 29.8479 46.1724 29.5344 45.5768C29.2209 44.9811 29.0171 44.2757 28.923 43.4605C28.829 42.6454 28.782 41.94 28.782 41.3443C28.782 40.6546 28.9701 39.5886 29.3463 38.1465C29.7225 36.673 30.4592 34.7449 31.5565 32.3622C32.6852 29.9795 34.3468 27.0951 36.5414 23.7092C37.1057 22.8313 37.7641 21.8438 38.5165 20.7465C39.269 19.6492 40.0214 18.5832 40.7738 17.5486C41.5263 16.4827 42.1847 15.5578 42.749 14.7741C43.3133 13.9903 43.6895 13.473 43.8776 13.2222C42.843 13.9746 41.6674 15.0562 40.3506 16.467C39.0652 17.8778 37.7171 19.4297 36.3063 21.1227C34.9268 22.7843 33.6101 24.4459 32.356 26.1076C31.102 27.7378 30.0047 29.1643 29.0641 30.387C27.8101 32.08 26.5403 33.867 25.2549 35.7481C24.0009 37.5978 22.6841 39.3378 21.3047 40.9681C19.9565 42.5984 18.4674 43.9308 16.8371 44.9654C15.2382 45.9686 13.4511 46.4703 11.476 46.4703Z"/>
</mask>
<path d="M11.476 46.4703C9.56357 46.4703 8.02735 45.8903 6.86735 44.7303C5.73871 43.5703 5.17438 42.0811 5.17438 40.2627C5.17438 38.9459 5.56627 37.833 6.35006 36.9238C7.16519 35.9832 8.19979 35.513 9.45384 35.513C10.4884 35.513 11.1782 35.7951 11.523 36.3595C11.8992 36.8924 12.0874 37.4724 12.0874 38.0995C12.0874 38.8205 11.7582 39.4946 11.0998 40.1216C10.4728 40.7486 9.43817 41.1562 7.996 41.3443C7.58844 41.3757 7.32195 41.4854 7.19654 41.6735C7.07114 41.8303 7.00844 42.0497 7.00844 42.3319C7.00844 42.52 7.14952 42.8805 7.43168 43.4135C7.71384 43.9465 8.18411 44.4481 8.84249 44.9184C9.50087 45.3886 10.3944 45.6238 11.523 45.6238C13.2474 45.6238 14.8463 45.1535 16.3198 44.213C17.8247 43.2411 19.2511 41.9714 20.5992 40.4038C21.9474 38.8049 23.2955 37.0178 24.6436 35.0427C26.023 33.0676 27.4495 31.0768 28.923 29.0703C30.8982 26.3741 32.8576 23.8659 34.8014 21.5459C36.7452 19.2259 38.5322 17.2351 40.1625 15.5735C41.8241 13.8805 43.2036 12.6578 44.3009 11.9054L45.0533 12.3757C44.9279 12.6892 44.6771 13.2692 44.3009 14.1157C43.9247 14.9308 43.4857 15.9027 42.9841 17.0313C42.4825 18.16 41.9495 19.3357 41.3852 20.5584C40.8522 21.7811 40.3349 22.9568 39.8333 24.0854C39.363 25.1827 38.9555 26.1232 38.6106 26.907C38.2657 27.6908 38.0463 28.2081 37.9522 28.4589C37.8268 28.7724 37.576 29.3681 37.1998 30.2459C36.8549 31.1238 36.4317 32.1741 35.9301 33.3968C35.4598 34.6195 34.9738 35.9049 34.4722 37.253C34.002 38.5697 33.5787 39.8551 33.2025 41.1092C32.8576 42.3319 32.6068 43.3978 32.4501 44.307C33.2025 43.5546 34.0176 42.52 34.8955 41.2032C35.8047 39.8551 36.7452 38.3816 37.7171 36.7827C38.7203 35.1838 39.7079 33.6005 40.6798 32.033C41.6517 30.4654 42.5765 29.0703 43.4544 27.8476C44.8338 25.9665 45.9938 24.4146 46.9344 23.1919C47.9063 21.9378 48.9252 20.7465 49.9911 19.6178C51.7468 17.7368 53.4241 16.1535 55.023 14.8681C56.6219 13.5513 57.8917 12.6108 58.8322 12.0465L59.6317 12.7989C59.0987 13.5513 58.456 14.5859 57.7036 15.9027C56.9511 17.1881 56.1517 18.6146 55.3052 20.1822C54.4587 21.7184 53.6436 23.2389 52.8598 24.7438C52.076 26.2486 51.402 27.5968 50.8376 28.7881C50.4614 29.5719 50.0068 30.5438 49.4738 31.7038C48.9409 32.8638 48.3922 34.1022 47.8279 35.4189C47.2636 36.7357 46.7306 38.0211 46.229 39.2751C45.7587 40.5292 45.3668 41.6578 45.0533 42.6611C44.7398 43.6643 44.583 44.4324 44.583 44.9654C44.583 45.4043 44.7084 45.6238 44.9592 45.6238C45.5236 45.6238 46.2447 45.2632 47.1225 44.5422C48.0003 43.8211 48.9252 42.9119 49.8971 41.8146C50.9003 40.7173 51.8095 39.6357 52.6247 38.5697L53.189 39.04C52.4052 40.1373 51.5117 41.2659 50.5084 42.4259C49.5052 43.5546 48.502 44.5108 47.4987 45.2946C46.4955 46.0784 45.5863 46.4703 44.7711 46.4703C43.7052 46.4703 42.8587 46.047 42.2317 45.2005C41.6047 44.3227 41.2911 42.7551 41.2911 40.4978C41.2911 39.5886 41.4792 38.5541 41.8555 37.3941C42.263 36.2027 42.7647 34.98 43.3603 33.7259C43.956 32.4719 44.5987 31.2649 45.2884 30.1049C45.9782 28.9135 46.6209 27.8476 47.2165 26.907C47.8436 25.9665 48.3452 25.2454 48.7214 24.7438C49.1917 24.0854 49.7874 23.3173 50.5084 22.4395C51.2609 21.5303 52.0447 20.5897 52.8598 19.6178C53.6749 18.6459 54.4587 17.7211 55.2111 16.8432C55.9636 15.9654 56.6063 15.213 57.1392 14.5859C57.7036 13.9589 58.0798 13.5514 58.2679 13.3632C57.7663 13.7081 56.8414 14.4292 55.4933 15.5265C54.1765 16.5924 52.562 18.1286 50.6495 20.1351C48.7684 22.1416 46.7149 24.7124 44.489 27.8476C42.5765 30.5438 40.9149 33.0832 39.5041 35.4659C38.1247 37.8173 36.8863 39.8238 35.789 41.4854C34.8484 42.8962 33.9706 44.0876 33.1555 45.0595C32.3717 46 31.6663 46.4703 31.0392 46.4703C30.3495 46.4703 29.8479 46.1724 29.5344 45.5768C29.2209 44.9811 29.0171 44.2757 28.923 43.4605C28.829 42.6454 28.782 41.94 28.782 41.3443C28.782 40.6546 28.9701 39.5886 29.3463 38.1465C29.7225 36.673 30.4592 34.7449 31.5565 32.3622C32.6852 29.9795 34.3468 27.0951 36.5414 23.7092C37.1057 22.8313 37.7641 21.8438 38.5165 20.7465C39.269 19.6492 40.0214 18.5832 40.7738 17.5486C41.5263 16.4827 42.1847 15.5578 42.749 14.7741C43.3133 13.9903 43.6895 13.473 43.8776 13.2222C42.843 13.9746 41.6674 15.0562 40.3506 16.467C39.0652 17.8778 37.7171 19.4297 36.3063 21.1227C34.9268 22.7843 33.6101 24.4459 32.356 26.1076C31.102 27.7378 30.0047 29.1643 29.0641 30.387C27.8101 32.08 26.5403 33.867 25.2549 35.7481C24.0009 37.5978 22.6841 39.3378 21.3047 40.9681C19.9565 42.5984 18.4674 43.9308 16.8371 44.9654C15.2382 45.9686 13.4511 46.4703 11.476 46.4703Z" fill="url(#paint14_linear_55_644)"/>
<path d="M6.86735 44.7303L6.30554 45.2769L6.31314 45.2845L6.86735 44.7303ZM6.35006 36.9238L5.75776 36.4105L5.75641 36.412L6.35006 36.9238ZM11.523 36.3595L10.8542 36.7682L10.8678 36.7903L10.8827 36.8115L11.523 36.3595ZM11.0998 40.1216L10.5592 39.5541L10.5523 39.5606L10.5456 39.5674L11.0998 40.1216ZM7.996 41.3443L8.05612 42.1258L8.0768 42.1242L8.09738 42.1215L7.996 41.3443ZM7.19654 41.6735L7.80858 42.1631L7.82982 42.1366L7.84869 42.1083L7.19654 41.6735ZM7.43168 43.4135L8.12438 43.0468L7.43168 43.4135ZM8.84249 44.9184L8.38692 45.5562L8.84249 44.9184ZM16.3198 44.213L16.7415 44.8736L16.745 44.8714L16.3198 44.213ZM20.5992 40.4038L21.1935 40.9149L21.1985 40.909L20.5992 40.4038ZM24.6436 35.0427L24.001 34.5939L23.9962 34.6008L24.6436 35.0427ZM28.923 29.0703L29.5548 29.5342L29.5553 29.5335L28.923 29.0703ZM34.8014 21.5459L35.4022 22.0493L34.8014 21.5459ZM40.1625 15.5735L39.6031 15.0245L39.603 15.0246L40.1625 15.5735ZM44.3009 11.9054L44.7163 11.2408L44.281 10.9687L43.8576 11.259L44.3009 11.9054ZM45.0533 12.3757L45.781 12.6668L46.0244 12.0583L45.4687 11.711L45.0533 12.3757ZM44.3009 14.1157L45.0126 14.4442L45.0171 14.434L44.3009 14.1157ZM42.9841 17.0313L42.2679 16.713L42.2679 16.713L42.9841 17.0313ZM41.3852 20.5584L40.6735 20.2299L40.67 20.2375L40.6667 20.2452L41.3852 20.5584ZM39.8333 24.0854L39.117 23.7671L39.1129 23.7767L39.8333 24.0854ZM38.6106 26.907L37.8932 26.5914L38.6106 26.907ZM37.9522 28.4589L38.6799 28.75L38.6831 28.7421L38.6861 28.7341L37.9522 28.4589ZM37.1998 30.2459L36.4794 29.9372L36.4747 29.9482L36.4703 29.9594L37.1998 30.2459ZM35.9301 33.3968L35.2049 33.0993L35.2016 33.1073L35.1985 33.1154L35.9301 33.3968ZM34.4722 37.253L33.7376 36.9796L33.7341 36.9894L34.4722 37.253ZM33.2025 41.1092L32.4517 40.8839L32.4481 40.8964L33.2025 41.1092ZM32.4501 44.307L31.6777 44.1739L31.2581 46.6074L33.0043 44.8612L32.4501 44.307ZM34.8955 41.2032L34.2456 40.765L34.2433 40.7685L34.8955 41.2032ZM37.7171 36.7827L37.0531 36.3661L37.0473 36.3756L37.7171 36.7827ZM40.6798 32.033L40.0136 31.62L40.6798 32.033ZM43.4544 27.8476L42.8223 27.384L42.8177 27.3905L43.4544 27.8476ZM46.9344 23.1919L46.3149 22.7118L46.3131 22.714L46.9344 23.1919ZM49.9911 19.6178L50.561 20.156L50.5641 20.1526L49.9911 19.6178ZM55.023 14.8681L55.5141 15.479L55.5213 15.4731L55.023 14.8681ZM58.8322 12.0465L59.3694 11.4757L58.9375 11.0693L58.429 11.3744L58.8322 12.0465ZM59.6317 12.7989L60.2713 13.252L60.6654 12.6955L60.1689 12.2282L59.6317 12.7989ZM57.7036 15.9027L58.38 16.2987L58.3841 16.2916L57.7036 15.9027ZM55.3052 20.1822L55.9917 20.5604L55.9949 20.5546L55.3052 20.1822ZM52.8598 24.7438L52.1646 24.3817V24.3817L52.8598 24.7438ZM50.8376 28.7881L51.5442 29.1273L51.546 29.1236L50.8376 28.7881ZM49.4738 31.7038L48.7616 31.3766V31.3766L49.4738 31.7038ZM47.8279 35.4189L48.5483 35.7277L47.8279 35.4189ZM46.229 39.2751L45.5013 38.984L45.4981 38.992L45.4951 38.9999L46.229 39.2751ZM45.0533 42.6611L45.8014 42.8949L45.0533 42.6611ZM47.1225 44.5422L47.62 45.1478L47.1225 44.5422ZM49.8971 41.8146L49.3186 41.2857L49.3104 41.2949L49.8971 41.8146ZM52.6247 38.5697L53.1264 37.9676L52.4985 37.4444L52.002 38.0936L52.6247 38.5697ZM53.189 39.04L53.8268 39.4956L54.2496 38.9036L53.6907 38.4379L53.189 39.04ZM50.5084 42.4259L51.0943 42.9467L51.1013 42.9387L50.5084 42.4259ZM47.4987 45.2946L47.9812 45.9122L47.4987 45.2946ZM42.2317 45.2005L41.5938 45.6562L41.6019 45.6671L42.2317 45.2005ZM41.8555 37.3941L41.1138 37.1403L41.1099 37.1523L41.8555 37.3941ZM43.3603 33.7259L44.0683 34.0622L43.3603 33.7259ZM45.2884 30.1049L45.9622 30.5055L45.9667 30.4976L45.2884 30.1049ZM47.2165 26.907L46.5644 26.4723L46.5593 26.4799L46.5544 26.4877L47.2165 26.907ZM48.7214 24.7438L49.3484 25.2141L49.3539 25.2068L49.3592 25.1993L48.7214 24.7438ZM50.5084 22.4395L49.9046 21.9397L49.9028 21.942L50.5084 22.4395ZM52.8598 19.6178L52.2593 19.1142L52.8598 19.6178ZM57.1393 14.5859L56.5567 14.0616L56.5492 14.0699L56.5421 14.0783L57.1393 14.5859ZM58.2679 13.3632L58.8221 13.9175L57.8239 12.7174L58.2679 13.3632ZM55.4933 15.5265L55.9865 16.1357L55.9881 16.1344L55.4933 15.5265ZM50.6495 20.1351L50.0821 19.5944L50.0777 19.5991L50.6495 20.1351ZM44.489 27.8476L43.8499 27.3938L43.8497 27.3941L44.489 27.8476ZM39.5041 35.4659L38.8297 35.0666L38.8281 35.0693L39.5041 35.4659ZM35.789 41.4854L36.4411 41.9202L36.443 41.9173L35.789 41.4854ZM33.1555 45.0595L32.5549 44.5558L32.5533 44.5577L33.1555 45.0595ZM29.5344 45.5768L28.8408 45.9418V45.9418L29.5344 45.5768ZM28.923 43.4605L29.7017 43.3707L28.923 43.4605ZM29.3463 38.1465L30.1047 38.3443L30.1057 38.3404L29.3463 38.1465ZM31.5565 32.3622L30.8482 32.0266L30.8446 32.0343L31.5565 32.3622ZM36.5414 23.7092L37.1991 24.1355L37.2007 24.133L36.5414 23.7092ZM38.5165 20.7465L39.163 21.1897V21.1897L38.5165 20.7465ZM40.7738 17.5486L41.4078 18.0097L41.4142 18.0006L40.7738 17.5486ZM43.8776 13.2222L44.5047 13.6924L43.4166 12.5883L43.8776 13.2222ZM40.3506 16.467L39.7776 15.9322L39.7712 15.9392L40.3506 16.467ZM36.3063 21.1227L35.7042 20.6209L35.7032 20.6221L36.3063 21.1227ZM32.356 26.1076L32.9773 26.5855L32.9816 26.5797L32.356 26.1076ZM29.0641 30.387L28.4429 29.9091L28.4385 29.9148L28.4343 29.9205L29.0641 30.387ZM25.2549 35.7481L24.6078 35.3059L24.6062 35.3083L25.2549 35.7481ZM21.3047 40.9681L20.7063 40.4618L20.7006 40.4686L21.3047 40.9681ZM16.8371 44.9654L17.2537 45.6293L17.2571 45.6272L16.8371 44.9654ZM11.476 45.6865C9.73423 45.6865 8.41021 45.1647 7.42157 44.1761L6.31314 45.2845C7.6445 46.6159 9.39291 47.2541 11.476 47.2541V45.6865ZM7.42911 44.1837C6.46087 43.1886 5.95817 41.9043 5.95817 40.2627H4.3906C4.3906 42.2578 5.01654 43.952 6.3056 45.2768L7.42911 44.1837ZM5.95817 40.2627C5.95817 39.1142 6.29479 38.1883 6.9437 37.4355L5.75641 36.412C4.83775 37.4777 4.3906 38.7777 4.3906 40.2627H5.95817ZM6.94235 37.4371C7.60732 36.6698 8.42511 36.2968 9.45384 36.2968V34.7292C7.97446 34.7292 6.72306 35.2966 5.75776 36.4105L6.94235 37.4371ZM9.45384 36.2968C10.3783 36.2968 10.7199 36.5483 10.8542 36.7682L12.1918 35.9508C11.6364 35.0419 10.5986 34.7292 9.45384 34.7292V36.2968ZM10.8827 36.8115C11.1696 37.2179 11.3036 37.6411 11.3036 38.0995H12.8711C12.8711 37.3037 12.6289 36.567 12.1634 35.9075L10.8827 36.8115ZM11.3036 38.0995C11.3036 38.5531 11.1053 39.034 10.5592 39.5541L11.6403 40.6892C12.411 39.9552 12.8711 39.088 12.8711 38.0995H11.3036ZM10.5456 39.5674C10.0972 40.0158 9.26623 40.3882 7.89463 40.5671L8.09738 42.1215C9.6101 41.9242 10.8484 41.4815 11.654 40.6758L10.5456 39.5674ZM7.93589 40.5628C7.47197 40.5985 6.88003 40.7353 6.5444 41.2387L7.84869 42.1083C7.80397 42.1754 7.76031 42.1866 7.78889 42.1749C7.8217 42.1614 7.90289 42.1376 8.05612 42.1258L7.93589 40.5628ZM6.58451 41.1839C6.31052 41.5264 6.22465 41.9426 6.22465 42.3319H7.79222C7.79222 42.1568 7.83175 42.1342 7.80858 42.1631L6.58451 41.1839ZM6.22465 42.3319C6.22465 42.581 6.30781 42.8334 6.38435 43.029C6.46997 43.2478 6.59072 43.5002 6.73898 43.7802L8.12438 43.0468C7.99047 42.7939 7.89961 42.5995 7.84414 42.4578C7.81655 42.3873 7.80145 42.3392 7.79398 42.3101C7.78537 42.2766 7.79222 42.2889 7.79222 42.3319H6.22465ZM6.73898 43.7802C7.09411 44.451 7.6618 45.0382 8.38692 45.5562L9.29805 44.2806C8.70642 43.858 8.33358 43.4419 8.12438 43.0468L6.73898 43.7802ZM8.38692 45.5562C9.22148 46.1523 10.2937 46.4076 11.523 46.4076V44.84C10.4951 44.84 9.78026 44.625 9.29805 44.2806L8.38692 45.5562ZM11.523 46.4076C13.399 46.4076 15.1439 45.8934 16.7415 44.8736L15.8981 43.5523C14.5487 44.4136 13.0958 44.84 11.523 44.84V46.4076ZM16.745 44.8714C18.3218 43.853 19.8038 42.5308 21.1935 40.9148L20.005 39.8927C18.6985 41.4119 17.3275 42.6291 15.8946 43.5546L16.745 44.8714ZM21.1985 40.909C22.5659 39.2872 23.9299 37.4786 25.2909 35.4846L23.9962 34.6008C22.661 36.5571 21.3288 38.3226 20 39.8986L21.1985 40.909ZM25.2862 35.4915C26.6619 33.5216 28.0848 31.5358 29.5548 29.5342L28.2913 28.6063C26.8142 30.6177 25.3841 32.6135 24.001 34.5939L25.2862 35.4915ZM29.5553 29.5335C31.5214 26.8496 33.4704 24.355 35.4022 22.0493L34.2006 21.0426C32.2449 23.3769 30.2749 25.8985 28.2908 28.6071L29.5553 29.5335ZM35.4022 22.0493C37.3365 19.7406 39.1096 17.7658 40.722 16.1224L39.603 15.0246C37.9549 16.7044 36.1539 18.7112 34.2006 21.0426L35.4022 22.0493ZM40.7219 16.1225C42.3709 14.4423 43.7089 13.2617 44.7441 12.5518L43.8576 11.259C42.6982 12.054 41.2773 13.3187 39.6031 15.0245L40.7219 16.1225ZM43.8855 12.5701L44.6379 13.0403L45.4687 11.711L44.7163 11.2408L43.8855 12.5701ZM44.3256 12.0846C44.2064 12.3824 43.9614 12.9495 43.5846 13.7973L45.0171 14.434C45.3927 13.5888 45.6493 12.996 45.781 12.6668L44.3256 12.0846ZM43.5892 13.7872C43.211 14.6067 42.7705 15.5821 42.2679 16.713L43.7003 17.3497C44.201 16.2233 44.6383 15.2549 45.0125 14.4441L43.5892 13.7872ZM42.2679 16.713C41.7679 17.838 41.2365 19.0103 40.6735 20.2299L42.0968 20.8868C42.6626 19.6611 43.1971 18.482 43.7003 17.3497L42.2679 16.713ZM40.6667 20.2452C40.1344 21.4663 39.6179 22.6403 39.1171 23.7671L40.5495 24.4037C41.052 23.2732 41.57 22.0958 42.1037 20.8716L40.6667 20.2452ZM39.1129 23.7767C38.6433 24.8725 38.2367 25.8106 37.8932 26.5914L39.328 27.2227C39.6742 26.4359 40.0828 25.4929 40.5537 24.3942L39.1129 23.7767ZM37.8932 26.5914C37.5502 27.3709 37.3215 27.9087 37.2183 28.1837L38.6861 28.7341C38.7711 28.5075 38.9813 28.0108 39.328 27.2227L37.8932 26.5914ZM37.2245 28.1678C37.1032 28.4711 36.8561 29.0583 36.4794 29.9372L37.9202 30.5547C38.296 29.6779 38.5505 29.0737 38.6799 28.75L37.2245 28.1678ZM36.4703 29.9594C36.1273 30.8324 35.7056 31.8789 35.2049 33.0993L36.6552 33.6942C37.1578 32.4692 37.5826 31.4151 37.9293 30.5325L36.4703 29.9594ZM35.1985 33.1154C34.7271 34.341 34.2402 35.6291 33.7376 36.9796L35.2068 37.5263C35.7075 36.1806 36.1925 34.8979 36.6616 33.6781L35.1985 33.1154ZM33.7341 36.9894C33.2596 38.318 32.8321 39.6162 32.4518 40.884L33.9532 41.3344C34.3253 40.0941 34.7443 38.8215 35.2103 37.5166L33.7341 36.9894ZM32.4481 40.8964C32.0984 42.1363 31.8404 43.23 31.6777 44.1739L33.2224 44.4402C33.3732 43.5657 33.6168 42.5274 33.9568 41.322L32.4481 40.8964ZM33.0043 44.8612C33.8062 44.0593 34.6535 42.9791 35.5476 41.638L34.2433 40.7685C33.3817 42.0609 32.5988 43.0499 31.8958 43.7528L33.0043 44.8612ZM35.5453 41.6415C36.4623 40.2818 37.4095 38.7977 38.3868 37.1898L37.0473 36.3756C36.0809 37.9655 35.147 39.4285 34.2457 40.765L35.5453 41.6415ZM38.381 37.1993C39.385 35.5992 40.3733 34.0148 41.3459 32.446L40.0136 31.62C39.0425 33.1863 38.0557 34.7684 37.0532 36.3661L38.381 37.1993ZM41.3459 32.446C42.3105 30.8902 43.2255 29.5103 44.0911 28.3047L42.8177 27.3905C41.9276 28.6303 40.9929 30.0406 40.0136 31.62L41.3459 32.446ZM44.0864 28.3111C45.4639 26.4326 46.6201 24.886 47.5556 23.6698L46.3131 22.714C45.3676 23.9432 44.2037 25.5003 42.8223 27.3841L44.0864 28.3111ZM47.5539 23.672C48.5105 22.4377 49.5129 21.2657 50.561 20.156L49.4213 19.0797C48.3375 20.2272 47.302 21.438 46.3149 22.7118L47.5539 23.672ZM50.5641 20.1526C52.3004 18.2923 53.9505 16.736 55.5141 15.479L54.5319 14.2572C52.8977 15.571 51.1932 17.1812 49.4182 19.083L50.5641 20.1526ZM55.5213 15.4731C57.1116 14.1635 58.3456 13.2525 59.2355 12.7186L58.429 11.3744C57.4377 11.9691 56.1323 12.9392 54.5248 14.2631L55.5213 15.4731ZM58.295 12.6172L59.0945 13.3697L60.1689 12.2282L59.3694 11.4757L58.295 12.6172ZM58.9921 12.3459C58.4382 13.1279 57.7812 14.1871 57.0231 15.5138L58.3841 16.2916C59.1308 14.9848 59.7593 13.9748 60.2713 13.252L58.9921 12.3459ZM57.0272 15.5068C56.2694 16.8013 55.4655 18.2357 54.6155 19.8097L55.9949 20.5546C56.8379 18.9935 57.6329 17.575 58.38 16.2987L57.0272 15.5068ZM54.6187 19.8039C53.7694 21.3453 52.9513 22.8712 52.1646 24.3817L53.5549 25.1058C54.3358 23.6066 55.148 22.0914 55.9917 20.5604L54.6187 19.8039ZM52.1646 24.3817C51.3775 25.893 50.6988 27.2502 50.1293 28.4526L51.546 29.1236C52.1051 27.9433 52.7745 26.6043 53.5549 25.1058L52.1646 24.3817ZM50.131 28.4489C49.7523 29.238 49.2957 30.2142 48.7616 31.3766L50.186 32.031C50.7179 30.8733 51.1706 29.9057 51.5442 29.1273L50.131 28.4489ZM48.7616 31.3766C48.2255 32.5434 47.6742 33.788 47.1075 35.1102L48.5483 35.7277C49.1103 34.4164 49.6562 33.1842 50.1861 32.031L48.7616 31.3766ZM47.1075 35.1102C46.5408 36.4324 46.0054 37.7237 45.5013 38.984L46.9567 39.5662C47.4558 38.3184 47.9863 37.0389 48.5483 35.7277L47.1075 35.1102ZM45.4951 38.9999C45.021 40.2642 44.6241 41.407 44.3052 42.4273L45.8014 42.8949C46.1096 41.9087 46.4964 40.7942 46.9629 39.5503L45.4951 38.9999ZM44.3052 42.4273C43.9863 43.4477 43.7992 44.3091 43.7992 44.9654H45.3668C45.3668 44.5558 45.4933 43.881 45.8014 42.8949L44.3052 42.4273ZM43.7992 44.9654C43.7992 45.2338 43.8331 45.562 43.9966 45.8481C44.1975 46.1996 44.5499 46.4076 44.9593 46.4076V44.84C45.014 44.84 45.0995 44.8531 45.1896 44.9056C45.2793 44.958 45.3318 45.0251 45.3576 45.0703C45.3807 45.1107 45.3809 45.13 45.3765 45.1068C45.3723 45.085 45.3668 45.0401 45.3668 44.9654H43.7992ZM44.9593 46.4076C45.8155 46.4076 46.7216 45.8857 47.62 45.1478L46.625 43.9365C45.7677 44.6407 45.2317 44.84 44.9593 44.84V46.4076ZM47.62 45.1478C48.5374 44.3942 49.4919 43.4541 50.4838 42.3343L49.3104 41.2949C48.3585 42.3696 47.4632 43.248 46.625 43.9365L47.62 45.1478ZM50.4755 42.3435C51.4926 41.231 52.4168 40.1318 53.2473 39.0458L52.002 38.0936C51.2022 39.1395 50.308 40.2036 49.3186 41.2857L50.4755 42.3435ZM52.1229 39.1719L52.6872 39.6421L53.6907 38.4379L53.1264 37.9676L52.1229 39.1719ZM52.5512 38.5844C51.7833 39.6595 50.9051 40.7691 49.9156 41.9132L51.1013 42.9387C52.1183 41.7628 53.0271 40.6151 53.8268 39.4956L52.5512 38.5844ZM49.9226 41.9052C48.9452 43.0048 47.976 43.9271 47.0162 44.677L47.9812 45.9122C49.0279 45.0945 50.0652 44.1044 51.0942 42.9467L49.9226 41.9052ZM47.0162 44.677C46.078 45.4099 45.3373 45.6865 44.7711 45.6865V47.2541C45.8353 47.2541 46.913 46.7468 47.9812 45.9122L47.0162 44.677ZM44.7711 45.6865C43.95 45.6865 43.3386 45.3781 42.8615 44.734L41.6019 45.6671C42.3788 46.7159 43.4603 47.2541 44.7711 47.2541V45.6865ZM42.8695 44.745C42.3965 44.0828 42.0749 42.737 42.0749 40.4978H40.5074C40.5074 42.7733 40.8128 44.5626 41.5939 45.6561L42.8695 44.745ZM42.0749 40.4978C42.0749 39.6934 42.2421 38.7426 42.601 37.6359L41.1099 37.1523C40.7164 38.3655 40.5074 39.4839 40.5074 40.4978H42.0749ZM42.5971 37.6478C42.9941 36.4872 43.4841 35.2921 44.0683 34.0622L42.6524 33.3897C42.0452 34.6679 41.532 35.9182 41.1139 37.1404L42.5971 37.6478ZM44.0683 34.0622C44.6539 32.8295 45.2852 31.644 45.9621 30.5054L44.6147 29.7043C43.9123 30.8858 43.2582 32.1143 42.6524 33.3897L44.0683 34.0622ZM45.9667 30.4976C46.6524 29.3132 47.2897 28.2564 47.8787 27.3264L46.5544 26.4877C45.952 27.4387 45.3039 28.5138 44.6101 29.7122L45.9667 30.4976ZM47.8687 27.3418C48.4929 26.4054 48.9852 25.6984 49.3484 25.2141L48.0944 24.2735C47.7052 24.7924 47.1942 25.5276 46.5644 26.4723L47.8687 27.3418ZM49.3592 25.1993C49.8161 24.5597 50.4001 23.8061 51.1141 22.937L49.9028 21.942C49.1746 22.8284 48.5673 23.6111 48.0836 24.2882L49.3592 25.1993ZM51.1123 22.9392C51.8635 22.0314 52.6462 21.0922 53.4603 20.1215L52.2593 19.1142C51.4431 20.0873 50.6582 21.0291 49.9046 21.9397L51.1123 22.9392ZM53.4603 20.1215C54.2738 19.1516 55.0558 18.2288 55.8062 17.3533L54.6161 16.3332C53.8616 17.2133 53.076 18.1403 52.2593 19.1142L53.4603 20.1215ZM55.8062 17.3533C56.5591 16.475 57.2026 15.7217 57.7364 15.0936L56.5421 14.0783C56.01 14.7043 55.368 15.4558 54.6161 16.3332L55.8062 17.3533ZM57.7218 15.1103C58.289 14.4801 58.6512 14.0884 58.8221 13.9175L57.7137 12.809C57.5084 13.0143 57.1181 13.4378 56.5567 14.0616L57.7218 15.1103ZM57.8239 12.7174C57.2921 13.083 56.3434 13.8239 54.9985 14.9186L55.9881 16.1344C57.3394 15.0345 58.2405 14.3332 58.7119 14.0091L57.8239 12.7174ZM55.0002 14.9173C53.6461 16.0135 52.0052 17.5767 50.0822 19.5944L51.2169 20.6759C53.1187 18.6806 54.707 17.1714 55.9865 16.1357L55.0002 14.9173ZM50.0777 19.5991C48.165 21.6393 46.089 24.2402 43.8499 27.3938L45.1281 28.3013C47.3409 25.1847 49.3719 22.6439 51.2213 20.6712L50.0777 19.5991ZM43.8497 27.3941C41.9271 30.1046 40.2533 32.6623 38.8297 35.0666L40.1785 35.8653C41.5765 33.5042 43.226 30.9829 45.1283 28.301L43.8497 27.3941ZM38.8281 35.0693C37.4533 37.4128 36.2224 39.4068 35.1349 41.0535L36.443 41.9173C37.5502 40.2408 38.796 38.2218 40.1801 35.8626L38.8281 35.0693ZM35.1368 41.0506C34.2073 42.445 33.3467 43.6118 32.5549 44.5558L33.756 45.5631C34.5945 44.5633 35.4896 43.3475 36.4411 41.9202L35.1368 41.0506ZM32.5533 44.5577C31.7904 45.4732 31.2889 45.6865 31.0392 45.6865V47.2541C32.0437 47.2541 32.953 46.5268 33.7576 45.5612L32.5533 44.5577ZM31.0392 45.6865C30.8093 45.6865 30.6551 45.6378 30.5459 45.573C30.4377 45.5087 30.3279 45.4015 30.228 45.2117L28.8408 45.9418C29.0544 46.3476 29.3522 46.6872 29.7456 46.9208C30.138 47.1538 30.5794 47.2541 31.0392 47.2541V45.6865ZM30.228 45.2117C29.9682 44.7182 29.787 44.1101 29.7017 43.3707L28.1444 43.5504C28.2472 44.4413 28.4735 45.2439 28.8408 45.9418L30.228 45.2117ZM29.7017 43.3707C29.6099 42.5751 29.5657 41.9012 29.5657 41.3443H27.9982C27.9982 41.9788 28.0481 42.7157 28.1444 43.5504L29.7017 43.3707ZM29.5657 41.3443C29.5657 40.7618 29.7305 39.7787 30.1047 38.3443L28.5879 37.9486C28.2096 39.3986 27.9982 40.5473 27.9982 41.3443H29.5657ZM30.1057 38.3404C30.4647 36.9342 31.179 35.0557 32.2685 32.69L30.8446 32.0343C29.7395 34.434 28.9803 36.4117 28.5869 37.9526L30.1057 38.3404ZM32.2649 32.6977C33.3731 30.3581 35.0146 27.5058 37.1991 24.1355L35.8837 23.2829C33.679 26.6844 31.9973 29.6008 30.8482 32.0266L32.2649 32.6977ZM37.2007 24.133C37.7599 23.2632 38.4138 22.2823 39.163 21.1897L37.8701 20.3032C37.1144 21.4053 36.4516 22.3995 35.8821 23.2854L37.2007 24.133ZM39.163 21.1897C39.9115 20.0982 40.6597 19.0382 41.4077 18.0096L40.14 17.0876C39.3831 18.1283 38.6265 19.2002 37.8701 20.3032L39.163 21.1897ZM41.4142 18.0006C42.1656 16.9361 42.8225 16.0133 43.385 15.232L42.1129 14.3161C41.5468 15.1024 40.8869 16.0293 40.1335 17.0967L41.4142 18.0006ZM43.385 15.232C43.9502 14.4471 44.3219 13.9361 44.5047 13.6924L43.2506 12.7519C43.0571 13.0099 42.6764 13.5335 42.1129 14.3161L43.385 15.232ZM43.4166 12.5883C42.3268 13.3809 41.1131 14.5013 39.7776 15.9322L40.9236 17.0018C42.2216 15.6111 43.3593 14.5683 44.3386 13.856L43.4166 12.5883ZM39.7712 15.9392C38.477 17.3597 37.1213 18.9204 35.7042 20.6209L36.9084 21.6245C38.3129 19.939 39.6534 18.396 40.93 16.9949L39.7712 15.9392ZM35.7032 20.6221C34.3163 22.2927 32.992 23.9638 31.7304 25.6354L32.9816 26.5797C34.2281 24.9281 35.5373 23.276 36.9093 21.6233L35.7032 20.6221ZM31.7348 25.6297C30.4807 27.26 29.3834 28.6864 28.4429 29.9091L29.6854 30.8649C30.6259 29.6422 31.7232 28.2157 32.9772 26.5854L31.7348 25.6297ZM28.4343 29.9205C27.1739 31.6221 25.8984 33.4173 24.6078 35.3059L25.9021 36.1903C27.1823 34.3168 28.4463 32.5379 29.6939 30.8536L28.4343 29.9205ZM24.6062 35.3083C23.367 37.136 22.067 38.8538 20.7063 40.4618L21.903 41.4744C23.3012 39.8219 24.6347 38.0596 25.9037 36.1879L24.6062 35.3083ZM20.7006 40.4686C19.4 42.0415 17.9716 43.3171 16.4171 44.3036L17.2571 45.6272C18.9631 44.5445 20.5131 43.1553 21.9087 41.4676L20.7006 40.4686ZM16.4205 44.3015C14.9524 45.2227 13.3109 45.6865 11.476 45.6865V47.2541C13.5913 47.2541 15.524 46.7146 17.2537 45.6293L16.4205 44.3015Z" fill="url(#paint15_linear_55_644)" mask="url(#path-16-outside-1_55_644)"/>
<defs>
<radialGradient id="paint0_angular_55_644" cx="0" cy="0" r="1" gradientUnits="userSpaceOnUse" gradientTransform="translate(53.8948 40.4351) rotate(90) scale(13.0027 40.5705)">
<stop offset="0.465" stop-color="#0072EB" stop-opacity="0"/>
<stop offset="0.57" stop-color="#0072EB"/>
</radialGradient>
<radialGradient id="paint1_angular_55_644" cx="0" cy="0" r="1" gradientUnits="userSpaceOnUse" gradientTransform="translate(53.8948 40.4351) rotate(90) scale(13.0027 40.5705)">
<stop offset="0.465" stop-color="#0072EB" stop-opacity="0"/>
<stop offset="0.57" stop-color="#0072EB"/>
</radialGradient>
<linearGradient id="paint2_linear_55_644" x1="43.9862" y1="36.3427" x2="43.9862" y2="38.8373" gradientUnits="userSpaceOnUse">
<stop offset="0.09" stop-color="white" stop-opacity="0"/>
<stop offset="0.705" stop-color="white"/>
</linearGradient>
<linearGradient id="paint3_linear_55_644" x1="45.6247" y1="38.0936" x2="45.6247" y2="39.44" gradientUnits="userSpaceOnUse">
<stop offset="0.09" stop-color="white" stop-opacity="0"/>
<stop offset="0.705" stop-color="white"/>
</linearGradient>
<linearGradient id="paint4_linear_55_644" x1="45.7955" y1="38.5499" x2="45.7955" y2="39.0041" gradientUnits="userSpaceOnUse">
<stop offset="0.09" stop-color="white" stop-opacity="0"/>
<stop offset="0.705" stop-color="white"/>
</linearGradient>
<linearGradient id="paint5_linear_55_644" x1="14.7099" y1="44.0784" x2="14.7099" y2="45.4251" gradientUnits="userSpaceOnUse">
<stop offset="0.09" stop-color="white" stop-opacity="0"/>
<stop offset="0.705" stop-color="white"/>
</linearGradient>
<linearGradient id="paint6_linear_55_644" x1="15.1921" y1="44.7847" x2="15.1921" y2="45.0431" gradientUnits="userSpaceOnUse">
<stop offset="0.09" stop-color="white" stop-opacity="0"/>
<stop offset="0.705" stop-color="white"/>
</linearGradient>
<linearGradient id="paint7_linear_55_644" x1="13.8327" y1="44.9644" x2="13.8327" y2="45.4699" gradientUnits="userSpaceOnUse">
<stop offset="0.09" stop-color="white" stop-opacity="0"/>
<stop offset="0.705" stop-color="white"/>
</linearGradient>
<linearGradient id="paint8_linear_55_644" x1="45.6873" y1="32.5161" x2="45.6873" y2="35.9537" gradientUnits="userSpaceOnUse">
<stop offset="0.09" stop-color="white" stop-opacity="0"/>
<stop offset="0.705" stop-color="white"/>
</linearGradient>
<linearGradient id="paint9_linear_55_644" x1="46.4628" y1="35.047" x2="46.4628" y2="35.8079" gradientUnits="userSpaceOnUse">
<stop offset="0.09" stop-color="white" stop-opacity="0"/>
<stop offset="0.705" stop-color="white"/>
</linearGradient>
<linearGradient id="paint10_linear_55_644" x1="44.624" y1="45.3217" x2="44.624" y2="45.4006" gradientUnits="userSpaceOnUse">
<stop offset="0.09" stop-color="white" stop-opacity="0"/>
<stop offset="0.705" stop-color="white"/>
</linearGradient>
<linearGradient id="paint11_linear_55_644" x1="45.8931" y1="44.1367" x2="45.8931" y2="45.5639" gradientUnits="userSpaceOnUse">
<stop offset="0.09" stop-color="white" stop-opacity="0"/>
<stop offset="0.705" stop-color="white"/>
</linearGradient>
<linearGradient id="paint12_linear_55_644" x1="49.6154" y1="39.9916" x2="49.6154" y2="43.9668" gradientUnits="userSpaceOnUse">
<stop offset="0.09" stop-color="white" stop-opacity="0"/>
<stop offset="0.705" stop-color="white"/>
</linearGradient>
<linearGradient id="paint13_linear_55_644" x1="52.1899" y1="38.4568" x2="52.1899" y2="39.8201" gradientUnits="userSpaceOnUse">
<stop offset="0.09" stop-color="white" stop-opacity="0"/>
<stop offset="0.705" stop-color="white"/>
</linearGradient>
<linearGradient id="paint14_linear_55_644" x1="32.527" y1="0" x2="32.527" y2="55.6487" gradientUnits="userSpaceOnUse">
<stop offset="0.09" stop-color="white" stop-opacity="0"/>
<stop offset="0.705" stop-color="white"/>
</linearGradient>
<linearGradient id="paint15_linear_55_644" x1="32.527" y1="0" x2="32.527" y2="55.6487" gradientUnits="userSpaceOnUse">
<stop offset="0.245" stop-opacity="0"/>
<stop offset="0.655"/>
</linearGradient>
</defs>
</svg>
