<svg width="111" height="111" viewBox="0 0 111 111" fill="none" xmlns="http://www.w3.org/2000/svg">
<path d="M11.802 6.4591C11.715 6.45777 11.6279 6.45864 11.541 6.4617C10.5246 6.49574 9.82523 6.83763 9.3485 7.31437C8.71285 7.95001 8.31655 8.98132 8.57063 10.6324C8.82515 12.2836 9.80269 14.4815 11.8816 16.9068C26.6008 34.0792 40.7014 50.6317 51.7078 62.8612C54.3685 65.8174 56.8444 68.515 59.106 70.9117C61.7281 63.9955 66.6006 59.1735 72.7429 56.8817C70.3961 54.6706 67.7705 52.2611 64.8955 49.6737C52.6665 38.6673 36.1136 24.5662 18.9413 9.84699C16.5162 7.7679 14.3181 6.79058 12.667 6.53607C12.3807 6.49088 12.0917 6.46516 11.802 6.4591ZM93.1245 6.68522C93.0579 6.68457 92.9944 6.68609 92.9348 6.69021C92.4552 6.72208 92.2107 6.83199 91.9427 7.10017L85.9634 13.0794L97.9211 25.0366L103.9 19.0574C104.168 18.7894 104.278 18.5453 104.31 18.0658C104.342 17.5866 104.229 16.8877 103.919 16.079C103.296 14.4617 101.907 12.4657 100.221 10.7794C98.5348 9.09318 96.5388 7.70417 94.9215 7.08196C94.2139 6.80988 93.5908 6.68956 93.1249 6.68522H93.1245ZM83.2043 15.8384L81.058 17.9849L83.2043 20.1307L85.9634 22.8904L88.1097 25.0362L90.8693 27.7958L93.0152 29.9421L95.1615 27.7958L83.2043 15.8384ZM78.2988 20.7441L59.3531 39.6899L61.6223 41.7131L80.4451 22.8904L78.2988 20.7441ZM83.2043 25.65L64.5398 44.314L66.8094 46.3369L85.3505 27.7958L83.2043 25.65ZM88.1101 30.5548L69.7269 48.9381L71.9965 50.9612L90.2564 32.7013L88.1106 30.555H88.1101V30.5548ZM41.7466 57.2967L15.7533 83.2904L17.8992 85.4363L43.7722 59.5633L41.7466 57.2967ZM75.9268 59.9301C69.323 61.5836 64.3846 66.2571 62.1368 74.0692C63.3621 75.3233 64.512 76.4724 65.5579 77.4744C67.2012 79.0492 68.6138 80.2943 69.7225 81.1506C70.1078 77.4163 71.9003 73.9829 74.4151 71.4617C76.7134 69.1576 79.7258 67.5581 82.8973 67.3227C82.0583 66.2742 80.916 64.9921 79.5089 63.5237C78.4601 62.4296 77.2508 61.2207 75.9268 59.9301ZM46.3768 62.477L20.6584 88.195L22.8046 90.3417L48.4029 64.7436L46.3768 62.477ZM51.0078 67.6572L25.5643 93.1007L27.7097 95.247L53.0337 69.9238L51.0078 67.6572ZM83.5908 71.1925C81.3368 71.2222 79.0535 72.3372 77.1775 74.2179C74.6763 76.7251 73.1291 80.4727 73.6509 84.1257C74.8073 92.2213 78.7998 98.3931 84.3737 101.737C89.301 104.694 95.5283 105.499 102.507 103.251C97.2559 102.382 92.4316 96.5946 92.0582 92.2708C94.3628 95.0488 97.2484 97.5925 100.389 99.1541C98.2467 94.2592 98.3941 89.3 97.985 85.2093C97.6919 82.2777 97.1415 79.7932 95.5185 77.5863C93.8956 75.3793 91.0909 73.2937 85.819 71.5363C85.1009 71.2973 84.3476 71.1811 83.5908 71.1925ZM13.7063 86.762L13.7057 86.7624L13.7061 86.7628L13.7063 86.762ZM13.7061 86.7628L11.0792 93.3318L17.6681 99.9213L24.2381 97.2937L22.8051 95.8603L20.0448 93.1011L17.899 90.9552L15.1391 88.1959L13.7061 86.7628ZM9.50134 97.2742L6.68472 104.315L13.7258 101.498L9.50134 97.2742Z" fill="#0072EB"></path>
</svg>
