<svg width="51" height="50" viewBox="0 0 51 50" fill="none" xmlns="http://www.w3.org/2000/svg">
<g clip-path="url('#clip0_744_212')">
<mask id="mask0_744_212" style="mask-type: luminance" maskUnits="userSpaceOnUse" x="0" y="0" width="51" height="50">
<path d="M0.5 0H50.5V50H0.5V0Z" fill="white"></path>
</mask>
<g mask="url('#mask0_744_212')">
<path d="M50.5 24.3521C50.5 21.0396 46.3521 17.9 39.9917 15.9542C41.4604 9.47296 40.8083 4.31462 37.9333 2.66254C37.2367 2.27237 36.4483 2.07598 35.65 2.09379V4.36462C36.1187 4.36462 36.4958 4.45837 36.8125 4.63129C38.1979 5.42712 38.8 8.45212 38.3312 12.3459C38.2187 13.3042 38.0354 14.3125 37.8104 15.3417C35.6805 14.8285 33.5188 14.4575 31.3396 14.2313C30.0414 12.4402 28.625 10.7378 27.1 9.13546C30.4229 6.04796 33.5417 4.35629 35.6625 4.35629V2.08337C32.8583 2.08337 29.1896 4.08129 25.4792 7.54587C21.7708 4.10421 18.1 2.12504 15.2979 2.12504V4.39587C17.4083 4.39587 20.5375 6.07921 23.8604 9.14587C22.4333 10.6459 21.0063 12.3459 19.65 14.2313C17.4663 14.455 15.3007 14.8295 13.1687 15.3521C12.9434 14.3767 12.7661 13.3908 12.6375 12.398C12.1583 8.50212 12.75 5.47712 14.1271 4.67296C14.4312 4.48962 14.8292 4.40629 15.2979 4.40629V2.13546C14.4437 2.13546 13.6667 2.31879 12.9958 2.70421C10.1312 4.35629 9.48958 9.50212 10.9667 15.9646C4.62708 17.923 0.5 21.05 0.5 24.3521C0.5 27.6646 4.64792 30.8042 11.0083 32.748C9.53958 39.2313 10.1917 44.3896 13.0667 46.0396C13.7292 46.4271 14.5042 46.6105 15.3583 46.6105C18.1625 46.6105 21.8313 44.6125 25.5417 41.148C29.25 44.5917 32.9187 46.5688 35.7229 46.5688C36.5273 46.5858 37.3217 46.3888 38.025 45.998C40.8896 44.348 41.5312 39.2021 40.0542 32.7396C46.3729 30.7938 50.5 27.6542 50.5 24.3521ZM37.2292 17.5542C36.8333 18.9164 36.3745 20.2595 35.8542 21.5792C35.0024 19.9225 34.0672 18.31 33.0521 16.748C34.5 16.9625 35.8958 17.2271 37.2312 17.5542M32.5646 28.4084C31.8015 29.7406 30.982 31.0397 30.1083 32.3021C27.0505 32.5716 23.9751 32.5751 20.9167 32.3125C19.1624 29.8067 17.6282 27.1537 16.3312 24.3834C17.6262 21.6065 19.1539 18.9442 20.8979 16.425C23.955 16.155 27.0297 16.1508 30.0875 16.4125C30.9333 17.625 31.7604 18.9209 32.5542 20.2875C33.3292 21.6209 34.0333 22.975 34.675 24.3417C34.0262 25.725 33.3222 27.0816 32.5646 28.4084ZM35.8542 27.0834C36.4042 28.45 36.875 29.8146 37.2604 31.1396C35.9271 31.4667 34.5187 31.7417 33.0625 31.9542C34.0734 30.378 35.0051 28.7524 35.8542 27.0834ZM25.5208 37.9584C24.5729 36.9792 23.625 35.8896 22.6875 34.6959C23.6042 34.7375 24.5417 34.7688 25.4896 34.7688C26.4479 34.7688 27.3958 34.748 28.3229 34.6959C27.4062 35.8896 26.4583 36.9792 25.5208 37.9584ZM17.9375 31.9542C16.5328 31.7507 15.1383 31.4823 13.7583 31.15C14.1354 29.8355 14.6042 28.4792 15.1333 27.125C15.5521 27.9375 15.9917 28.7542 16.4708 29.5709C16.95 30.3855 17.4375 31.1813 17.9375 31.9542ZM25.4687 10.7459C26.4167 11.725 27.3646 12.8146 28.3021 14.0084C27.3854 13.9667 26.4479 13.9355 25.5 13.9355C24.5417 13.9355 23.5937 13.9563 22.6667 14.0084C23.5833 12.8146 24.5312 11.725 25.4687 10.7459ZM17.9271 16.75C16.9164 18.3228 15.9847 19.945 15.1354 21.6105C14.6004 20.2823 14.1311 18.9285 13.7292 17.5542C15.0625 17.2375 16.4708 16.9625 17.9271 16.75ZM8.70417 29.5084C5.09583 27.9709 2.7625 25.9521 2.7625 24.3521C2.7625 22.7521 5.09583 20.723 8.70417 19.1959C9.57917 18.8188 10.5375 18.4813 11.5271 18.1667C12.1083 20.1625 12.8729 22.2417 13.8187 24.373C12.9258 26.3775 12.1705 28.4406 11.5583 30.548C10.5905 30.2483 9.63799 29.9014 8.70417 29.5084ZM14.1875 44.0709C12.8021 43.2792 12.2 40.25 12.6687 36.3584C12.7812 35.4 12.9646 34.3896 13.1896 33.3605C15.1854 33.85 17.3667 34.2271 19.6604 34.473C20.9587 36.264 22.375 37.9664 23.9 39.5688C20.5771 42.6563 17.4583 44.348 15.3375 44.348C14.9374 44.3523 14.5424 44.2579 14.1875 44.073M38.3625 36.3084C38.8417 40.2021 38.25 43.2292 36.8729 44.0334C36.5687 44.2167 36.1708 44.298 35.7021 44.298C33.5917 44.298 30.4625 42.6167 27.1396 39.548C28.6582 37.9523 30.065 36.2538 31.35 34.4646C33.5337 34.2409 35.6993 33.8664 37.8312 33.3438C38.0667 34.373 38.2479 35.3605 38.3625 36.3084ZM42.2854 29.5105C41.4104 29.8875 40.4521 30.225 39.4625 30.5396C38.8395 28.4215 38.0739 26.348 37.1708 24.3334C38.1083 22.2146 38.8604 20.1459 39.4312 18.1584C40.4021 18.459 41.3581 18.806 42.2958 19.198C45.9042 20.7355 48.2375 22.7542 48.2375 24.3542C48.2271 25.9542 45.8937 27.9834 42.2854 29.5105Z" fill="white"></path>
<path d="M25.4896 29.0105C26.7251 29.0105 27.91 28.5197 28.7836 27.6461C29.6572 26.7725 30.148 25.5876 30.148 24.3522C30.148 23.1167 29.6572 21.9318 28.7836 21.0582C27.91 20.1846 26.7251 19.6938 25.4896 19.6938C24.2542 19.6938 23.0693 20.1846 22.1957 21.0582C21.3221 21.9318 20.8313 23.1167 20.8313 24.3522C20.8313 25.5876 21.3221 26.7725 22.1957 27.6461C23.0693 28.5197 24.2542 29.0105 25.4896 29.0105Z" fill="white"></path>
</g>
</g>
<defs>
<clipPath id="clip0_744_212">
<rect width="50" height="50" fill="white" transform="translate(0.5)"></rect>
</clipPath>
</defs>
</svg>
