<svg width="51" height="50" fill="none" xmlns="http://www.w3.org/2000/svg"><g clip-path="url('#clip0_744_212')"><mask id="mask0_744_212" style="mask-type:luminance" maskUnits="userSpaceOnUse" x="0" y="0" width="51" height="50"><path d="M.5 0h50v50H.5V0Z" fill="#fff"/></mask><g mask="url('#mask0_744_212')" fill="#fff"><path d="M50.5 24.352c0-3.312-4.148-6.452-10.508-8.398 1.468-6.481.816-11.64-2.059-13.291a4.468 4.468 0 0 0-2.283-.57v2.272c.469 0 .846.093 1.163.266 1.385.796 1.987 3.821 1.518 7.715a31.231 31.231 0 0 1-.52 2.996 49.395 49.395 0 0 0-6.471-1.11 49.695 49.695 0 0 0-4.24-5.097c3.323-3.087 6.442-4.779 8.563-4.779V2.083c-2.805 0-6.473 1.998-10.184 5.463-3.708-3.442-7.379-5.421-10.181-5.421v2.27c2.11 0 5.24 1.684 8.562 4.75a48.402 48.402 0 0 0-4.21 5.086c-2.184.224-4.35.598-6.481 1.121a30.582 30.582 0 0 1-.532-2.954c-.479-3.896.113-6.92 1.49-7.725.304-.183.702-.267 1.17-.267v-2.27c-.853 0-1.63.183-2.301.568-2.865 1.652-3.506 6.798-2.03 13.26C4.628 17.924.5 21.05.5 24.353c0 3.313 4.148 6.452 10.508 8.396-1.468 6.483-.816 11.642 2.059 13.292.662.387 1.437.57 2.291.57 2.805 0 6.473-1.998 10.184-5.462 3.708 3.444 7.377 5.42 10.18 5.42a4.542 4.542 0 0 0 2.303-.57c2.865-1.65 3.506-6.796 2.03-13.258 6.318-1.946 10.445-5.086 10.445-8.388Zm-13.27-6.798a45.897 45.897 0 0 1-1.376 4.025 55.115 55.115 0 0 0-2.802-4.831c1.448.214 2.844.48 4.18.806m-4.667 10.854a54.043 54.043 0 0 1-2.457 3.894c-3.058.27-6.133.273-9.191.01a53.036 53.036 0 0 1-4.586-7.929 54.306 54.306 0 0 1 4.567-7.958 53.042 53.042 0 0 1 9.19-.012 55.557 55.557 0 0 1 2.466 3.875 52.274 52.274 0 0 1 2.121 4.054 57.1 57.1 0 0 1-2.11 4.066Zm3.29-1.325a43.311 43.311 0 0 1 1.405 4.057 44.86 44.86 0 0 1-4.197.814 56.36 56.36 0 0 0 2.791-4.87ZM25.52 37.958a41.909 41.909 0 0 1-2.834-3.262c.917.041 1.855.073 2.803.073.958 0 1.906-.021 2.833-.073a39.64 39.64 0 0 1-2.802 3.262Zm-7.584-6.004a46.06 46.06 0 0 1-4.179-.804c.377-1.314.846-2.67 1.375-4.025.42.813.859 1.63 1.338 2.446.479.814.966 1.61 1.466 2.383Zm7.532-21.208c.948.979 1.896 2.069 2.833 3.262a61.632 61.632 0 0 0-2.802-.072c-.958 0-1.906.02-2.833.072a39.588 39.588 0 0 1 2.802-3.262Zm-7.542 6.004a56.301 56.301 0 0 0-2.792 4.86 43.643 43.643 0 0 1-1.406-4.056 48.539 48.539 0 0 1 4.198-.804ZM8.704 29.508c-3.608-1.537-5.942-3.556-5.942-5.156 0-1.6 2.334-3.629 5.942-5.156a30.72 30.72 0 0 1 2.823-1.03 49.456 49.456 0 0 0 2.292 6.207 48.267 48.267 0 0 0-2.26 6.175c-.968-.3-1.921-.647-2.855-1.04Zm5.483 14.563c-1.385-.792-1.987-3.821-1.518-7.713.112-.958.296-1.968.52-2.997a49.47 49.47 0 0 0 6.471 1.112 49.724 49.724 0 0 0 4.24 5.096c-3.323 3.087-6.442 4.779-8.562 4.779-.4.004-.796-.09-1.15-.275m24.174-7.765c.48 3.894-.112 6.921-1.49 7.725-.303.184-.701.265-1.17.265-2.11 0-5.24-1.681-8.562-4.75a47.934 47.934 0 0 0 4.21-5.083 47.594 47.594 0 0 0 6.481-1.121c.236 1.029.417 2.017.531 2.964Zm3.923-6.797a30.75 30.75 0 0 1-2.822 1.029 48.914 48.914 0 0 0-2.292-6.207 48.187 48.187 0 0 0 2.26-6.175c.971.301 1.927.648 2.865 1.04 3.608 1.537 5.941 3.556 5.941 5.156-.01 1.6-2.343 3.63-5.952 5.157Z"/><path d="M25.49 29.01a4.658 4.658 0 1 0 0-9.316 4.658 4.658 0 0 0 0 9.317Z"/></g></g><defs><clipPath id="clip0_744_212"><path fill="#fff" transform="translate(.5)" d="M0 0h50v50H0z"/></clipPath></defs></svg>