<svg width="51" height="50" viewBox="0 0 51 50" fill="none" xmlns="http://www.w3.org/2000/svg">
<g clip-path="url('#clip0_744_220')">
<path d="M24.0812 37.0039C24.0578 37.0625 24.0343 37.1093 24.0812 37.0039ZM43.5445 28.5078C41.9732 28.5071 40.4228 28.9582 39.0132 29.8261C38.5523 28.664 38.0757 27.6484 37.9976 26.8867C37.9039 25.998 37.8023 25.4707 37.9117 24.416C38.0211 23.3613 38.5132 21.8671 38.5054 21.7597C38.4976 21.6523 38.3961 21.1152 37.3882 21.1054C36.3804 21.0957 35.5132 21.3496 35.4125 21.6816C35.2345 22.2884 35.096 22.9122 34.9984 23.5468C34.8187 24.6894 32.9836 28.7714 31.9445 30.9004C31.6007 30.0703 31.3117 29.3379 31.2492 28.7519C31.1554 27.8632 31.0539 27.3359 31.1632 26.2812C31.2726 25.2265 31.7648 23.7324 31.757 23.625C31.7492 23.5175 31.6476 22.9804 30.6406 22.9707C29.6336 22.9609 28.7656 23.2148 28.664 23.5468C28.5625 23.8789 28.4531 24.6601 28.25 25.4121C28.0468 26.164 25.6023 32.9609 24.9625 34.7285C24.6343 35.6269 24.3531 36.3496 24.15 36.8379C24.1187 36.916 24.0953 36.9648 24.0797 37.0039C24.1031 36.955 24.1187 36.9062 24.1187 36.9257C23.9468 37.3457 23.8453 37.58 23.8453 37.58V37.5898C23.7125 37.9023 23.564 38.1855 23.4937 38.1855C23.4468 38.1855 23.3453 37.3652 23.5172 36.2421C23.8843 33.8789 24.7515 30.207 24.7437 30.08C24.7359 30.0117 24.9078 29.3769 24.1734 29.0351C23.4625 28.7128 23.2047 29.25 23.1422 29.25C23.0797 29.25 23.0328 29.4453 23.0328 29.4453C23.0328 29.4453 23.8218 25.3046 21.5179 25.3046C20.0804 25.3046 18.0804 27.2773 17.0976 29.0644C16.4804 29.4843 15.1445 30.3925 13.7382 31.3593C13.1992 31.7304 12.6445 32.1113 12.1211 32.4726C12.082 32.4238 12.0507 32.375 12.0117 32.3261C9.21559 28.5957 4.05309 25.9589 4.27184 20.9492C4.34997 19.123 4.85778 14.3281 14.1992 8.50777C21.8554 3.74214 27.9765 5.05073 29.0304 7.96089C30.5461 12.1113 25.7578 19.8359 17.807 20.9492C14.7765 21.3691 13.1836 19.9043 12.7851 19.3574C12.3711 18.7812 12.3086 18.7519 12.1523 18.8593C11.8945 19.0351 12.0586 19.5429 12.1523 19.8457C12.3867 20.6171 13.3632 21.9843 15.0265 22.6679C16.4875 23.2636 20.0406 23.5957 24.3367 21.5156C29.1632 19.1914 32.9203 12.7168 31.8187 7.29683C30.6968 1.78901 23.3906 -0.0176267 16.482 3.04878C12.3656 4.87495 7.91403 7.74605 4.71168 11.4863C0.907778 15.9394 0.299185 19.8164 0.549185 21.4375C1.43903 27.1894 7.78122 30.9394 10.3195 33.7129C10.1945 33.8007 10.0773 33.8789 9.96793 33.957C8.69528 34.748 3.86012 37.9121 2.64997 41.2519C1.28278 45.041 2.87653 47.7558 3.92262 48.1269C7.18747 49.2597 10.5304 47.2187 12.3265 43.8691C14.1226 40.5195 13.9047 36.1445 13.0765 34.1523C13.0687 34.123 13.0531 34.1035 13.0453 34.0742C13.3734 33.83 13.7093 33.5859 14.0453 33.3418C14.6929 32.8632 15.3257 32.4238 15.8804 32.0429C15.5679 33.0976 15.3414 34.3671 15.2242 36.2031C15.0836 38.3515 15.7945 41.1347 16.7164 42.2285C17.1226 42.707 17.614 42.7168 17.9187 42.7168C18.9968 42.7168 19.4812 41.6035 20.0195 40.2754C20.6836 38.6543 21.2695 36.7695 21.2695 36.7695C21.2695 36.7695 20.5351 41.8671 22.5429 41.8671C23.2765 41.8671 24.0109 40.6855 24.3398 40.08V40.0898C24.3398 40.0898 24.3554 40.0507 24.3945 39.9726C24.4726 39.8261 24.5117 39.7382 24.5117 39.7382V39.7089C24.8086 39.0742 25.457 37.6191 26.4328 35.2168C27.6984 32.1113 28.9086 28.2343 28.9086 28.2343C29.0255 29.0866 29.1873 29.9283 29.3929 30.7539C29.6117 31.6816 30.0726 32.6972 30.4398 33.6836C30.1429 34.1914 29.9632 34.4843 29.9632 34.4843C29.9638 34.4918 29.9666 34.4988 29.9711 34.5039C29.7367 34.8945 29.4711 35.3144 29.1976 35.7246C28.1984 37.2089 27.0101 38.9082 26.8539 39.3964C26.6664 39.9726 26.7132 40.4023 27.0726 40.7343C27.3382 40.9882 27.807 41.0273 28.2984 40.9785C29.1968 40.9004 29.8297 40.6269 30.1343 40.4511C30.696 40.1994 31.2269 39.851 31.7117 39.416C32.6882 38.5175 33.282 37.2285 33.2273 35.5293C33.1961 34.5918 32.9539 33.6543 32.657 32.7753C32.7429 32.6191 32.8367 32.4531 32.9226 32.2871C34.4687 29.4648 35.664 26.3671 35.664 26.3671C35.781 27.2194 35.9428 28.0611 36.1484 28.8867C36.3359 29.6777 36.7023 30.5468 37.0382 31.3964C35.5859 32.8711 34.6875 34.58 34.375 35.7031C33.7968 37.7832 34.25 38.7207 35.1015 38.9355C35.4843 39.0332 36.0312 38.8086 36.4375 38.5937C37.0408 38.3425 37.6097 37.9769 38.1242 37.5097C39.1007 36.6113 40.0453 35.3515 39.9828 33.6425C39.9593 32.8711 39.7875 32.0996 39.5609 31.3574C40.7875 30.7128 42.3804 30.3613 44.4117 30.6543C48.7617 31.289 49.6132 34.6875 49.4492 36.1035C49.2851 37.5195 48.3711 38.3105 48.0664 38.5449C47.7617 38.7793 47.6679 38.8671 47.6914 39.0429C47.7304 39.2968 47.8711 39.2871 48.1289 39.2285C48.4883 39.1504 50.4093 38.0761 50.4953 35.4492C50.6203 32.1289 48.0664 28.4765 43.5422 28.5058L43.5445 28.5078ZM10.0148 42.6386C8.57809 44.6015 6.56247 45.3437 5.69606 44.7187C4.76637 44.0429 5.13356 41.1543 6.90622 39.0625C7.98434 37.7929 9.37418 36.6211 10.2961 35.8984C10.507 35.7421 10.8117 35.5078 11.1867 35.2246C11.2492 35.1757 11.2804 35.1562 11.2804 35.1562C11.3507 35.0976 11.4289 35.0488 11.507 34.9902C12.1547 37.9589 11.5304 40.5761 10.0148 42.6367V42.6386ZM20.5117 33.7129C20.0117 35.2461 18.9578 39.1523 18.3172 38.9472C17.7703 38.7714 17.4343 35.7929 18.2078 32.8632C18.5984 31.3886 19.4265 29.6308 19.9187 28.9472C20.707 27.8437 21.5742 27.4921 21.7773 27.9316C22.0507 28.5078 20.8242 32.7558 20.5117 33.7129ZM29.1836 38.8886C28.9726 39.0254 28.7773 39.1132 28.6836 39.0449C28.6132 38.9961 28.7695 38.8105 28.7695 38.8105C28.7695 38.8105 29.8554 37.3554 30.2851 36.6914C30.5351 36.3007 30.8242 35.8418 31.1359 35.3339C31.1359 35.3828 31.1437 35.4316 31.1437 35.4902C31.1336 37.2382 29.7906 38.4199 29.1812 38.8886H29.1836ZM35.8695 36.9843C35.7132 36.8476 35.7367 36.3886 36.2601 34.9628C36.4632 34.4062 36.9312 33.4687 37.7445 32.5703C37.8366 32.9104 37.8866 33.266 37.8929 33.625C37.8851 35.8222 36.6273 36.6425 35.8703 36.9843H35.8695Z" fill="white"></path>
</g>
<defs>
<clipPath id="clip0_744_220">
<rect width="50" height="50" fill="white" transform="translate(0.5)"></rect>
</clipPath>
</defs>
</svg>
