<svg width="51" height="50" fill="none" xmlns="http://www.w3.org/2000/svg"><g clip-path="url('#clip0_744_220')"><path d="M24.081 37.004c-.023.059-.047.105 0 0Zm19.463-8.496c-1.57 0-3.121.45-4.53 1.318-.462-1.162-.938-2.178-1.016-2.94-.094-.888-.196-1.415-.086-2.47.11-1.055.601-2.549.593-2.656-.007-.108-.109-.645-1.117-.655-1.008-.01-1.875.245-1.975.577-.178.606-.317 1.23-.415 1.865-.18 1.142-2.014 5.224-3.053 7.353-.344-.83-.633-1.562-.696-2.148-.094-.889-.195-1.416-.086-2.47.11-1.055.602-2.55.594-2.657-.008-.108-.11-.645-1.116-.654-1.007-.01-1.875.244-1.977.576-.102.332-.21 1.113-.414 1.865-.203.752-2.648 7.549-3.288 9.316-.328.899-.609 1.622-.812 2.11-.031.078-.055.127-.07.166.023-.049.039-.098.039-.078-.172.42-.274.654-.274.654v.01c-.133.312-.281.595-.351.595-.047 0-.149-.82.023-1.943.367-2.363 1.235-6.035 1.227-6.162-.008-.068.164-.703-.57-1.045-.712-.322-.97.215-1.032.215-.062 0-.11.195-.11.195s.79-4.14-1.514-4.14c-1.438 0-3.438 1.972-4.42 3.76-.618.42-1.953 1.327-3.36 2.294l-1.617 1.114c-.039-.05-.07-.098-.11-.147-2.795-3.73-7.958-6.367-7.74-11.377.079-1.826.587-6.62 9.928-12.441C21.855 3.742 27.977 5.05 29.03 7.96c1.516 4.15-3.272 11.875-11.223 12.988-3.03.42-4.623-1.045-5.022-1.592-.414-.576-.476-.605-.633-.498-.257.176-.093.684 0 .987.235.771 1.211 2.138 2.875 2.822 1.46.596 5.014.928 9.31-1.152 4.826-2.325 8.583-8.8 7.482-14.22C30.697 1.79 23.39-.017 16.482 3.05c-4.116 1.826-8.568 4.697-11.77 8.437C.908 15.94.299 19.816.549 21.437c.89 5.752 7.232 9.502 9.77 12.276-.125.088-.242.166-.351.244-1.273.791-6.108 3.955-7.318 7.295-1.367 3.789.227 6.504 1.273 6.875 3.264 1.133 6.607-.908 8.403-4.258 1.797-3.35 1.579-7.724.75-9.717-.007-.029-.023-.049-.03-.078.327-.244.663-.488 1-.732a64.5 64.5 0 0 1 1.834-1.3c-.312 1.056-.539 2.325-.656 4.161-.14 2.148.57 4.932 1.492 6.025.407.479.898.489 1.203.489 1.078 0 1.562-1.114 2.1-2.442.665-1.62 1.25-3.505 1.25-3.505s-.734 5.097 1.274 5.097c.733 0 1.468-1.181 1.797-1.787v.01s.015-.04.055-.117c.078-.147.117-.235.117-.235v-.03c.297-.634.945-2.089 1.92-4.491 1.266-3.106 2.477-6.983 2.477-6.983.117.853.278 1.694.484 2.52.219.928.68 1.943 1.047 2.93-.297.507-.477.8-.477.8 0 .008.004.015.008.02-.234.39-.5.81-.773 1.22-1 1.485-2.188 3.184-2.344 3.672-.188.577-.14 1.006.219 1.338.265.254.734.293 1.225.244.899-.078 1.532-.351 1.836-.527a6.107 6.107 0 0 0 1.578-1.035c.976-.898 1.57-2.188 1.515-3.887-.03-.937-.273-1.875-.57-2.754.086-.156.18-.322.266-.488 1.546-2.822 2.741-5.92 2.741-5.92.117.852.279 1.694.484 2.52.188.79.554 1.66.89 2.51-1.452 1.474-2.35 3.183-2.663 4.306-.578 2.08-.125 3.018.727 3.232.382.098.93-.126 1.336-.341a5.875 5.875 0 0 0 1.686-1.084c.977-.899 1.921-2.158 1.859-3.867-.024-.772-.195-1.543-.422-2.286 1.227-.644 2.82-.996 4.85-.703 4.35.635 5.202 4.034 5.038 5.45a3.63 3.63 0 0 1-1.383 2.44c-.304.235-.398.323-.375.499.04.254.18.244.438.185.36-.078 2.28-1.152 2.366-3.779.125-3.32-2.429-6.972-6.953-6.943l.002.002Zm-33.53 14.13c-1.436 1.964-3.452 2.706-4.318 2.08-.93-.675-.562-3.564 1.21-5.656 1.078-1.27 2.468-2.44 3.39-3.164.211-.156.516-.39.89-.673.063-.05.094-.069.094-.069.07-.058.149-.107.227-.166.648 2.969.023 5.586-1.492 7.647v.002Zm10.498-8.925c-.5 1.533-1.554 5.44-2.195 5.234-.547-.176-.883-3.154-.11-6.084.391-1.474 1.22-3.232 1.712-3.916.788-1.103 1.655-1.455 1.858-1.015.274.576-.953 4.824-1.265 5.78Zm8.672 5.176c-.211.136-.407.224-.5.156-.07-.049.085-.235.085-.235s1.086-1.455 1.516-2.119c.25-.39.54-.85.85-1.357 0 .049.009.098.009.156-.01 1.748-1.353 2.93-1.963 3.399h.003Zm6.686-1.905c-.157-.136-.133-.595.39-2.021.203-.557.671-1.494 1.485-2.393.092.34.142.696.148 1.055-.008 2.197-1.266 3.017-2.023 3.36Z" fill="#fff"/></g><defs><clipPath id="clip0_744_220"><path fill="#fff" transform="translate(.5)" d="M0 0h50v50H0z"/></clipPath></defs></svg>