<svg width="39" height="34" xmlns="http://www.w3.org/2000/svg"><path d="M37.502.862a2.855 2.855 0 0 0-2.83-.43L2.42 13.153c-.521.21-.965.569-1.272 1.03a2.667 2.667 0 0 0 .085 3.08c.332.445.795.78 1.327.962l6.96 2.36 3.77 12.179c.008.024.03.04.042.063a.885.885 0 0 0 .574.515c.018.007.03.023.049.027h.01l.006.002c.139.029.284.022.42-.022.014-.003.028-.003.044-.008a.895.895 0 0 0 .344-.215c.01-.012.029-.014.04-.025l5.423-5.848 7.915 5.987a2.77 2.77 0 0 0 1.683.567c1.32 0 2.46-.904 2.732-2.165l5.872-28.167c.1-.479.064-.974-.102-1.434a2.696 2.696 0 0 0-.841-1.18M15.259 22.896l-1.273 6.044-2.655-8.578 13.167-6.7-8.995 8.79a.87.87 0 0 0-.244.444Zm15.55 8.391a.941.941 0 0 1-.218.431.974.974 0 0 1-.407.271.965.965 0 0 1-.925-.137l-8.573-6.487a.915.915 0 0 0-1.217.105l-3.775 4.064 1.271-6.026 12.94-12.644a.865.865 0 0 0 .088-1.14.902.902 0 0 0-.52-.336.919.919 0 0 0-.619.075l-18.653 9.492L3.15 16.56a.946.946 0 0 1-.466-.331.91.91 0 0 1-.184-.534.92.92 0 0 1 .152-.55.953.953 0 0 1 .45-.36l32.245-12.72a.986.986 0 0 1 1.004.151.9.9 0 0 1 .328.91l-5.87 28.161Z" fill="#c2a875"/></svg>