<svg width="70" height="71" viewBox="0 0 70 71" fill="none" xmlns="http://www.w3.org/2000/svg">
<path fill-rule="evenodd" clip-rule="evenodd" d="M66.6317 44.6484C64.5276 41.8399 61.6918 39.664 58.4344 38.3587L58.2643 38.2968C55.9007 37.3515 53.3335 37.0304 50.8098 37.3645C48.2862 37.6986 45.891 38.6766 43.8547 40.2044L41.9987 41.5912C41.5022 41.9623 40.8886 42.1421 40.2703 42.0976C39.652 42.0531 39.0704 41.7873 38.6322 41.3489L28.909 31.6256C28.4692 31.1871 28.2025 30.6045 28.158 29.985C28.1134 29.3656 28.2941 28.7509 28.6666 28.2539L30.0586 26.398C31.5846 24.3628 32.5616 21.9695 32.8956 19.4478C33.2297 16.9261 32.9096 14.3609 31.9662 11.9987L31.8991 11.8337C30.5952 8.57267 28.4192 5.73322 25.6094 3.62617L24.6299 2.88894C23.0761 1.724 21.263 0.953171 19.3459 0.642498C17.4289 0.331824 15.4652 0.490572 13.6229 1.10514L12.6434 1.42993C9.99969 2.31248 7.59764 3.79815 5.62729 5.7694C3.65694 7.74064 2.17236 10.1434 1.29101 12.7875C-0.221358 17.3237 -0.409139 22.197 0.749684 26.8362C2.96178 35.6815 7.53617 43.7593 13.9838 50.206L20.057 56.2792C26.5043 62.7249 34.5821 67.2975 43.4268 69.5081C48.0668 70.6733 52.9387 70.4877 57.4755 68.972C60.1217 68.0903 62.5261 66.6044 64.4984 64.6322C66.4707 62.6599 67.9565 60.2555 68.8382 57.6093L69.163 56.6349C69.7768 54.7923 69.9348 52.8283 69.6232 50.9112C69.3116 48.9942 68.5398 47.1813 67.374 45.6279L66.6368 44.6484H66.6317ZM20.9795 6.50663L20 5.7694C19.5661 5.44453 19.0598 5.22979 18.5246 5.14359C17.9894 5.05738 17.4413 5.1023 16.9273 5.27447L15.9478 5.59927C13.1741 6.52726 7.92799 11.2263 7 14C6.00672 16.9762 6.23905 22.4561 7 25.5C8.83142 32.8214 12.6628 39.8035 18 45.1394L24.5 51.6292C29.836 56.9662 38.1787 62.1683 45.5 64C48.5417 64.7579 53.6954 63.9899 56.6701 63C59.4489 62.072 61.5 58 63 55.5L63.5001 53.2271C63.6715 52.7127 63.7156 52.1644 63.6285 51.6292C63.5414 51.094 63.3257 50.5879 63 50.1544L62.2628 49.1749C61.1112 47.6379 58.4524 44.7826 56.6701 44.067L56.5 44C55.5165 43.6066 54.4483 43.473 53.3982 43.6121C52.348 43.7511 51.3514 44.1581 50.5042 44.7939L48.6482 46.1859C46.4838 47.8081 43.8069 48.5954 41.1089 48.4031C38.4109 48.2109 35.8727 47.0521 33.9602 45.1394L26 37.3645C24.0859 35.4517 22.9263 32.9125 22.734 30.2133C22.5418 27.5141 23.3298 24.8362 24.9534 22.6714L26.3454 20.8154C27.6343 19.0934 27.9385 16.825 27.1394 14.8247L27.0723 14.6597C26.3586 12.8736 22.5183 7.66077 20.9795 6.50663Z" fill="white"/>
</svg>
