<svg width="64" height="64" viewBox="0 0 64 64" fill="none" xmlns="http://www.w3.org/2000/svg">
<path d="M37.7146 42.5653C37.7949 42.7264 37.8419 42.9021 37.8525 43.0818C37.8632 43.2615 37.8373 43.4415 37.7765 43.6109C37.7157 43.7804 37.6212 43.9358 37.4987 44.0677C37.3763 44.1996 37.2284 44.3054 37.0639 44.3786L11.9919 55.56C8.00524 57.3386 3.86657 53.3893 5.84257 49.688L14.2479 33.944C14.9012 32.72 14.9012 31.2773 14.2479 30.056L5.84257 14.312C3.86923 10.6106 8.00257 6.65865 11.9919 8.43998L21.3919 12.632C22.5192 13.1349 23.4372 14.0133 23.9892 15.1173L37.7146 42.5653Z" fill="#EB9500"/>
<path opacity="0.5" d="M41.4212 41.04C41.5748 41.3472 41.841 41.5833 42.1645 41.6991C42.4879 41.8148 42.8435 41.8013 43.1572 41.6613L56.0185 35.928C59.5465 34.3546 59.5465 29.648 56.0185 28.0746L32.2905 17.4933C32.0396 17.3814 31.7602 17.3497 31.4906 17.4027C31.221 17.4556 30.9743 17.5905 30.7843 17.789C30.5943 17.9874 30.4702 18.2398 30.4291 18.5114C30.388 18.7831 30.4318 19.0608 30.5545 19.3066L41.4212 41.04Z" fill="#D6A755"/>
</svg>
