<svg width="152" height="114" viewBox="0 0 152 114" fill="none" xmlns="http://www.w3.org/2000/svg">
<path fill-rule="evenodd" clip-rule="evenodd" d="M106.272 55.7522C105.892 55.7558 105.52 55.8567 105.189 56.0451C105.047 56.1414 104.932 56.272 104.854 56.4249C104.777 56.6179 104.74 56.8247 104.746 57.0326C104.864 57.9963 105.237 58.9106 105.828 59.6801L108.102 63.3043C108.941 64.773 109.967 66.1262 111.155 67.3299C112.318 68.4522 113.871 69.0784 115.486 69.0768C116.336 69.0947 117.181 68.9416 117.971 68.6267C118.762 68.3117 119.481 67.8413 120.087 67.2431C121.327 65.9448 122.387 64.4849 123.237 62.9028L125.793 58.6819C126.183 58.0004 126.371 57.2209 126.334 56.4358C126.269 56.1753 125.987 56.056 125.511 56.0234H125.197H124.84H124.634C124.404 56.0443 124.172 56.0443 123.941 56.0234L124.818 52.1389C118.322 53.224 113.45 48.3303 106.575 51.1732L107.052 55.8281C106.793 55.8555 106.531 55.8555 106.272 55.8281V55.7522ZM88.9495 85.8628C89.5558 78.0286 88.0184 77.9201 94.5794 75.457C98.1959 74.2225 101.693 72.6608 105.027 70.7912L110.646 85.8628H88.9495ZM142 85.8628C141.405 78.0286 142.931 77.9201 136.381 75.457C132.762 74.2205 129.261 72.6589 125.922 70.7912L120.303 85.8628H142ZM117.099 77.6489H117.878C118.219 77.646 118.545 77.5091 118.786 77.2675C119.027 77.026 119.164 76.6992 119.167 76.3576V74.2743C119.167 73.9318 119.031 73.6034 118.789 73.3613C118.548 73.1191 118.22 72.9831 117.878 72.9831H113.223C112.881 72.9831 112.553 73.1191 112.312 73.3613C112.07 73.6034 111.934 73.9318 111.934 74.2743V76.3685C111.937 76.7101 112.074 77.0368 112.315 77.2784C112.556 77.5199 112.882 77.6569 113.223 77.6597H114.046L112.53 85.8737H118.593L117.131 77.6597L117.099 77.6489ZM45.08 78.1154L45.9678 78.9944C46.0776 79.1077 46.139 79.2595 46.139 79.4175C46.139 79.5755 46.0776 79.7273 45.9678 79.8407L45.2533 80.5569C45.4522 80.93 45.6014 81.3276 45.6971 81.7396H46.6174C46.7753 81.7396 46.9268 81.8025 47.0385 81.9144C47.1501 82.0263 47.2129 82.1781 47.2129 82.3364V83.5842C47.2129 83.7425 47.1501 83.8943 47.0385 84.0062C46.9268 84.1181 46.7753 84.181 46.6174 84.181H45.6105C45.4862 84.5813 45.3115 84.9641 45.0909 85.3203L45.7405 85.9822C45.8502 86.0956 45.9117 86.2474 45.9117 86.4054C45.9117 86.5634 45.8502 86.7152 45.7405 86.8286L44.8527 87.7075C44.7414 87.8168 44.5917 87.8781 44.4358 87.8781C44.28 87.8781 44.1303 87.8168 44.019 87.7075L43.3045 86.9913C42.9322 87.1907 42.5354 87.3402 42.1244 87.4362V88.3802C42.1244 88.5385 42.0616 88.6903 41.95 88.8022C41.8383 88.9141 41.6868 88.977 41.5289 88.977H40.2838C40.1259 88.977 39.9744 88.9141 39.8628 88.8022C39.7511 88.6903 39.6884 88.5385 39.6884 88.3802V87.3711C39.2846 87.2489 38.8987 87.0738 38.5407 86.8503L37.8911 87.5013C37.8366 87.5584 37.771 87.6039 37.6985 87.6349C37.6259 87.666 37.5478 87.682 37.4689 87.682C37.39 87.682 37.3119 87.666 37.2394 87.6349C37.1668 87.6039 37.1012 87.5584 37.0467 87.5013L36.1697 86.6224C36.1127 86.5677 36.0674 86.502 36.0364 86.4293C36.0054 86.3566 35.9895 86.2783 35.9895 86.1992C35.9895 86.1201 36.0054 86.0419 36.0364 85.9691C36.0674 85.8964 36.1127 85.8307 36.1697 85.776L36.8734 85.0599C36.6734 84.6884 36.5276 84.2901 36.4404 83.8772H35.5201C35.4415 83.8786 35.3634 83.8642 35.2905 83.8347C35.2176 83.8053 35.1514 83.7614 35.0958 83.7057C35.0402 83.6499 34.9964 83.5836 34.967 83.5105C34.9376 83.4374 34.9232 83.3592 34.9247 83.2804V82.0108C34.9247 81.8526 34.9874 81.7008 35.0991 81.5889C35.2107 81.4769 35.3622 81.4141 35.5201 81.4141H36.527C36.6491 81.0299 36.824 80.6647 37.0467 80.329L36.3971 79.678C36.3401 79.6233 36.2947 79.5576 36.2638 79.4848C36.2328 79.4121 36.2168 79.3338 36.2168 79.2548C36.2168 79.1757 36.2328 79.0974 36.2638 79.0247C36.2947 78.952 36.3401 78.8863 36.3971 78.8316L37.274 77.9418C37.3872 77.8318 37.5386 77.7703 37.6963 77.7703C37.8539 77.7703 38.0054 77.8318 38.1185 77.9418L38.8331 78.658C39.2053 78.4586 39.6021 78.3091 40.0132 78.2131V77.2908C40.0132 77.1325 40.0759 76.9807 40.1876 76.8688C40.2992 76.7569 40.4507 76.694 40.6086 76.694H41.8537C42.0116 76.694 42.1631 76.7569 42.2748 76.8688C42.3864 76.9807 42.4492 77.1325 42.4492 77.2908V78.2999C42.8512 78.4175 43.2341 78.593 43.586 78.8207L44.2356 78.1697C44.2901 78.1126 44.3557 78.0671 44.4282 78.0361C44.5008 78.005 44.5789 77.989 44.6578 77.989C44.7367 77.989 44.8148 78.005 44.8873 78.0361C44.9599 78.0671 45.0255 78.1126 45.08 78.1697V78.1154ZM41.0634 80.2856C41.5494 80.2856 42.0246 80.43 42.4287 80.7007C42.8329 80.9713 43.1479 81.356 43.3339 81.8061C43.5199 82.2562 43.5686 82.7514 43.4738 83.2292C43.3789 83.707 43.1449 84.1459 42.8012 84.4904C42.4575 84.8348 42.0196 85.0694 41.5428 85.1645C41.0661 85.2595 40.5719 85.2107 40.1229 85.0243C39.6738 84.8379 39.2899 84.5222 39.0199 84.1171C38.7498 83.7121 38.6057 83.2358 38.6057 82.7487C38.6057 82.0954 38.8646 81.4689 39.3255 81.007C39.7864 80.5451 40.4115 80.2856 41.0634 80.2856ZM56.0474 63.25C55.4413 63.1841 54.8844 62.8847 54.4945 62.415C54.1046 61.9452 53.9122 61.342 53.9579 60.7326C53.9281 60.4295 53.9587 60.1234 54.0479 59.8322C54.1371 59.5409 54.2832 59.2704 54.4776 59.0362C54.672 58.802 54.9108 58.6088 55.1803 58.4679C55.4498 58.327 55.7445 58.2411 56.0474 58.2153H82.7784C83.3853 58.2811 83.9433 58.5802 84.3349 59.0496C84.7266 59.519 84.9215 60.1222 84.8787 60.7326C84.907 61.0364 84.8749 61.3427 84.7845 61.634C84.694 61.9253 84.5469 62.1957 84.3517 62.4297C84.1564 62.6638 83.9169 62.8567 83.6468 62.9975C83.3768 63.1383 83.0816 63.2241 82.7784 63.25H56.0474ZM56.0474 85.2661C55.4424 85.1976 54.8871 84.8974 54.4977 84.4283C54.1084 83.9592 53.9149 83.3574 53.9579 82.7487C53.9281 82.4449 53.9586 82.1383 54.0477 81.8464C54.1368 81.5545 54.2827 81.2832 54.4769 81.0482C54.6712 80.8131 54.91 80.6189 55.1796 80.4769C55.4491 80.3348 55.7441 80.2477 56.0474 80.2205H74.2903C74.8973 80.289 75.4542 80.5907 75.8439 81.0622C76.2336 81.5336 76.4257 82.1382 76.3798 82.7487C76.4096 83.0519 76.379 83.3579 76.2898 83.6492C76.2005 83.9404 76.0545 84.2109 75.8601 84.4451C75.6657 84.6793 75.4268 84.8725 75.1574 85.0134C74.8879 85.1544 74.5931 85.2402 74.2903 85.2661H56.0474ZM40.9984 44.576C40.7041 44.783 40.3431 44.8723 39.9865 44.8261C39.6299 44.7799 39.3034 44.6016 39.0713 44.3264L38.9089 44.1528L36.2239 41.3858C36.0962 41.2278 36.0012 41.0457 35.9445 40.8504C35.8878 40.6551 35.8706 40.4505 35.8938 40.2484C35.917 40.0463 35.9801 39.8509 36.0795 39.6736C36.179 39.4963 36.3127 39.3406 36.4729 39.2157C36.789 38.9203 37.2013 38.7499 37.6333 38.7359C38.0653 38.7219 38.4877 38.8654 38.8222 39.1398L40.2405 40.6372L44.9393 36.8611C45.1081 36.7492 45.2983 36.6737 45.4978 36.6393C45.6973 36.6049 45.9018 36.6125 46.0982 36.6614C46.2947 36.7104 46.4788 36.7997 46.639 36.9238C46.7992 37.0478 46.9319 37.2038 47.0288 37.3819C47.3125 37.7085 47.4596 38.1322 47.4394 38.5647C47.4192 38.9973 47.2334 39.4053 46.9206 39.704L41.0525 44.576H40.9984ZM55.9175 42.4058C54.7482 42.4058 53.9687 41.2231 53.9687 39.8776C53.9687 38.5321 54.7482 37.3819 55.9175 37.3819H86.5244C87.1305 37.4478 87.6873 37.7472 88.0772 38.217C88.4672 38.6867 88.6596 39.29 88.6139 39.8993C88.6437 40.2031 88.6132 40.5097 88.5241 40.8016C88.435 41.0935 88.2891 41.3648 88.0948 41.5998C87.9006 41.8349 87.6618 42.0291 87.3922 42.1711C87.1227 42.3132 86.8277 42.4003 86.5244 42.4275L55.9175 42.4058ZM25.0399 19.9123H116.947C117.63 19.9152 118.283 20.1882 118.766 20.6719C119.249 21.1556 119.521 21.8108 119.524 22.4948V29.9601H114.749V24.1332H25.0399V79.4718C25.0413 79.8477 24.9075 80.2115 24.6629 80.4966C24.4183 80.7816 24.0794 80.9686 23.7083 81.0234C9.68778 83.2044 9.02736 99.8385 23.286 102.226H114.749V95.2378H119.524V104.418C119.522 105.102 119.25 105.757 118.766 106.24C118.283 106.723 117.629 106.996 116.947 107H23.1778C19.3451 107 14.0076 103.983 11.7881 100.804C9.56869 97.625 8.84331 93.7296 9.02736 89.0964V28.7014C9.02736 18.4149 8.92992 7.26042 23.286 7H23.4593C23.8785 7 24.2805 7.16691 24.577 7.464C24.8734 7.7611 25.0399 8.16405 25.0399 8.5842V19.9123ZM12.7625 82.1194C15.8914 78.8642 17.1582 78.4084 21.3589 77.638V10.2552C11.55 11.2209 12.6976 20.3138 12.6976 28.7556C12.6976 29.8407 12.6976 30.4918 12.6976 30.763V82.1194H12.7625ZM45.08 56.0777L45.9678 56.9674C46.0776 57.0808 46.139 57.2326 46.139 57.3906C46.139 57.5486 46.0776 57.7004 45.9678 57.8138L45.2533 58.5191C45.4504 58.893 45.5996 59.2904 45.6971 59.7018H46.6174C46.7753 59.7018 46.9268 59.7647 47.0385 59.8766C47.1501 59.9885 47.2129 60.1403 47.2129 60.2986V61.5464C47.2129 61.7057 47.1505 61.8587 47.0391 61.9723C46.9278 62.086 46.7763 62.1512 46.6174 62.1541H45.6105C45.48 62.5348 45.3056 62.8989 45.0909 63.2392L45.7405 63.8902C45.8502 64.0036 45.9117 64.1554 45.9117 64.3134C45.9117 64.4714 45.8502 64.6232 45.7405 64.7365L44.8527 65.6263C44.7414 65.7356 44.5917 65.7969 44.4358 65.7969C44.28 65.7969 44.1303 65.7356 44.019 65.6263L43.3045 64.9102C42.9322 65.1095 42.5354 65.2591 42.1244 65.355V66.2773C42.1244 66.4356 42.0616 66.5874 41.95 66.6993C41.8383 66.8113 41.6868 66.8741 41.5289 66.8741H40.2838C40.1259 66.8741 39.9744 66.8113 39.8628 66.6993C39.7511 66.5874 39.6884 66.4356 39.6884 66.2773V65.2682C39.2863 65.1415 38.901 64.9666 38.5407 64.7474L37.8911 65.3984C37.778 65.5085 37.6266 65.57 37.4689 65.57C37.3113 65.57 37.1598 65.5085 37.0467 65.3984L36.1697 64.5087C36.1127 64.454 36.0674 64.3883 36.0364 64.3156C36.0054 64.2428 35.9895 64.1646 35.9895 64.0855C35.9895 64.0064 36.0054 63.9282 36.0364 63.8554C36.0674 63.7827 36.1127 63.717 36.1697 63.6623L36.8734 62.957C36.675 62.5848 36.5293 62.1868 36.4404 61.7743H35.5201C35.3622 61.7743 35.2107 61.7114 35.0991 61.5995C34.9874 61.4876 34.9247 61.3358 34.9247 61.1775V60.0056C34.9232 59.9269 34.9376 59.8486 34.967 59.7755C34.9964 59.7025 35.0402 59.6361 35.0958 59.5804C35.1514 59.5247 35.2176 59.4807 35.2905 59.4513C35.3634 59.4218 35.4415 59.4074 35.5201 59.4089H36.527C36.6422 59.0017 36.8173 58.614 37.0467 58.2587L36.3971 57.6076C36.3401 57.5529 36.2947 57.4873 36.2638 57.4145C36.2328 57.3418 36.2168 57.2635 36.2168 57.1845C36.2168 57.1054 36.2328 57.0271 36.2638 56.9544C36.2947 56.8817 36.3401 56.816 36.3971 56.7613L37.274 55.8824C37.3286 55.8253 37.3942 55.7798 37.4667 55.7488C37.5393 55.7177 37.6174 55.7017 37.6963 55.7017C37.7752 55.7017 37.8533 55.7177 37.9258 55.7488C37.9984 55.7798 38.0639 55.8253 38.1185 55.8824L38.8331 56.5877C39.2037 56.3872 39.6011 56.2411 40.0132 56.1536V55.2313C40.0117 55.1521 40.0261 55.0733 40.0553 54.9996C40.0846 54.926 40.1283 54.8589 40.1837 54.8023C40.2391 54.7457 40.3053 54.7008 40.3782 54.6701C40.4512 54.6395 40.5295 54.6237 40.6086 54.6237H41.8537C42.0126 54.6265 42.1641 54.6918 42.2754 54.8055C42.3868 54.9191 42.4492 55.072 42.4492 55.2313V56.2296C42.8477 56.3564 43.2295 56.5313 43.586 56.7504L44.2356 56.0994C44.3487 55.9894 44.5001 55.9278 44.6578 55.9278C44.8154 55.9278 44.9669 55.9894 45.08 56.0994V56.0777ZM41.0634 58.3129C41.5499 58.3129 42.0255 58.4577 42.4299 58.7288C42.8343 58.9999 43.1492 59.3853 43.3349 59.836C43.5206 60.2867 43.5687 60.7825 43.4729 61.2606C43.3772 61.7387 43.1421 62.1775 42.7973 62.5216C42.4525 62.8656 42.0136 63.0993 41.5361 63.1931C41.0587 63.2869 40.5642 63.2366 40.1153 63.0485C39.6664 62.8604 39.2834 62.543 39.0146 62.1366C38.7459 61.7301 38.6036 61.2528 38.6057 60.7652C38.6086 60.1138 38.8688 59.4901 39.3294 59.0305C39.7899 58.5709 40.4134 58.3129 41.0634 58.3129ZM126.377 54.9058C126.671 54.9832 126.938 55.1408 127.149 55.361C127.359 55.5813 127.504 55.8557 127.568 56.1536C127.701 57.2312 127.485 58.3231 126.951 59.2678C126.954 59.2894 126.954 59.3113 126.951 59.3329L124.363 63.6081C123.452 65.2737 122.324 66.81 121.007 68.1762C120.281 68.8844 119.422 69.441 118.48 69.8135C117.538 70.1861 116.531 70.3672 115.518 70.3464C113.572 70.3628 111.697 69.6105 110.3 68.2522C109.031 66.9792 107.939 65.5413 107.052 63.977L104.778 60.3529C104.051 59.3907 103.605 58.2449 103.49 57.0434C103.468 56.6376 103.543 56.2325 103.706 55.8607C103.879 55.4919 104.149 55.1769 104.486 54.9492C104.659 54.8359 104.844 54.7413 105.038 54.6671C104.882 52.5006 104.846 50.3272 104.93 48.1567C104.982 47.6578 105.077 47.1642 105.211 46.681C108.632 35.3312 125.955 36.2969 126.518 49.0247L126.377 54.9275V54.9058Z" fill="#0072EB"/>
</svg>
