<svg width="64" height="67" viewBox="0 0 64 67" fill="white" xmlns="http://www.w3.org/2000/svg">
<path d="M24.5625 20.4688C25.9507 20.4688 27.2821 19.9173 28.2638 18.9356C29.2454 17.954 29.7969 16.6226 29.7969 15.2344C29.7969 13.8461 29.2454 12.5147 28.2638 11.5331C27.2821 10.5515 25.9507 10 24.5625 10C23.1743 10 21.8429 10.5515 20.8612 11.5331C19.8796 12.5147 19.3281 13.8461 19.3281 15.2344C19.3281 16.6226 19.8796 17.954 20.8612 18.9356C21.8429 19.9173 23.1743 20.4688 24.5625 20.4688Z" />
<path d="M24.5625 20.4688C27.0624 20.4688 29.2944 22.0684 30.09 24.4427L30.4543 25.5314C30.5018 25.6707 30.5152 25.8193 30.4935 25.9648C30.4718 26.1104 30.4155 26.2486 30.3294 26.3679C30.2433 26.4872 30.1299 26.5842 29.9986 26.6506C29.8673 26.7171 29.7221 26.7512 29.5749 26.75H19.5668C19.4203 26.7493 19.2761 26.7141 19.1458 26.6471C19.0155 26.58 18.9029 26.4832 18.8172 26.3644C18.7315 26.2456 18.675 26.1082 18.6525 25.9635C18.6299 25.8187 18.6419 25.6707 18.6874 25.5314L19.0518 24.4427C19.4394 23.284 20.1819 22.2766 21.1739 21.5634C22.166 20.8501 23.3574 20.4672 24.5792 20.4688H24.5625ZM12 37.2188C12 36.6635 12.2206 36.1309 12.6132 35.7382C13.0059 35.3456 13.5385 35.125 14.0938 35.125H35.0312C35.5865 35.125 36.1191 35.3456 36.5118 35.7382C36.9044 36.1309 37.125 36.6635 37.125 37.2188C37.125 37.7741 36.9044 38.3066 36.5118 38.6993C36.1191 39.0919 35.5865 39.3125 35.0312 39.3125H14.0938C13.5385 39.3125 13.0059 39.0919 12.6132 38.6993C12.2206 38.3066 12 37.7741 12 37.2188ZM12 45.5938C12 45.0385 12.2206 44.5059 12.6132 44.1132C13.0059 43.7206 13.5385 43.5 14.0938 43.5H35.0312C35.5865 43.5 36.1191 43.7206 36.5118 44.1132C36.9044 44.5059 37.125 45.0385 37.125 45.5938C37.125 46.1491 36.9044 46.6816 36.5118 47.0743C36.1191 47.4669 35.5865 47.6875 35.0312 47.6875H14.0938C13.5385 47.6875 13.0059 47.4669 12.6132 47.0743C12.2206 46.6816 12 46.1491 12 45.5938ZM14.0938 51.875C13.5385 51.875 13.0059 52.0956 12.6132 52.4882C12.2206 52.8809 12 53.4135 12 53.9688C12 54.5241 12.2206 55.0566 12.6132 55.4493C13.0059 55.8419 13.5385 56.0625 14.0938 56.0625H22.4688C23.024 56.0625 23.5566 55.8419 23.9493 55.4493C24.3419 55.0566 24.5625 54.5241 24.5625 53.9688C24.5625 53.4135 24.3419 52.8809 23.9493 52.4882C23.5566 52.0956 23.024 51.875 22.4688 51.875H14.0938Z"/>
<path fill-rule="evenodd" clip-rule="evenodd" d="M1.74487 6.85751C-4.76837e-07 9.54689 0 13.0573 0 20.095V46.905C0 53.9427 -4.76837e-07 57.4615 1.74487 60.1425C3.28505 62.5015 5.73019 64.4211 8.73504 65.6302C12.1607 67 16.6323 67 25.5968 67H38.4032C47.3677 67 51.8499 67 55.265 65.6302C58.2741 64.4257 60.7209 62.5049 62.2551 60.1425C64 57.4531 64 53.9427 64 46.905V20.095C64 13.0573 64 9.53851 62.2551 6.85751C60.7209 4.49514 58.2741 2.57429 55.265 1.36983C51.8393 1.19209e-07 47.3677 0 38.4032 0H25.5968C16.6323 0 12.1501 1.19209e-07 8.73504 1.36983C5.73019 2.57895 3.28505 4.49853 1.74487 6.85751ZM38.4032 4.18488H25.5968C21.0238 4.18488 17.913 4.18488 15.5118 4.34407C13.1746 4.49068 11.974 4.76297 11.1416 5.0981C9.1336 5.90133 7.02315 6.92362 6 8.5C5.57312 9.1535 4.68676 10.661 4.5 12.5C4.30257 14.3851 4.5 16.4924 4.5 20.095L4.5 46.9176C4.5 50.5076 4.30257 53.1149 4.5 55C4.6921 56.8348 5.57846 57.8465 6 58.5C7.02451 60.0751 9.13524 61.1227 11.1416 61.927C11.974 62.2622 13.1746 62.5345 15.5118 62.6811C17.913 62.8319 21.0078 62.8361 25.5968 62.8361H38.4032C42.9762 62.8361 46.087 62.8361 48.4882 62.6811C50.8254 62.5303 52.026 62.258 52.8584 61.927C54.8648 61.1227 56.9755 60.0751 58 58.5C58.4269 57.8465 59.3132 57.339 59.5 55.5C59.6974 53.6149 60 50.5202 60 46.9176L60 20.1075C60 16.5217 60 14.5 59.5 12.5C59 10.5 58.4215 9.1535 58 8.5C56.9769 6.92362 54.8664 5.90133 52.8584 5.0981C52.026 4.76297 50.8254 4.49068 48.4882 4.34407C46.087 4.18907 42.9922 4.18488 38.4032 4.18488Z" />
<path d="M47 42.5C47.3315 42.5 47.6495 42.6317 47.8839 42.8661C48.1183 43.1005 48.25 43.4185 48.25 43.75V53.65L51.5333 50.3667C51.7703 50.1459 52.0837 50.0257 52.4075 50.0314C52.7314 50.0371 53.0403 50.1683 53.2694 50.3973C53.4984 50.6263 53.6296 50.9353 53.6353 51.2591C53.641 51.583 53.5208 51.8964 53.3 52.1333L47.8833 57.55C47.649 57.7841 47.3313 57.9156 47 57.9156C46.6688 57.9156 46.351 57.7841 46.1167 57.55L40.7 52.1333C40.5772 52.0189 40.4787 51.8809 40.4104 51.7276C40.342 51.5742 40.3053 51.4087 40.3023 51.2409C40.2994 51.073 40.3303 50.9063 40.3931 50.7507C40.456 50.595 40.5496 50.4536 40.6683 50.3349C40.787 50.2162 40.9284 50.1227 41.084 50.0598C41.2397 49.9969 41.4064 49.9661 41.5742 49.969C41.742 49.972 41.9076 50.0087 42.0609 50.077C42.2142 50.1454 42.3522 50.2439 42.4667 50.3667L45.75 53.65V43.75C45.75 43.4185 45.8817 43.1005 46.1161 42.8661C46.3505 42.6317 46.6685 42.5 47 42.5Z"/>
</svg>
