<svg width="51" height="50" viewBox="0 0 51 50" fill="none" xmlns="http://www.w3.org/2000/svg">
<g clip-path="url(#clip0_744_226)">
<path d="M25.496 0.0427246C23.696 0.0427246 21.9918 0.271891 21.0293 0.444808V0.448975C15.263 1.46792 10.0415 4.49011 6.28575 8.98266C2.52996 13.4752 0.480988 19.1496 0.500133 25.0052C0.500133 27.3511 0.827216 29.6573 1.46888 31.8865C1.54805 32.1886 1.65847 32.5094 1.7543 32.8177C5.10222 42.9531 14.721 49.9552 25.4876 49.9594C25.6231 49.9594 26.0126 49.9594 26.5335 49.9365C27.4123 49.8965 28.2615 49.6068 28.9814 49.1013C29.7013 48.5957 30.2621 47.8953 30.5981 47.0823L31.5856 44.6781L43.0543 16.7573H39.2918L34.4668 28.9886L29.6043 16.7573H25.6272L32.4481 33.449L27.3731 45.7615C27.2926 45.9595 27.1574 46.1305 26.9832 46.2545C26.8091 46.3785 26.6032 46.4503 26.3897 46.4615C26.0897 46.4719 25.796 46.4823 25.4897 46.4823C15.9376 46.4823 7.43347 40.0865 4.80638 30.9302C4.25468 29.0036 3.97558 27.0093 3.97722 25.0052C3.96228 19.9219 5.75768 14.9994 9.04181 11.1193C12.3259 7.23931 16.8842 4.65531 21.9001 3.83022C22.3626 3.75314 23.7522 3.52814 25.4939 3.52814C34.696 3.52814 42.721 9.21981 45.7647 17.7948C45.8814 18.0948 45.9689 18.4052 46.071 18.7115C46.6939 20.7406 47.0147 22.8531 47.0147 25.0052C47.0327 29.6161 45.5577 34.1088 42.8104 37.8118C40.0631 41.5149 36.191 44.2292 31.7731 45.549L32.7856 48.8823C43.3793 45.6615 50.4939 36.0656 50.4981 25.0073C50.4981 21.7823 49.8772 19.0281 49.1439 16.899L48.871 16.1427H48.8668C45.2022 6.44897 36.0085 0.0427246 25.496 0.0427246ZM18.071 16.4386C15.571 16.4386 13.5397 17.2427 11.8626 18.8886C10.1918 20.5261 9.35014 22.5844 9.35014 25.0052C9.35014 27.4094 10.1981 29.4573 11.8606 31.0886C13.5397 32.7344 15.5689 33.5344 18.0689 33.5344C21.6231 33.5344 24.6439 31.5448 25.9606 28.349L26.0293 28.1781L22.6356 27.024C22.2856 27.974 21.0626 30.124 18.071 30.124C16.6647 30.124 15.4793 29.6365 14.5418 28.6656C13.5897 27.6865 13.1106 26.4531 13.1106 25.0052C13.1106 23.5469 13.5793 22.3386 14.5418 21.3115C15.4835 20.3427 16.6668 19.849 18.071 19.849C21.0668 19.849 22.2856 22.1031 22.6397 22.9511L26.0293 21.799L25.9606 21.624C24.6481 18.424 21.6231 16.4386 18.071 16.4386Z" fill="white"/>
</g>
<defs>
<clipPath id="clip0_744_226">
<rect width="50" height="50" fill="white" transform="translate(0.5)"/>
</clipPath>
</defs>
</svg>
