<svg width="70" height="68" viewBox="0 0 70 68" fill="none" xmlns="http://www.w3.org/2000/svg">
<path fill-rule="evenodd" clip-rule="evenodd" d="M61.8374 60.0309C63.4905 58.5742 64.5297 56.4606 64.5297 54.1087V28.5099C64.53 27.2928 64.2462 26.092 63.7 25C63.1538 23.908 62.36 22.954 61.3797 22.2116L39.9269 5.6495C38.5146 4.57996 35 4 35 4C35 4 31.4854 4.57996 30.0731 5.6495L8.6215 22.2092C7.64048 22.9522 6.84619 23.907 6.3 25C5.75381 26.093 5.47035 27.2949 5.4715 28.5128L5.39456 53.9646C5.39172 55.0057 5.59746 56.0372 6 57C6.40254 57.9628 6.99401 58.8382 7.74059 59.5761C8.48717 60.314 12.0231 61.5995 13 62C13.9769 62.4005 15.4417 62.4979 16.5 62.5H20V43.5145C20 41.5 20 38.9932 22 37C23.5 35 26.6438 35 29.5 35H40.5C45 35 45 35 48 36.5C50.5 39 50 40.5 50.5 43.5145V62.5H56.5C58.5515 62.4894 60.4212 61.281 61.8374 60.0309ZM70 54.1087C70 58.3234 68.5294 61.0198 65.5 64C62.4706 66.9802 58.2843 68 54 68H16.5C12.2157 68 8.10694 67.3258 5.07751 64.3456C2.04807 61.3654 0 58.3234 0 54.1087V30.15C0.000168391 27.7168 0.56829 25.3162 1.66057 23.1332C2.75285 20.9501 4.34011 19.043 6.3 17.5588L25.1462 3.29901C27.9708 1.15991 31.4353 0 35 0C38.5647 0 42.0292 1.15991 44.8538 3.29901L63.7 17.5588C65.6597 19.0444 67.2467 20.9525 68.339 23.1363C69.4312 25.3202 69.9994 27.7214 70 30.1553V54.1087ZM45.7114 42C45.7114 41.2976 45.4278 40.6239 44.9229 40.1272C44.418 39.6305 43.7332 39.3515 43.0191 39.3515H27.1923C26.4783 39.3515 25.7935 39.6305 25.2886 40.1272C24.7837 40.6239 24.5 41.2976 24.5 42V62.5H45.7114V42Z" fill="white"/>
</svg>
