<svg width="83" height="83" viewBox="0 0 83 83" fill="none" xmlns="http://www.w3.org/2000/svg">
<mask id="mask0_302_3143" style="mask-type:luminance" maskUnits="userSpaceOnUse" x="0" y="0" width="83" height="83">
<path d="M0 0.47113H82.4878V82.9589H0V0.47113Z" fill="white"/>
</mask>
<g mask="url(#mask0_302_3143)">
<path fill-rule="evenodd" clip-rule="evenodd" d="M36.0884 37.5C38.8231 37.5 41.5701 36.9299 45.5 33C48.6333 29.8667 49.4056 27.5 49.5 23.6708C49.5 20.9361 49.0389 17.0389 46 14C44.0663 12.0663 41.1768 10 36.0884 10C31 10 27.3599 12.6401 26 14C23.2387 16.7613 22.5 21.1382 22.5 23.6708C22.5 26.5 23.3292 29.5 25 31.6723C26.1904 33.22 30 37 36.0884 37.5ZM36.0884 41.715C40.874 41.715 45.4636 39.8139 48.8476 36.4299C52.2315 33.046 54.1326 28.4564 54.1326 23.6708C54.1326 18.8851 52.2315 14.2955 48.8476 10.9116C45.4636 7.52764 40.874 5.62656 36.0884 5.62656C31.3028 5.62656 26.7132 7.52764 23.3292 10.9116C19.9453 14.2955 18.0442 18.8851 18.0442 23.6708C18.0442 28.4564 19.9453 33.046 23.3292 36.4299C26.7132 39.8139 31.3028 41.715 36.0884 41.715ZM31.5 47C31.5 44.7831 31 44.4993 29.4636 44.6794C12.7495 46.6385 0 55.7791 0 64.9147C0 68.333 1.35791 71.6113 3.77502 74.0284C6.19212 76.4455 9.47042 77.8034 12.8887 77.8034H29.6441C30.6695 77.8034 31.653 77.396 32.3782 76.6709C33.1033 75.9458 32.8666 76.0948 32.8666 75.0693C32.8666 74.0438 32.4592 73.0603 31.7341 72.3352C31.009 71.61 30.0255 71.2027 29 71.2027C27.9745 71.2027 10 71.2027 10 71.2027C8.63268 71.2027 7.51001 70.51 6 69C5.5 68.5 4.84451 67.3293 4.84451 64.9147C4.84451 62.5 5.82896 57.8511 11.5 54.5C15.4439 52.1697 21.432 49.7785 27.5 49C29.7449 48.712 30.5 48.5 31.5 47ZM74.7649 58.1558C72.324 57.5169 70.1622 56.0902 68.6148 54.0973C67.0674 52.1044 66.221 49.6565 66.2068 47.1334L62.701 45.8136C61.1177 47.9579 58.8792 49.5283 56.3241 50.2873C53.7689 51.0464 51.0361 50.9527 48.5389 50.0205L46.4458 52.9539C49.3844 57.0165 49.3844 62.5947 46.4458 66.6521L48.5389 69.5855C51.0361 68.6533 53.7689 68.5596 56.3241 69.3187C58.8792 70.0777 61.1177 71.6481 62.701 73.7924L66.2068 72.4778C66.2199 69.9538 67.0658 67.5047 68.6133 65.5107C70.1607 63.5168 72.3231 62.0894 74.7649 61.4502V58.1558ZM72.648 47.3542C72.8184 46.9009 72.8978 46.4185 72.8817 45.9345C72.8656 45.4506 72.7543 44.9745 72.5542 44.5336C72.3541 44.0926 72.0691 43.6955 71.7154 43.3647C71.3617 43.034 70.9463 42.7761 70.493 42.606L63.3897 39.2822C62.8413 39.0762 62.2577 38.9803 61.6723 39C61.0868 39.0197 60.511 39.1545 59.9777 39.3967C59.4443 39.639 58.964 39.9839 58.564 40.4119C58.164 40.8398 57.8522 41.3424 57.6465 41.8908C57.4008 42.5315 57.0114 43.1072 56.5083 43.5737C56.0052 44.0403 55.4018 44.3851 54.7444 44.5818C54.0871 44.7785 53.3934 44.8218 52.7167 44.7083C52.0401 44.5949 51.3984 44.3276 50.8412 43.9273C49.8623 43.2269 48.6461 42.9423 47.458 43.1354C46.27 43.3286 45.2066 43.9839 44.5 44.9584L40.1909 51.4353C39.8871 51.86 39.6699 52.3405 39.5518 52.8492C39.4338 53.358 39.4171 53.885 39.5028 54.4001C39.5885 54.9153 39.7749 55.4085 40.0513 55.8516C40.3277 56.2948 40.6888 56.679 41.1138 56.9826C43.3306 58.5704 43.3306 61.87 41.1138 63.4527C40.6884 63.7558 40.3269 64.1398 40.05 64.5827C39.7731 65.0257 39.5862 65.5188 39.5 66.034C39.4138 66.5492 39.43 67.0763 39.5477 67.5853C39.6654 68.0942 39.8822 68.5749 40.1858 69L43.8113 74.0416C44.5179 75.0161 45.5813 75.6714 46.7694 75.8646C47.9574 76.0577 49.1737 75.7731 50.1526 75.0727C50.7098 74.6724 51.3514 74.4051 52.0281 74.2917C52.7048 74.1782 53.3984 74.2215 54.0558 74.4182C54.7131 74.6149 55.3165 74.9597 55.8197 75.4263C56.3228 75.8928 56.7121 76.4685 56.9578 77.1092C57.1635 77.6576 57.4753 78.1602 57.8753 78.5881C58.2753 79.0161 58.7557 79.361 59.289 79.6033C59.8223 79.8455 60.3982 79.9803 60.9836 80C61.5691 80.0197 62.1527 79.9238 62.701 79.7178L70.493 77.3484C71.4073 77.0047 72.1478 76.3121 72.5519 75.4228C72.956 74.5335 72.9905 73.5201 72.648 72.6054C72.4388 72.0475 72.368 71.4472 72.4416 70.8559C72.5152 70.2647 72.7311 69.7001 73.0706 69.2105C73.4102 68.721 73.8634 68.321 74.3913 68.0449C74.9193 67.7688 75.5064 67.6248 76.1022 67.6252H76.793C77.3409 67.6259 77.8836 67.5184 78.3899 67.3091C78.8962 67.0997 79.3563 66.7925 79.7437 66.4051C80.1311 66.0177 80.4383 65.5576 80.6477 65.0513C80.857 64.5449 80.9645 64.0023 80.9638 63.4544V56.5C80.9638 55.9525 80.8559 55.4104 80.6462 54.9047C80.4365 54.399 80.1292 53.9395 79.7419 53.5526C79.3545 53.1657 78.8947 52.859 78.3887 52.65C77.8827 52.4409 77.3405 52.3337 76.793 52.3344H76.097C75.5016 52.3339 74.9152 52.1893 74.3879 51.9129C73.8606 51.6364 73.4081 51.2363 73.0692 50.7469C72.7302 50.2574 72.5148 49.6931 72.4415 49.1023C72.3681 48.5115 72.439 47.9116 72.648 47.3542ZM64.7375 59.5117C64.7598 60.2377 64.6362 60.9607 64.3738 61.638C64.1115 62.3153 63.7158 62.933 63.2102 63.4544C62.7046 63.9758 62.0994 64.3904 61.4305 64.6735C60.7617 64.9566 60.0428 65.1025 59.3165 65.1025C58.5902 65.1025 57.8712 64.9566 57.2024 64.6735C56.5335 64.3904 55.9284 63.9758 55.4228 63.4544C54.9172 62.933 54.5214 62.3153 54.2591 61.638C53.9967 60.9607 53.8731 60.2377 53.8955 59.5117C53.9389 58.1029 54.5291 56.7664 55.541 55.7852C56.5529 54.804 57.907 54.2553 59.3165 54.2553C60.7259 54.2553 62.08 54.804 63.0919 55.7852C64.1038 56.7664 64.694 58.1029 64.7375 59.5117Z" fill="white"/>
</g>
</svg>
