<svg width="79" height="69" viewBox="0 0 79 69" fill="none" xmlns="http://www.w3.org/2000/svg">
<path fill-rule="evenodd" clip-rule="evenodd" d="M5.96713 6.83087C9.98033 2.42267 15.7105 0 22.436 0C28.5664 0 35.1037 4.83307 39.4908 10.5C43.8516 4.83833 50.3809 0 56.564 0C63.2737 0 68.9933 2.41213 73.0171 6.8098C76.9987 11.1706 79 17.143 79 23.7685C79 35.1761 73.1382 44.3559 65.7175 51.4922C58.3178 58.6127 49.0221 64.0427 41.317 68.0295C40.7526 68.3215 40.1262 68.4729 39.4908 68.4711C38.8554 68.4693 38.2299 68.3142 37.6672 68.019C29.9621 63.99 20.6664 58.6022 13.2667 51.5185C5.846 44.4033 0 35.2551 0 23.7737C0 17.1641 1.9908 11.1917 5.96713 6.83087ZM10.5 10.5C7 14.5 5.96713 18.7177 5.96713 23.7737C5.96713 32.3268 11.4641 41.7432 18 48C24.0356 53.7828 32.4071 58.208 39.4908 62C46.5218 58.2607 54.4591 53.8091 60.5 48C67.0465 41.6958 73.0171 32.232 73.0171 23.7685C73.0171 18.6967 70.9016 13.1333 68.5 10.5C66.1405 7.9246 61.804 6 57.064 6C51.9237 6 45.9803 11.4364 43.246 16.2117C42.9874 17.0039 42.485 17.6941 41.8106 18.1835C41.1361 18.6729 40.3241 18.9364 39.4908 18.9364C38.6575 18.9364 37.8455 18.6729 37.1711 18.1835C36.4966 17.6941 35.9942 17.0039 35.7357 16.2117C31.9803 11 27.5183 6 22.436 6C17.6802 6 13.5 7.90527 10.5 10.5Z" fill="white"/>
</svg>
