<svg width="43" height="43" viewBox="0 0 43 43" fill="none" xmlns="http://www.w3.org/2000/svg">
<path d="M38.486 0H3.98131C1.79159 0 0 1.79159 0 3.98131V38.486C0 40.6757 1.79159 42.4673 3.98131 42.4673H38.486C40.6757 42.4673 42.4673 40.6757 42.4673 38.486V3.98131C42.4673 1.79159 40.6757 0 38.486 0ZM15.9253 34.5047H10.6168V15.9253H15.9253V34.5047ZM13.271 13.271C12.5671 13.271 11.892 12.9914 11.3942 12.4936C10.8965 11.9959 10.6168 11.3208 10.6168 10.6168C10.6168 9.91289 10.8965 9.23779 11.3942 8.74003C11.892 8.24226 12.5671 7.96263 13.271 7.96263C13.975 7.96263 14.6501 8.24226 15.1479 8.74003C15.6456 9.23779 15.9253 9.91289 15.9253 10.6168C15.9253 11.3208 15.6456 11.9959 15.1479 12.4936C14.6501 12.9914 13.975 13.271 13.271 13.271ZM34.5047 34.5047H29.1963V23.8879C29.1963 23.1839 28.9167 22.5088 28.4189 22.0111C27.9211 21.5133 27.246 21.2337 26.5421 21.2337C25.8381 21.2337 25.163 21.5133 24.6653 22.0111C24.1675 22.5088 23.8879 23.1839 23.8879 23.8879V34.5047H18.5795V15.9253H23.8879V19.2191C24.9814 17.7168 26.6589 15.9253 28.5327 15.9253C31.8346 15.9253 34.5047 18.8953 34.5047 22.5608V34.5047Z" fill="#EB9500"/>
</svg>
