<svg width="39" height="34" viewBox="0 0 39 34" xmlns="http://www.w3.org/2000/svg">
<path d="M37.5016 0.862197C37.1134 0.54791 36.6455 0.342086 36.1473 0.266547C35.6491 0.191008 35.1393 0.248569 34.6719 0.433127L2.42096 13.1522C1.8998 13.3614 1.4561 13.7206 1.14877 14.1819C0.841435 14.6433 0.685001 15.185 0.700234 15.7353C0.715468 16.2855 0.901647 16.8182 1.23406 17.2627C1.56647 17.7071 2.02939 18.0423 2.56136 18.2237L9.52024 20.5836L13.2913 32.7628C13.2985 32.7874 13.3219 32.8033 13.3327 32.8261C13.3715 32.9233 13.4283 33.0127 13.5001 33.0899C13.6092 33.2089 13.75 33.296 13.9069 33.3414C13.9249 33.3484 13.9375 33.3642 13.9555 33.3677H13.9663L13.9717 33.3695C14.1109 33.3988 14.2557 33.3915 14.3911 33.3484C14.4055 33.3449 14.4199 33.3449 14.4361 33.3396C14.5661 33.295 14.6838 33.2216 14.7799 33.1251C14.7907 33.1128 14.8087 33.111 14.8195 33.1004L20.243 27.2517L28.1577 33.2394C28.6383 33.6069 29.2305 33.8056 29.8407 33.8056C31.1619 33.8056 32.3013 32.9017 32.5731 31.6409L38.4448 3.47354C38.5444 2.99537 38.5092 2.49975 38.3431 2.03954C38.177 1.57934 37.8862 1.17182 37.5016 0.860438M15.2587 22.896L13.9861 28.9399L11.3311 20.362L24.4982 13.6622L15.5035 22.4511C15.379 22.5727 15.2938 22.7274 15.2587 22.896ZM30.8091 31.2874C30.7753 31.4469 30.7001 31.5952 30.5907 31.7181C30.4813 31.8409 30.3414 31.9343 30.1845 31.9891C30.0313 32.0467 29.8655 32.0643 29.7033 32.0402C29.541 32.0162 29.388 31.9513 29.2593 31.8519L20.6858 25.3649C20.5065 25.2297 20.2818 25.1655 20.0562 25.1851C19.8307 25.2046 19.621 25.3065 19.469 25.4704L15.6943 29.5342L16.9651 23.5079L29.9055 10.8644C30.057 10.7159 30.1492 10.5193 30.1655 10.3102C30.1817 10.1011 30.1209 9.89323 29.994 9.72407C29.8671 9.55491 29.6825 9.43562 29.4735 9.38773C29.2645 9.33985 29.0449 9.36652 28.8543 9.46293L10.2006 18.9552L3.14997 16.5602C2.96302 16.4999 2.79998 16.3841 2.68351 16.229C2.56704 16.074 2.50295 15.8873 2.50016 15.695C2.49119 15.501 2.54425 15.309 2.65198 15.1458C2.75971 14.9826 2.91677 14.8562 3.10137 14.7841L35.3469 2.065C35.5122 1.99641 35.6937 1.97423 35.8712 2.00095C36.0486 2.02766 36.2149 2.10222 36.3514 2.21623C36.487 2.32347 36.5895 2.46545 36.6474 2.6263C36.7052 2.78715 36.7161 2.96055 36.679 3.12712L30.8091 31.2874Z" fill="#c2a875"/>
</svg>
