<svg width="47" height="17" viewBox="0 0 47 17" fill="none" xmlns="http://www.w3.org/2000/svg">
<path d="M19.6875 16.125C18.9674 16.125 18.3642 15.881 17.8778 15.393C17.3915 14.905 17.1475 14.3018 17.1458 13.5833V11.0417H20.9583V12.3125H26.0417V9.77083H19.6875C18.9674 9.77083 18.3642 9.52683 17.8778 9.03883C17.3915 8.55083 17.1475 7.94761 17.1458 7.22917V3.41667C17.1458 2.69653 17.3898 2.09331 17.8778 1.607C18.3658 1.12069 18.9691 0.876694 19.6875 0.875H27.3125C28.0327 0.875 28.6367 1.119 29.1247 1.607C29.6127 2.095 29.8559 2.69822 29.8542 3.41667V5.95833H26.0417V4.6875H20.9583V7.22917H27.3125C28.0327 7.22917 28.6367 7.47317 29.1247 7.96117C29.6127 8.44917 29.8559 9.05239 29.8542 9.77083V13.5833C29.8542 14.3035 29.6102 14.9075 29.1222 15.3955C28.6342 15.8835 28.031 16.1267 27.3125 16.125H19.6875ZM36.2083 16.125C35.4882 16.125 34.885 15.881 34.3987 15.393C33.9124 14.905 33.6684 14.3018 33.6667 13.5833V11.0417H37.4792V12.3125H42.5625V9.77083H36.2083C35.4882 9.77083 34.885 9.52683 34.3987 9.03883C33.9124 8.55083 33.6684 7.94761 33.6667 7.22917V3.41667C33.6667 2.69653 33.9107 2.09331 34.3987 1.607C34.8867 1.12069 35.4899 0.876694 36.2083 0.875H43.8333C44.5535 0.875 45.1576 1.119 45.6456 1.607C46.1336 2.095 46.3767 2.69822 46.375 3.41667V5.95833H42.5625V4.6875H37.4792V7.22917H43.8333C44.5535 7.22917 45.1576 7.47317 45.6456 7.96117C46.1336 8.44917 46.3767 9.05239 46.375 9.77083V13.5833C46.375 14.3035 46.131 14.9075 45.643 15.3955C45.155 15.8835 44.5518 16.1267 43.8333 16.125H36.2083ZM3.16668 16.125C2.44654 16.125 1.84332 15.881 1.35702 15.393C0.87071 14.905 0.62671 14.3018 0.625015 13.5833V3.41667C0.625015 2.69653 0.869016 2.09331 1.35702 1.607C1.84502 1.12069 2.44824 0.876694 3.16668 0.875H10.7917C11.5118 0.875 12.1159 1.119 12.6039 1.607C13.0919 2.095 13.335 2.69822 13.3333 3.41667V5.95833H9.52085V4.6875H4.43752V12.3125H9.52085V11.0417H13.3333V13.5833C13.3333 14.3035 13.0893 14.9075 12.6013 15.3955C12.1133 15.8835 11.5101 16.1267 10.7917 16.125H3.16668Z" fill="white"/>
</svg>
