<svg width="35" height="35" viewBox="0 0 35 35" fill="none" xmlns="http://www.w3.org/2000/svg">
<path fill-rule="evenodd" clip-rule="evenodd" d="M29.75 8.75C29.75 8.28587 29.5656 7.84075 29.2374 7.51256C28.9092 7.18437 28.4641 7 28 7H7C6.53587 7 6.09075 7.18437 5.76256 7.51256C5.43437 7.84075 5.25 8.28587 5.25 8.75C5.25 9.21413 5.43437 9.65925 5.76256 9.98744C6.09075 10.3156 6.53587 10.5 7 10.5H28C28.4641 10.5 28.9092 10.3156 29.2374 9.98744C29.5656 9.65925 29.75 9.21413 29.75 8.75ZM29.75 17.5C29.75 17.0359 29.5656 16.5908 29.2374 16.2626C28.9092 15.9344 28.4641 15.75 28 15.75H7C6.53587 15.75 6.09075 15.9344 5.76256 16.2626C5.43437 16.5908 5.25 17.0359 5.25 17.5C5.25 17.9641 5.43437 18.4092 5.76256 18.7374C6.09075 19.0656 6.53587 19.25 7 19.25H28C28.4641 19.25 28.9092 19.0656 29.2374 18.7374C29.5656 18.4092 29.75 17.9641 29.75 17.5ZM29.75 26.25C29.75 25.7859 29.5656 25.3408 29.2374 25.0126C28.9092 24.6844 28.4641 24.5 28 24.5H17.5C17.0359 24.5 16.5908 24.6844 16.2626 25.0126C15.9344 25.3408 15.75 25.7859 15.75 26.25C15.75 26.7141 15.9344 27.1592 16.2626 27.4874C16.5908 27.8156 17.0359 28 17.5 28H28C28.4641 28 28.9092 27.8156 29.2374 27.4874C29.5656 27.1592 29.75 26.7141 29.75 26.25Z" fill="white"></path>
</svg>
