<svg width="51" height="50" fill="none" xmlns="http://www.w3.org/2000/svg"><g clip-path="url('#clip0_744_226')"><path d="M25.496.043c-1.8 0-3.504.229-4.467.402v.004A24.854 24.854 0 0 0 .5 25.005c0 2.346.327 4.652.969 6.882.079.302.19.622.285.93C5.102 42.954 14.721 49.956 25.488 49.96c.135 0 .525 0 1.046-.023a4.626 4.626 0 0 0 4.064-2.854l.988-2.404 11.468-27.92h-3.762l-4.825 12.23-4.863-12.23h-3.977l6.821 16.691-5.075 12.313a1.125 1.125 0 0 1-.983.7c-.3.01-.594.02-.9.02-9.552 0-18.057-6.395-20.684-15.552a21.458 21.458 0 0 1-.829-5.925A21.396 21.396 0 0 1 21.9 3.83a21.969 21.969 0 0 1 3.594-.302c9.202 0 17.227 5.692 20.27 14.267.117.3.205.61.307.916.623 2.03.944 4.142.944 6.294A21.354 21.354 0 0 1 31.773 45.55l1.013 3.333c10.593-3.22 17.708-12.816 17.712-23.875 0-3.225-.62-5.979-1.354-8.108l-.273-.756h-.004C45.202 6.449 36.009.043 25.496.043Zm-7.425 16.396c-2.5 0-4.531.804-6.208 2.45-1.671 1.637-2.513 3.695-2.513 6.116 0 2.404.848 4.452 2.51 6.084 1.68 1.645 3.709 2.445 6.209 2.445 3.554 0 6.575-1.99 7.892-5.185l.068-.17-3.393-1.155c-.35.95-1.573 3.1-4.565 3.1-1.406 0-2.592-.487-3.53-1.458-.951-.98-1.43-2.213-1.43-3.66 0-1.46.468-2.667 1.43-3.695.942-.968 2.126-1.462 3.53-1.462 2.996 0 4.215 2.254 4.569 3.102l3.39-1.152-.07-.175c-1.312-3.2-4.337-5.185-7.889-5.185Z" fill="#fff"/></g><defs><clipPath id="clip0_744_226"><path fill="#fff" transform="translate(.5)" d="M0 0h50v50H0z"/></clipPath></defs></svg>