<svg width="51" height="50" viewBox="0 0 51 50" fill="none" xmlns="http://www.w3.org/2000/svg">
<path d="M25.5 6.25H19.25C17.5924 6.25 16.0027 6.90848 14.8306 8.08058C13.6585 9.25269 13 10.8424 13 12.5C13 14.1576 13.6585 15.7473 14.8306 16.9194C16.0027 18.0915 17.5924 18.75 19.25 18.75H25.5M25.5 6.25V18.75M25.5 6.25H31.75C33.4076 6.25 34.9973 6.90848 36.1694 8.08058C37.3415 9.25269 38 10.8424 38 12.5C38 14.1576 37.3415 15.7473 36.1694 16.9194C34.9973 18.0915 33.4076 18.75 31.75 18.75H25.5" stroke="white" stroke-width="2.19481" stroke-linecap="round" stroke-linejoin="round"></path>
<path d="M19.25 31.25C17.5924 31.25 16.0027 31.9085 14.8306 33.0806C13.6585 34.2527 13 35.8424 13 37.5C13 39.1576 13.6585 40.7473 14.8306 41.9194C16.0027 43.0915 17.5924 43.75 19.25 43.75C20.9076 43.75 22.4973 43.0915 23.6694 41.9194C24.8415 40.7473 25.5 39.1576 25.5 37.5V31.25M19.25 31.25H25.5M19.25 31.25C17.5924 31.25 16.0027 30.5915 14.8306 29.4194C13.6585 28.2473 13 26.6576 13 25C13 23.3424 13.6585 21.7527 14.8306 20.5806C16.0027 19.4085 17.5924 18.75 19.25 18.75H25.5V31.25M25.5 25C25.5 23.3424 26.1585 21.7527 27.3306 20.5806C28.5027 19.4085 30.0924 18.75 31.75 18.75C33.4076 18.75 34.9973 19.4085 36.1694 20.5806C37.3415 21.7527 38 23.3424 38 25C38 26.6576 37.3415 28.2473 36.1694 29.4194C34.9973 30.5915 33.4076 31.25 31.75 31.25C30.0924 31.25 28.5027 30.5915 27.3306 29.4194C26.1585 28.2473 25.5 26.6576 25.5 25Z" stroke="white" stroke-width="2.19481" stroke-linecap="round" stroke-linejoin="round"></path>
</svg>
