<svg width="51" height="50" fill="none" xmlns="http://www.w3.org/2000/svg"><g clip-path="url('#clip0_744_224')"><path d="M49.554 22.77 27.723.943a3.23 3.23 0 0 0-4.558 0l-4.523 4.53 5.75 5.75A3.829 3.829 0 0 1 29.24 16.1l5.537 5.542a3.83 3.83 0 0 1 3.958 6.33 3.828 3.828 0 0 1-5.416 0 3.854 3.854 0 0 1-.842-4.158l-5.185-5.158V32.25c.366.18.712.423 1.016.725a3.854 3.854 0 0 1 0 5.417 3.841 3.841 0 0 1-6.559-2.707 3.821 3.821 0 0 1 1.124-2.706c.38-.375.806-.658 1.26-.846V18.406a3.82 3.82 0 0 1-2.075-5.02l-5.65-5.678-14.97 14.96a3.242 3.242 0 0 0 0 4.561L23.27 49.056a3.219 3.219 0 0 0 4.554 0l21.73-21.729a3.218 3.218 0 0 0 0-4.556Z" fill="#fff"/></g><defs><clipPath id="clip0_744_224"><path fill="#fff" transform="translate(.5)" d="M0 0h50v50H0z"/></clipPath></defs></svg>