<svg width="70" height="68" fill="none" xmlns="http://www.w3.org/2000/svg"><path fill-rule="evenodd" clip-rule="evenodd" d="M61.837 60.03c1.653-1.456 2.693-3.57 2.693-5.921v-25.6A7.84 7.84 0 0 0 63.7 25a7.975 7.975 0 0 0-2.32-2.788L39.927 5.649C38.515 4.58 35 4 35 4s-3.515.58-4.927 1.65L8.622 22.21A7.975 7.975 0 0 0 6.3 25a7.84 7.84 0 0 0-.829 3.513l-.076 25.452A7.812 7.812 0 0 0 6 57a7.917 7.917 0 0 0 1.74 2.576C8.488 60.314 12.024 61.6 13 62c.977.4 2.442.498 3.5.5H20V43.514c0-2.014 0-4.52 2-6.514 1.5-2 4.644-2 7.5-2h11c4.5 0 4.5 0 7.5 1.5 2.5 2.5 2 4 2.5 7.014V62.5h6c2.051-.01 3.921-1.219 5.337-2.47ZM70 54.11c0 4.214-1.47 6.91-4.5 9.891-3.03 2.98-7.216 4-11.5 4H16.5c-4.284 0-8.393-.674-11.422-3.654C2.048 61.366 0 58.323 0 54.109V30.15c0-2.433.568-4.834 1.66-7.017A15.948 15.948 0 0 1 6.3 17.56l18.846-14.26A16.327 16.327 0 0 1 35 0c3.565 0 7.03 1.16 9.854 3.299L63.7 17.559a15.966 15.966 0 0 1 4.639 5.577A15.696 15.696 0 0 1 70 30.156v23.953ZM45.711 42c0-.702-.283-1.376-.788-1.873a2.715 2.715 0 0 0-1.904-.776H27.192c-.714 0-1.398.28-1.903.776A2.627 2.627 0 0 0 24.5 42v20.5h21.211V42Z" fill="#fff"/></svg>