<svg width="43" height="43" viewBox="0 0 43 43" xmlns="http://www.w3.org/2000/svg">
<path d="M21.2337 0.467285C15.4714 0.467285 14.7468 0.493827 12.4827 0.594687C10.2187 0.700856 8.67661 1.05652 7.32562 1.58205C5.90786 2.11376 4.62401 2.95003 3.5646 4.03189C2.48274 5.09129 1.64647 6.37514 1.11477 7.7929C0.589234 9.14124 0.230916 10.686 0.127402 12.9421C0.0265421 15.2114 0 15.9334 0 21.7036C0 27.4686 0.0265421 28.1905 0.127402 30.4545C0.23357 32.7159 0.589234 34.258 1.11477 35.609C1.65888 37.0051 2.38348 38.1889 3.5646 39.37C4.74307 40.5511 5.92685 41.2784 7.32296 41.8199C8.67661 42.3454 10.2161 42.7037 12.4774 42.8072C14.7441 42.9081 15.4661 42.9346 21.2337 42.9346C27.0013 42.9346 27.7206 42.9081 29.9873 42.8072C32.246 42.7011 33.7934 42.3454 35.1444 41.8199C36.5612 41.2878 37.8441 40.4516 38.9027 39.37C40.0839 38.1889 40.8085 37.0051 41.3526 35.609C41.8755 34.258 42.2338 32.7159 42.3399 30.4545C42.4408 28.1905 42.4673 27.4685 42.4673 21.701C42.4673 15.9334 42.4408 15.2114 42.3399 12.9447C42.2338 10.686 41.8755 9.14124 41.3526 7.7929C40.8209 6.37514 39.9846 5.09129 38.9027 4.03189C37.8433 2.95003 36.5595 2.11376 35.1417 1.58205C33.7881 1.05652 32.2433 0.698201 29.9846 0.594687C27.7179 0.493827 26.9986 0.467285 21.2284 0.467285H21.2337ZM19.3306 4.29465H21.2363C26.9057 4.29465 27.5772 4.31323 29.8147 4.41675C31.885 4.50964 33.0104 4.85735 33.7589 5.14666C34.7489 5.53152 35.4576 5.99335 36.2008 6.73653C36.9439 7.4797 37.4031 8.18572 37.788 9.1784C38.0799 9.92423 38.425 11.0496 38.5179 13.1199C38.6214 15.3574 38.6426 16.0289 38.6426 21.6956C38.6426 27.3624 38.6214 28.0365 38.5179 30.274C38.425 32.3443 38.0773 33.4671 37.788 34.2155C37.4451 35.1363 36.9021 35.9694 36.1981 36.6548C35.4549 37.3979 34.7489 37.8571 33.7562 38.242C33.0131 38.5339 31.8877 38.879 29.8147 38.9745C27.5772 39.0754 26.9057 39.0993 21.2363 39.0993C15.5669 39.0993 14.8928 39.0754 12.6553 38.9745C10.585 38.879 9.46225 38.5339 8.71377 38.242C7.79231 37.9003 6.95827 37.3581 6.27189 36.6548C5.5666 35.9689 5.02263 35.1348 4.67937 34.2129C4.39006 33.4671 4.04236 32.3417 3.94946 30.2714C3.8486 28.0339 3.82737 27.3624 3.82737 21.6903C3.82737 16.0183 3.8486 15.3521 3.94946 13.1146C4.04501 11.0443 4.39006 9.91892 4.68202 9.17044C5.06688 8.18042 5.52872 7.47174 6.27189 6.72856C7.01507 5.98538 7.72109 5.52621 8.71377 5.14135C9.46225 4.84938 10.585 4.50434 12.6553 4.40879C14.6141 4.31854 15.3732 4.292 19.3306 4.28935V4.29465ZM32.5698 7.81944C32.2352 7.81944 31.9038 7.88535 31.5947 8.0134C31.2856 8.14145 31.0047 8.32914 30.7681 8.56575C30.5315 8.80235 30.3438 9.08325 30.2157 9.39239C30.0877 9.70153 30.0218 10.0329 30.0218 10.3675C30.0218 10.7021 30.0877 11.0334 30.2157 11.3426C30.3438 11.6517 30.5315 11.9326 30.7681 12.1692C31.0047 12.4058 31.2856 12.5935 31.5947 12.7216C31.9038 12.8496 32.2352 12.9155 32.5698 12.9155C33.2456 12.9155 33.8937 12.6471 34.3715 12.1692C34.8494 11.6914 35.1178 11.0433 35.1178 10.3675C35.1178 9.6917 34.8494 9.0436 34.3715 8.56575C33.8937 8.0879 33.2456 7.81944 32.5698 7.81944ZM21.2363 10.7975C19.79 10.7749 18.3536 11.0403 17.0108 11.5782C15.668 12.1161 14.4456 12.9157 13.4148 13.9306C12.384 14.9454 11.5654 16.1552 11.0066 17.4894C10.4478 18.8237 10.16 20.2557 10.16 21.7023C10.16 23.1488 10.4478 24.5809 11.0066 25.9151C11.5654 27.2494 12.384 28.4592 13.4148 29.474C14.4456 30.4889 15.668 31.2885 17.0108 31.8264C18.3536 32.3643 19.79 32.6297 21.2363 32.6071C24.099 32.5624 26.8293 31.3939 28.8379 29.3537C30.8465 27.3135 31.9723 24.5653 31.9723 21.7023C31.9723 18.8393 30.8465 16.0911 28.8379 14.0509C26.8293 12.0107 24.099 10.8421 21.2363 10.7975ZM21.2363 14.6222C22.1659 14.6222 23.0864 14.8053 23.9453 15.161C24.8041 15.5168 25.5844 16.0382 26.2418 16.6955C26.8991 17.3528 27.4205 18.1332 27.7763 18.992C28.132 19.8509 28.3151 20.7714 28.3151 21.701C28.3151 22.6306 28.132 23.551 27.7763 24.4099C27.4205 25.2687 26.8991 26.0491 26.2418 26.7064C25.5844 27.3637 24.8041 27.8851 23.9453 28.2409C23.0864 28.5966 22.1659 28.7797 21.2363 28.7797C19.3589 28.7797 17.5584 28.0339 16.2309 26.7064C14.9033 25.3789 14.1575 23.5784 14.1575 21.701C14.1575 19.8235 14.9033 18.023 16.2309 16.6955C17.5584 15.368 19.3589 14.6222 21.2363 14.6222Z" fill="#c2a875"></path>
</svg>
