<svg width="51" height="50" fill="none" xmlns="http://www.w3.org/2000/svg"><path d="M30.663 31.006a8.46 8.46 0 0 1-4.557-.829 2.996 2.996 0 0 1-1.116-2.104.463.463 0 0 0-.471-.458c-.66-.007-1.32-.007-1.98 0a.44.44 0 0 0-.48.387 4.873 4.873 0 0 0 1.568 3.842 8.315 8.315 0 0 0 4.642 1.748c1.76.203 3.54.127 5.277-.225a6.513 6.513 0 0 0 3.496-1.884 4.872 4.872 0 0 0 .825-4.648 3.894 3.894 0 0 0-2.563-2.28c-2.666-.938-5.55-.865-8.27-1.578-.474-.146-1.05-.308-1.261-.808a1.781 1.781 0 0 1 .592-1.99 5.329 5.329 0 0 1 2.812-.7 8.478 8.478 0 0 1 3.923.563 2.99 2.99 0 0 1 1.431 2.066.507.507 0 0 0 .475.492c.654.012 1.309.002 1.965.004a.475.475 0 0 0 .514-.35 5.071 5.071 0 0 0-2.472-4.387 12.25 12.25 0 0 0-6.705-1.027 7.302 7.302 0 0 0-4.533 1.823 4.532 4.532 0 0 0-.904 4.712 4.02 4.02 0 0 0 2.537 2.212c2.66.96 5.575.653 8.259 1.503.525.177 1.133.45 1.293 1.03a2.062 2.062 0 0 1-.562 1.972 6.188 6.188 0 0 1-3.736.914Zm12.122-17.594c-5.191-2.936-10.385-5.87-15.58-8.802a3.494 3.494 0 0 0-3.411 0L8.27 13.377a3.213 3.213 0 0 0-1.677 2.796v17.656a3.235 3.235 0 0 0 1.741 2.823c1.486.808 2.93 1.7 4.444 2.456a6.383 6.383 0 0 0 5.704.157 4.434 4.434 0 0 0 2.073-4.002c.01-5.828 0-11.655.004-17.48a.458.458 0 0 0-.43-.53 86.446 86.446 0 0 0-1.986 0 .436.436 0 0 0-.475.443c-.009 5.79.002 11.579-.004 17.37a1.958 1.958 0 0 1-1.271 1.84 3.194 3.194 0 0 1-2.584-.346l-4.129-2.333a.494.494 0 0 1-.281-.49V16.265a.54.54 0 0 1 .327-.542C14.884 12.817 20.04 9.91 25.196 7a.538.538 0 0 1 .608 0l15.471 8.72a.546.546 0 0 1 .325.542v17.475a.504.504 0 0 1-.28.496 9495.58 9495.58 0 0 1-15.243 8.605c-.242.133-.53.352-.812.187-1.334-.754-2.646-1.538-3.975-2.298a.43.43 0 0 0-.48-.03c-.584.344-1.2.631-1.837.86-.288.116-.642.15-.84.416.253.274.56.494.9.646l4.659 2.694a3.396 3.396 0 0 0 3.448.095c5.175-2.916 10.35-5.836 15.525-8.758a3.241 3.241 0 0 0 1.741-2.82V16.172a3.21 3.21 0 0 0-1.62-2.76Z" fill="#fff"/></svg>