<svg width="43" height="43" xmlns="http://www.w3.org/2000/svg"><path d="M38.486 0H3.981A3.993 3.993 0 0 0 0 3.981v34.505a3.993 3.993 0 0 0 3.981 3.981h34.505a3.993 3.993 0 0 0 3.981-3.981V3.981A3.993 3.993 0 0 0 38.486 0Zm-22.56 34.505h-5.31v-18.58h5.31v18.58ZM13.27 13.27a2.654 2.654 0 1 1 0-5.308 2.654 2.654 0 0 1 0 5.308Zm21.234 21.234h-5.309V23.888a2.654 2.654 0 1 0-5.308 0v10.617h-5.309v-18.58h5.309v3.294c1.093-1.502 2.77-3.294 4.645-3.294 3.302 0 5.972 2.97 5.972 6.636v11.944Z" fill="#c2a875"/></svg>