<svg width="152" height="114" fill="none" xmlns="http://www.w3.org/2000/svg"><path fill-rule="evenodd" clip-rule="evenodd" d="M106.272 55.752a2.23 2.23 0 0 0-1.083.293 1.017 1.017 0 0 0-.335.38c-.077.193-.114.4-.108.608a5.429 5.429 0 0 0 1.082 2.647l2.274 3.624a19.5 19.5 0 0 0 3.053 4.026 6.228 6.228 0 0 0 4.331 1.747 6.35 6.35 0 0 0 4.601-1.834 19.967 19.967 0 0 0 3.15-4.34l2.556-4.221c.39-.682.578-1.461.541-2.246-.065-.26-.347-.38-.823-.413h-.877c-.23.021-.462.021-.693 0l.877-3.884c-6.496 1.085-11.368-3.809-18.243-.966l.477 4.655a3.711 3.711 0 0 1-.78 0v-.076Zm-17.323 30.11c.607-7.833-.93-7.942 5.63-10.405a62.914 62.914 0 0 0 10.448-4.666l5.619 15.072H88.949Zm53.051 0c-.595-7.833.931-7.942-5.619-10.405a63.445 63.445 0 0 1-10.459-4.666l-5.619 15.072H142Zm-24.901-8.213h.779a1.298 1.298 0 0 0 1.289-1.291v-2.084a1.291 1.291 0 0 0-1.289-1.29h-4.655a1.291 1.291 0 0 0-1.289 1.291v2.093a1.305 1.305 0 0 0 1.289 1.292h.823l-1.516 8.214h6.063l-1.462-8.214-.032-.011Zm-72.019.466.888.88a.608.608 0 0 1 0 .846l-.715.716c.2.373.348.77.444 1.183h.92a.595.595 0 0 1 .596.596v1.248a.598.598 0 0 1-.596.597h-1.006c-.125.4-.3.783-.52 1.14l.65.661a.609.609 0 0 1 0 .847l-.888.879a.595.595 0 0 1-.834 0l-.715-.717c-.372.2-.769.35-1.18.445v.944a.598.598 0 0 1-.595.597h-1.245a.595.595 0 0 1-.596-.597v-1.009a4.784 4.784 0 0 1-1.147-.52l-.65.65a.584.584 0 0 1-.844 0l-.877-.879a.586.586 0 0 1 0-.846l.703-.716c-.2-.372-.345-.77-.433-1.183h-.92a.584.584 0 0 1-.595-.597v-1.27a.597.597 0 0 1 .595-.596h1.007c.122-.384.297-.75.52-1.085l-.65-.651a.584.584 0 0 1 0-.846l.877-.89a.606.606 0 0 1 .844 0l.715.716a4.82 4.82 0 0 1 1.18-.445v-.922a.597.597 0 0 1 .596-.597h1.245a.595.595 0 0 1 .595.597V78.3c.402.118.785.293 1.137.52l.65-.65a.584.584 0 0 1 .844 0v-.055Zm-4.017 2.17a2.453 2.453 0 0 1 2.27 1.521 2.469 2.469 0 0 1-.532 2.684 2.457 2.457 0 0 1-4.195-1.741c0-.654.259-1.28.72-1.742a2.455 2.455 0 0 1 1.737-.721ZM56.047 63.25a2.348 2.348 0 0 1-1.552-.835 2.358 2.358 0 0 1-.537-1.682 2.305 2.305 0 0 1 1.222-2.265c.27-.141.565-.227.867-.253h26.731a2.368 2.368 0 0 1 2.1 2.517 2.316 2.316 0 0 1-1.231 2.266c-.27.14-.565.226-.869.252h-26.73Zm0 22.016a2.36 2.36 0 0 1-1.55-.838 2.369 2.369 0 0 1-.54-1.68 2.316 2.316 0 0 1 1.223-2.271c.27-.142.564-.23.867-.257H74.29a2.368 2.368 0 0 1 2.09 2.528 2.305 2.305 0 0 1-1.223 2.265c-.27.141-.564.227-.867.253H56.047Zm-15.049-40.69a1.438 1.438 0 0 1-1.927-.25l-.162-.173-2.685-2.767a1.53 1.53 0 0 1 .249-2.17 1.784 1.784 0 0 1 2.35-.076l1.417 1.497 4.7-3.776a1.46 1.46 0 0 1 2.089.52 1.684 1.684 0 0 1-.108 2.323l-5.868 4.872h-.055Zm14.92-2.17c-1.17 0-1.95-1.183-1.95-2.528 0-1.346.78-2.496 1.95-2.496h30.606a2.358 2.358 0 0 1 2.09 2.517 2.316 2.316 0 0 1-1.222 2.272c-.27.142-.564.23-.868.257l-30.607-.022ZM25.04 19.912h91.907a2.585 2.585 0 0 1 1.819.76c.483.484.755 1.139.758 1.823v7.465h-4.775v-5.827h-89.71v55.339a1.565 1.565 0 0 1-1.33 1.551c-14.021 2.181-14.682 18.816-.423 21.203h91.463v-6.988h4.775v9.18a2.595 2.595 0 0 1-2.577 2.582h-93.77c-3.832 0-9.17-3.017-11.389-6.196-2.22-3.179-2.945-7.074-2.76-11.708V28.701C9.027 18.415 8.93 7.261 23.285 7h.173a1.58 1.58 0 0 1 1.58 1.584v11.328ZM12.763 82.12c3.128-3.255 4.395-3.71 8.596-4.481V10.255c-9.809.966-8.661 10.059-8.661 18.5V82.12h.064ZM45.08 56.078l.888.89a.608.608 0 0 1 0 .846l-.715.705c.197.374.347.771.444 1.183h.92a.595.595 0 0 1 .596.597v1.247a.608.608 0 0 1-.596.608h-1.006c-.131.38-.305.745-.52 1.085l.65.651a.609.609 0 0 1 0 .847l-.888.89a.595.595 0 0 1-.834 0l-.715-.717c-.372.2-.769.35-1.18.445v.922a.598.598 0 0 1-.595.597h-1.245a.594.594 0 0 1-.596-.597v-1.009a5.235 5.235 0 0 1-1.147-.52l-.65.65a.605.605 0 0 1-.844 0l-.877-.89a.586.586 0 0 1 0-.846l.703-.705a4.554 4.554 0 0 1-.433-1.183h-.92a.595.595 0 0 1-.595-.596v-1.172a.587.587 0 0 1 .595-.597h1.007c.115-.407.29-.795.52-1.15l-.65-.651a.584.584 0 0 1-.133-.654.585.585 0 0 1 .133-.193l.877-.879a.585.585 0 0 1 .844 0l.715.706a4.4 4.4 0 0 1 1.18-.434v-.923a.599.599 0 0 1 .596-.607h1.245a.605.605 0 0 1 .595.607v.999c.399.126.78.301 1.137.52l.65-.65a.606.606 0 0 1 .844 0v-.022Zm-4.017 2.235a2.454 2.454 0 0 1 2.272 1.523 2.467 2.467 0 0 1-.538 2.686 2.456 2.456 0 0 1-4.191-1.757 2.466 2.466 0 0 1 .723-1.734 2.455 2.455 0 0 1 1.734-.718Zm85.314-3.407a1.652 1.652 0 0 1 1.191 1.248 5.067 5.067 0 0 1-.617 3.114.237.237 0 0 1 0 .065l-2.588 4.275a21.326 21.326 0 0 1-3.356 4.568 7.646 7.646 0 0 1-5.489 2.17 7.396 7.396 0 0 1-5.218-2.094 20.092 20.092 0 0 1-3.248-4.275l-2.274-3.624a6.52 6.52 0 0 1-1.288-3.31c-.022-.405.053-.81.216-1.182.173-.37.443-.684.78-.912.173-.113.358-.208.552-.282a58.922 58.922 0 0 1-.108-6.51c.052-.5.147-.993.281-1.476 3.421-11.35 20.744-10.384 21.307 2.344l-.141 5.903v-.022Z" fill="#0072EB"/></svg>