<svg width="111" height="111" fill="none" xmlns="http://www.w3.org/2000/svg"><path d="M11.802 6.46c-.087-.002-.174-.001-.261.002-1.016.034-1.716.376-2.193.852-.635.636-1.031 1.667-.777 3.318.254 1.652 1.232 3.85 3.31 6.275 14.72 17.172 28.82 33.725 39.827 45.954a469.314 469.314 0 0 0 7.398 8.05c2.622-6.916 7.495-11.738 13.637-14.03a471.088 471.088 0 0 0-7.847-7.207C52.665 38.667 36.114 24.566 18.94 9.847c-2.425-2.08-4.623-3.056-6.274-3.31a6.408 6.408 0 0 0-.865-.078Zm81.322.225c-.066 0-.13.001-.19.005-.479.032-.723.142-.991.41l-5.98 5.98 11.958 11.957 5.979-5.98c.268-.268.378-.512.41-.991.032-.48-.081-1.178-.391-1.987-.623-1.617-2.012-3.613-3.698-5.3-1.686-1.686-3.682-3.075-5.3-3.697-.707-.272-1.33-.392-1.796-.397Zm-9.92 9.153-2.146 2.147 2.146 2.146 2.76 2.76 2.146 2.145 2.76 2.76 2.145 2.146 2.147-2.146-11.958-11.958ZM78.3 20.744 59.353 39.69l2.27 2.023L80.444 22.89 78.3 20.744Zm4.905 4.906L64.54 44.314l2.27 2.023 18.54-18.541-2.146-2.146Zm4.906 4.905L69.727 48.938l2.27 2.023 18.26-18.26-2.146-2.146ZM41.747 57.297 15.753 83.29l2.146 2.146 25.873-25.873-2.025-2.266Zm34.18 2.633c-6.604 1.654-11.542 6.327-13.79 14.14a148.694 148.694 0 0 0 3.42 3.404c1.644 1.575 3.057 2.82 4.165 3.677.386-3.735 2.178-7.168 4.693-9.69 2.298-2.303 5.31-3.903 8.482-4.138-.839-1.049-1.981-2.33-3.388-3.8a152.385 152.385 0 0 0-3.582-3.593Zm-29.55 2.547L20.658 88.195l2.147 2.147 25.598-25.598-2.026-2.267Zm4.63 5.18L25.565 93.101l2.146 2.146 25.324-25.323-2.026-2.267Zm32.584 3.535c-2.254.03-4.537 1.145-6.413 3.026-2.502 2.507-4.049 6.255-3.527 9.908 1.156 8.095 5.149 14.267 10.723 17.611 4.927 2.957 11.154 3.762 18.133 1.514-5.251-.869-10.075-6.656-10.449-10.98 2.305 2.778 5.19 5.322 8.331 6.883-2.142-4.895-1.995-9.854-2.404-13.945-.293-2.931-.844-5.416-2.466-7.623-1.623-2.207-4.428-4.292-9.7-6.05a6.735 6.735 0 0 0-2.228-.344Zm-69.885 15.57Zm0 0-2.627 6.57 6.59 6.59 6.57-2.628-1.434-1.434-2.76-2.759-2.146-2.146-2.76-2.76-1.433-1.432ZM9.501 97.275l-2.816 7.041 7.04-2.817-4.224-4.224Z" fill="#0072EB"/></svg>