<svg width="83" height="83" fill="none" xmlns="http://www.w3.org/2000/svg"><mask id="mask0_302_3143" style="mask-type:luminance" maskUnits="userSpaceOnUse" x="0" y="0" width="83" height="83"><path d="M0 .471h82.488V82.96H0V.47Z" fill="#fff"/></mask><g mask="url('#mask0_302_3143')"><path fill-rule="evenodd" clip-rule="evenodd" d="M36.088 37.5c2.735 0 5.482-.57 9.412-4.5 3.133-3.133 3.906-5.5 4-9.33 0-2.734-.461-6.631-3.5-9.67-1.934-1.934-4.823-4-9.912-4C31 10 27.36 12.64 26 14c-2.761 2.761-3.5 7.138-3.5 9.67 0 2.83.83 5.83 2.5 8.002C26.19 33.22 30 37 36.088 37.5Zm0 4.215a18.044 18.044 0 1 0 0-36.088 18.044 18.044 0 0 0 0 36.088ZM31.5 47c0-2.217-.5-2.5-2.036-2.32C12.749 46.638 0 55.78 0 64.914a12.889 12.889 0 0 0 12.889 12.888h16.755a3.867 3.867 0 0 0 2.734-1.132c.725-.725.489-.576.489-1.602A3.867 3.867 0 0 0 29 71.203H10c-1.367 0-2.49-.693-4-2.203-.5-.5-1.155-1.67-1.155-4.085S5.829 57.85 11.5 54.5c3.944-2.33 9.932-4.721 16-5.5 2.245-.288 3-.5 4-2Zm43.265 11.156a11.46 11.46 0 0 1-8.558-11.023l-3.506-1.32a12.27 12.27 0 0 1-14.162 4.207l-2.093 2.934c2.938 4.063 2.938 9.64 0 13.698l2.093 2.933A12.27 12.27 0 0 1 62.7 73.792l3.506-1.314a11.46 11.46 0 0 1 8.558-11.028v-3.294Zm-2.117-10.802a3.686 3.686 0 0 0-2.155-4.748l-7.103-3.324a4.458 4.458 0 0 0-5.743 2.609 4.485 4.485 0 0 1-6.806 2.036 4.558 4.558 0 0 0-6.341 1.031l-4.31 6.477a3.976 3.976 0 0 0 .924 5.548c2.217 1.587 2.217 4.887 0 6.47A3.975 3.975 0 0 0 40.186 69l3.625 5.042a4.557 4.557 0 0 0 6.342 1.03 4.485 4.485 0 0 1 6.805 2.037 4.459 4.459 0 0 0 5.743 2.609l7.792-2.37a3.686 3.686 0 0 0 2.155-4.743 3.686 3.686 0 0 1 3.454-4.98h.691a4.166 4.166 0 0 0 4.17-4.17V56.5a4.165 4.165 0 0 0-4.17-4.166h-.696a3.688 3.688 0 0 1-3.449-4.98Zm-7.91 12.158a5.424 5.424 0 1 1-10.844.333 5.424 5.424 0 0 1 10.843-.333Z" fill="#fff"/></g></svg>