<svg width="79" height="69" fill="none" xmlns="http://www.w3.org/2000/svg"><path fill-rule="evenodd" clip-rule="evenodd" d="M5.967 6.83C9.98 2.424 15.71 0 22.436 0c6.13 0 12.668 4.833 17.055 10.5C43.85 4.838 50.38 0 56.564 0c6.71 0 12.43 2.412 16.453 6.81C77 11.17 79 17.143 79 23.769c0 11.407-5.862 20.587-13.282 27.723-7.4 7.12-16.696 12.55-24.401 16.538a3.95 3.95 0 0 1-3.65-.011c-7.705-4.029-17-9.417-24.4-16.5C5.846 44.403 0 35.255 0 23.774c0-6.61 1.99-12.582 5.967-16.943ZM10.5 10.5c-3.5 4-4.533 8.218-4.533 13.274C5.967 32.327 11.464 41.744 18 48c6.036 5.783 14.407 10.208 21.49 14 7.032-3.74 14.97-8.19 21.01-14 6.546-6.304 12.517-15.768 12.517-24.232 0-5.071-2.115-10.635-4.517-13.268C66.14 7.925 61.804 6 57.064 6c-5.14 0-11.084 5.436-13.818 10.212a3.951 3.951 0 0 1-7.51 0C31.98 11 27.518 6 22.436 6 17.68 6 13.5 7.905 10.5 10.5Z" fill="#fff"/></svg>