<svg width="51" height="50" fill="none" xmlns="http://www.w3.org/2000/svg"><path d="M25.5 12.5c-5.562 0-9.02 2.77-10.417 8.333 2.084-2.77 4.521-3.812 7.292-3.125 1.583.396 2.73 1.542 3.98 2.813C28.394 22.604 30.707 25 35.916 25c5.562 0 9.02-2.77 10.416-8.333-2.083 2.77-4.52 3.812-7.291 3.125-1.584-.396-2.709-1.542-3.98-2.813-2.041-2.083-4.354-4.479-9.562-4.479ZM15.083 25c-5.562 0-9.02 2.77-10.416 8.333 2.083-2.77 4.52-3.812 7.291-3.125 1.584.396 2.709 1.542 3.98 2.813 2.041 2.083 4.354 4.479 9.562 4.479 5.563 0 9.02-2.77 10.417-8.333-2.084 2.77-4.521 3.812-7.292 3.125-1.583-.396-2.708-1.542-3.98-2.813C22.606 27.396 20.293 25 15.084 25Z" fill="#fff"/></svg>