<svg width="51" height="50" viewBox="0 0 51 50" fill="none" xmlns="http://www.w3.org/2000/svg">
<path d="M25.5001 12.5C19.9376 12.5 16.4792 15.2708 15.0834 20.8333C17.1667 18.0625 19.6042 17.0208 22.3751 17.7083C23.9584 18.1042 25.1042 19.25 26.3542 20.5208C28.3959 22.6042 30.7084 25 35.9168 25C41.4793 25 44.9376 22.2292 46.3334 16.6667C44.2501 19.4375 41.8126 20.4792 39.0418 19.7917C37.4584 19.3958 36.3334 18.25 35.0626 16.9792C33.0209 14.8958 30.7084 12.5 25.5001 12.5ZM15.0834 25C9.52091 25 6.06258 27.7708 4.66675 33.3333C6.75008 30.5625 9.18758 29.5208 11.9584 30.2083C13.5417 30.6042 14.6667 31.75 15.9376 33.0208C17.9792 35.1042 20.2917 37.5 25.5001 37.5C31.0626 37.5 34.5209 34.7292 35.9168 29.1667C33.8334 31.9375 31.3959 32.9792 28.6251 32.2917C27.0417 31.8958 25.9168 30.75 24.6459 29.4792C22.6042 27.3958 20.2917 25 15.0834 25Z" fill="white"></path>
</svg>
